<?xml version="1.0" encoding="utf-8"?>
<!-- Generator: Adobe Illustrator 16.0.0, SVG Export Plug-In . SVG Version: 6.00 Build 0)  -->
<!DOCTYPE svg PUBLIC "-//W3C//DTD SVG 1.1//EN" "http://www.w3.org/Graphics/SVG/1.1/DTD/svg11.dtd">
<svg version="1.1" id="Layer_1" xmlns="http://www.w3.org/2000/svg" xmlns:xlink="http://www.w3.org/1999/xlink" x="0px" y="0px"
	 width="270.192px" height="70.75px" viewBox="-141.5 141.5 270.192 70.75" enable-background="new -141.5 141.5 270.192 70.75"
	 xml:space="preserve">
<g>
	<g enable-background="new    ">
		<path fill="#D8D9DA" d="M-51.75,147.695v7.275c0.372-0.46,1.041-0.768,1.822-0.768h12.229v2.795c0,0.269-0.222,0.498-0.482,0.498
			h-13.568v6.548c0,1.608,1.264,2.91,2.825,2.91h12.043c0.26,0,0.483,0.229,0.483,0.498v2.795h-12.526
			c-3.495,0-6.319-2.909-6.319-6.51v-15.735c0-3.601,2.824-6.509,6.319-6.509h12.526v2.794c0,0.268-0.223,0.498-0.483,0.498h-12.043
			C-50.487,144.785-51.75,146.088-51.75,147.695z"/>
		<path fill="#D8D9DA" d="M-14.843,141.952c0.112-0.23,0.372-0.459,0.632-0.459h3.233l-9.664,28.256
			c-0.074,0.268-0.372,0.498-0.632,0.498h-2.937c-0.26,0-0.558-0.23-0.632-0.498l-9.665-28.256h3.234
			c0.26,0,0.558,0.229,0.632,0.459l7.917,23.433L-14.843,141.952z"/>
		<path fill="#D8D9DA" d="M-4.848,147.695v7.275c0.372-0.46,1.041-0.768,1.823-0.768H9.203v2.795c0,0.269-0.223,0.498-0.483,0.498
			H-4.848v6.548c0,1.608,1.263,2.91,2.825,2.91H10.02c0.26,0,0.483,0.229,0.483,0.498v2.795H-2.024c-3.493,0-6.319-2.909-6.319-6.51
			v-15.735c0-3.601,2.826-6.509,6.319-6.509h12.527v2.794c0,0.268-0.223,0.498-0.483,0.498H-2.024
			C-3.585,144.785-4.848,146.088-4.848,147.695z"/>
		<path fill="#D8D9DA" d="M17.414,156.463v13.286c0,0.268-0.223,0.498-0.483,0.498h-3.011v-26.533c0-1.226,0.967-2.221,2.157-2.221
			h11.671c3.494,0,6.319,2.258,6.319,6.163v3.714c0,3.369-2.342,5.208-5.055,5.935l5.947,12.942h-3.234
			c-0.26,0-0.558-0.23-0.669-0.46l-5.65-12.291h-4.758H19.57c-1.041,0-1.821-0.306-2.082-1.033H17.414L17.414,156.463z
			 M27.747,154.203c1.563,0,2.825-1.301,2.825-2.909v-3.599c0-1.607-1.262-2.91-2.825-2.91H18.12c-0.408,0-0.706,0.346-0.706,0.729
			v7.963c0,0.421,0.334,0.728,0.706,0.728h9.627V154.203z"/>
		<path fill="#D8D9DA" d="M56.625,141.493v2.794c0,0.268-0.223,0.498-0.483,0.498h-7.956v24.964c0,0.268-0.185,0.498-0.482,0.498
			h-3.011v-25.462h-8.327v-2.795c0-0.269,0.222-0.497,0.482-0.497H56.625z"/>
		<path fill="#D8D9DA" d="M98.437,170.247h-3.048c-0.334,0-0.595-0.23-0.669-0.498l-2.49-7.39H78.028l-2.49,7.39
			c-0.074,0.268-0.372,0.498-0.669,0.498h-3.047l9.069-26.609c0.446-1.264,1.599-2.145,2.938-2.145h4.423
			c0.186,0,0.371,0.114,0.446,0.268L98.437,170.247z M91.114,159.066l-4.832-14.281h-1.823c-0.297,0-0.557,0.19-0.668,0.498
			l-4.647,13.783H91.114z"/>
		<path fill="#D8D9DA" d="M101.33,169.711v-3.064h2.937c0.297,0,0.52,0.27,0.52,0.574v3.026h-2.937
			C101.553,170.247,101.33,169.979,101.33,169.711z"/>
	</g>
	<g enable-background="new    ">
		<path fill="#D8D9DA" d="M-49.844,193.78v17.71c0,0.357-0.297,0.663-0.644,0.663h-4.014v-35.366c0-1.633,1.288-2.96,2.874-2.96
			h15.559c4.657,0,8.423,3.01,8.423,8.217v4.949c0,4.49-3.122,6.942-6.738,7.911l7.927,17.249h-4.31
			c-0.348,0-0.744-0.306-0.892-0.612l-7.531-16.382h-6.342h-1.437c-1.388,0-2.428-0.408-2.775-1.377h-0.101V193.78z M-36.07,190.771
			c2.081,0,3.766-1.735,3.766-3.879v-4.797c0-2.145-1.685-3.878-3.766-3.878h-12.833c-0.545,0-0.941,0.458-0.941,0.968v10.616
			c0,0.562,0.446,0.97,0.941,0.97H-36.07z"/>
		<path fill="#D8D9DA" d="M-14.117,212.358c-4.658,0-8.424-3.879-8.424-8.676v-21.385c0-4.797,3.766-8.675,8.424-8.675h11.198
			c4.608,0,8.422,3.878,8.422,8.675v21.385c0,4.797-3.815,8.676-8.422,8.676H-14.117z M-17.883,181.89v22.201
			c0,2.143,1.685,3.877,3.766,3.877h11.198c2.081,0,3.766-1.734,3.766-3.877V181.89c0-2.143-1.685-3.879-3.766-3.879h-11.198
			C-16.198,178.011-17.883,179.747-17.883,181.89z"/>
		<path fill="#D8D9DA" d="M11.602,209.194v-32.509c0-1.583,1.238-2.858,2.774-2.858h0.793h15.063c4.658,0,8.424,3.878,8.424,8.674
			v3.88c0,2.449-1.883,5.717-4.559,6.277c2.675,0.716,4.559,3.828,4.559,6.277v4.492c0,4.796-3.766,8.726-8.424,8.726H14.476
			C12.89,212.155,11.602,210.829,11.602,209.194z M16.259,190.464h13.973c2.083,0,3.767-1.735,3.767-3.879v-4.49
			c0-2.145-1.685-3.878-3.767-3.878H17.2c-0.545,0-0.941,0.407-0.941,0.968V190.464L16.259,190.464z M33.997,198.732
			c0-2.144-1.684-3.879-3.767-3.879H16.259v11.942c0,0.512,0.396,0.969,0.941,0.969h13.031c2.083,0,3.767-1.786,3.767-3.929v-5.104
			H33.997z"/>
		<path fill="#D8D9DA" d="M44.257,203.324v-28.835c0-0.357,0.297-0.662,0.645-0.662h4.012v29.957c0,2.193,1.734,3.98,3.816,3.98
			h15.458c0.348,0,0.645,0.306,0.645,0.664v3.725H52.73C48.073,212.155,44.257,208.175,44.257,203.324z"/>
		<path fill="#D8D9DA" d="M77.456,182.095v9.696c0.496-0.613,1.388-1.021,2.429-1.021h16.301v3.726c0,0.357-0.297,0.663-0.644,0.663
			H77.456v8.728c0,2.144,1.685,3.878,3.767,3.878h16.053c0.347,0,0.644,0.308,0.644,0.664v3.727H81.223
			c-4.657,0-8.424-3.879-8.424-8.677v-20.978c0-4.796,3.767-8.674,8.424-8.674H97.92v3.725c0,0.357-0.297,0.665-0.644,0.665H81.223
			C79.141,178.217,77.456,179.95,77.456,182.095z"/>
		<path fill="#D8D9DA" d="M120.567,207.765c2.082,0,3.667-1.734,3.667-3.878v-4.644c0-0.511-0.397-1.071-0.893-1.226l-19.025-6.531
			c-1.487-0.511-2.727-2.244-2.727-3.878v-6.073c0-4.798,3.767-7.706,8.423-7.706h17.641v3.725c0,0.357-0.249,0.664-0.646,0.664
			h-16.995c-2.081,0-3.815,1.377-3.815,3.521v4.948c0,0.563,0.396,1.124,0.892,1.277l19.026,6.48
			c1.487,0.512,2.578,2.298,2.578,3.932v5.46c0,4.797-3.518,8.318-8.126,8.318h-18.978v-3.726c0-0.407,0.297-0.663,0.645-0.663
			h18.333V207.765z"/>
	</g>
</g>
<g>
	<path fill="#2E3192" d="M-70.855,164.912c0,12.92-10.475,23.394-23.395,23.394c-12.921,0-12.921-46.789,0-46.789
		C-81.33,141.517-70.855,151.99-70.855,164.912z"/>
	<g>
		<polygon fill="#2E3192" points="-93.469,141.501 -141.5,141.5 -141.5,212.25 -111.799,212.25 -111.799,174.449 -105.012,176.791 
					"/>
		<g>
			<polygon fill="#2E3192" points="-70.819,212.25 -93.033,146.108 -124.893,145.86 -103.11,208.735 -101.705,212.25 			"/>
			<polygon fill="#2E3192" points="-70.819,212.25 -93.033,146.108 -124.893,145.86 -103.11,208.735 -101.705,212.25 			"/>
		</g>
	</g>
	<g>
		<g>
			<g>
				<g>
					<defs>
						<polygon id="SVGID_1_" points="-70.173,207.799 -73.19,207.799 -102.34,207.799 -109.481,207.799 -139.452,207.799 
							-139.452,150.315 -70.173,150.563 						"/>
					</defs>
					<clipPath id="SVGID_2_">
						<use xlink:href="#SVGID_1_"  overflow="visible"/>
					</clipPath>
				</g>
			</g>
		</g>
	</g>
	<g>
		<path fill="#FFFFFF" d="M-137.027,183.688v-37.716h22.221v7.925h-14.004v6.958h12.161v7.925h-12.161v6.984h14.004v7.924H-137.027
			L-137.027,183.688z"/>
	</g>
	<g>
		<polygon fill="#FFFFFF" points="-80.412,183.688 -88.638,183.688 -101.357,145.973 -93.132,145.973 		"/>
		<rect x="-103.871" y="166.996" fill="#FFFFFF" width="12.161" height="7.726"/>
		<polygon fill="#FFFFFF" points="-114.806,183.688 -106.579,183.688 -93.86,145.973 -102.087,145.973 		"/>
	</g>
</g>
</svg>
