<?xml version="1.0" encoding="utf-8"?>
<!-- Generator: Adobe Illustrator 16.0.0, SVG Export Plug-In . SVG Version: 6.00 Build 0)  -->
<!DOCTYPE svg PUBLIC "-//W3C//DTD SVG 1.1//EN" "http://www.w3.org/Graphics/SVG/1.1/DTD/svg11.dtd">
<svg version="1.1" id="Layer_1" xmlns="http://www.w3.org/2000/svg" xmlns:xlink="http://www.w3.org/1999/xlink" x="0px" y="0px"
	 width="270.191px" height="70.75px" viewBox="-141.5 141.5 270.191 70.75" enable-background="new -141.5 141.5 270.191 70.75"
	 xml:space="preserve">
<g>
	<g enable-background="new    ">
		<path fill="#D8D9DA" d="M-51.751,147.695v7.275c0.372-0.461,1.041-0.769,1.821-0.769H-37.7v2.795c0,0.269-0.222,0.498-0.482,0.498
			H-51.75v6.548c0,1.607,1.264,2.91,2.825,2.91h12.043c0.26,0,0.482,0.229,0.482,0.498v2.795h-12.525
			c-3.495,0-6.319-2.909-6.319-6.51v-15.735c0-3.601,2.824-6.509,6.319-6.509h12.525v2.794c0,0.269-0.223,0.498-0.482,0.498h-12.043
			C-50.488,144.785-51.751,146.088-51.751,147.695z"/>
		<path fill="#D8D9DA" d="M-14.844,141.952c0.111-0.229,0.371-0.459,0.632-0.459h3.232l-9.664,28.256
			c-0.073,0.269-0.372,0.498-0.632,0.498h-2.937c-0.261,0-0.559-0.229-0.632-0.498l-9.665-28.256h3.233
			c0.26,0,0.559,0.229,0.632,0.459l7.917,23.433L-14.844,141.952z"/>
		<path fill="#D8D9DA" d="M-4.849,147.695v7.275c0.372-0.461,1.041-0.769,1.823-0.769H9.202v2.795c0,0.269-0.224,0.498-0.483,0.498
			H-4.849v6.548c0,1.607,1.264,2.91,2.825,2.91h12.043c0.26,0,0.483,0.229,0.483,0.498v2.795H-2.025
			c-3.493,0-6.318-2.909-6.318-6.51v-15.735c0-3.601,2.825-6.509,6.318-6.509h12.527v2.794c0,0.269-0.224,0.498-0.483,0.498H-2.025
			C-3.586,144.785-4.849,146.088-4.849,147.695z"/>
		<path fill="#D8D9DA" d="M17.413,156.463v13.286c0,0.269-0.224,0.498-0.483,0.498h-3.011v-26.533c0-1.226,0.967-2.221,2.157-2.221
			h11.671c3.494,0,6.318,2.258,6.318,6.163v3.714c0,3.368-2.342,5.208-5.055,5.935l5.947,12.942h-3.234
			c-0.26,0-0.558-0.229-0.669-0.46l-5.65-12.291h-4.758h-1.078c-1.041,0-1.82-0.307-2.082-1.033H17.413L17.413,156.463z
			 M27.746,154.203c1.563,0,2.824-1.301,2.824-2.909v-3.599c0-1.607-1.262-2.91-2.824-2.91h-9.627c-0.408,0-0.706,0.346-0.706,0.729
			v7.963c0,0.422,0.334,0.729,0.706,0.729h9.627V154.203L27.746,154.203z"/>
		<path fill="#D8D9DA" d="M56.624,141.493v2.794c0,0.268-0.224,0.498-0.483,0.498h-7.956v24.964c0,0.269-0.185,0.498-0.481,0.498
			h-3.012v-25.462h-8.326v-2.795c0-0.27,0.222-0.497,0.481-0.497H56.624L56.624,141.493z"/>
		<path fill="#D8D9DA" d="M98.436,170.247h-3.048c-0.334,0-0.595-0.229-0.669-0.498l-2.49-7.39H78.027l-2.489,7.39
			c-0.074,0.269-0.372,0.498-0.669,0.498h-3.048l9.069-26.608c0.446-1.265,1.6-2.146,2.938-2.146h4.423
			c0.186,0,0.371,0.114,0.446,0.269L98.436,170.247z M91.113,159.066l-4.831-14.281h-1.823c-0.297,0-0.558,0.189-0.668,0.498
			l-4.647,13.783H91.113z"/>
		<path fill="#D8D9DA" d="M101.329,169.711v-3.064h2.937c0.297,0,0.521,0.271,0.521,0.574v3.026h-2.938
			C101.552,170.247,101.329,169.979,101.329,169.711z"/>
	</g>
	<g enable-background="new    ">
		<path fill="#D8D9DA" d="M-49.845,193.779v17.711c0,0.357-0.297,0.662-0.644,0.662h-4.014v-35.365c0-1.633,1.288-2.96,2.874-2.96
			h15.559c4.657,0,8.423,3.01,8.423,8.217v4.949c0,4.489-3.122,6.942-6.737,7.911l7.927,17.248h-4.311
			c-0.348,0-0.744-0.305-0.892-0.611l-7.531-16.382h-6.342h-1.438c-1.388,0-2.428-0.408-2.774-1.378h-0.102L-49.845,193.779
			L-49.845,193.779z M-36.071,190.771c2.081,0,3.766-1.735,3.766-3.879v-4.797c0-2.146-1.685-3.879-3.766-3.879h-12.833
			c-0.545,0-0.941,0.458-0.941,0.969v10.615c0,0.563,0.446,0.971,0.941,0.971H-36.071z"/>
		<path fill="#D8D9DA" d="M-14.118,212.357c-4.658,0-8.424-3.879-8.424-8.676v-21.385c0-4.797,3.766-8.675,8.424-8.675H-2.92
			c4.607,0,8.422,3.878,8.422,8.675v21.385c0,4.797-3.815,8.676-8.422,8.676H-14.118z M-17.884,181.891v22.2
			c0,2.144,1.685,3.878,3.766,3.878H-2.92c2.081,0,3.766-1.734,3.766-3.878v-22.2c0-2.144-1.685-3.879-3.766-3.879h-11.198
			C-16.199,178.012-17.884,179.747-17.884,181.891z"/>
		<path fill="#D8D9DA" d="M11.601,209.193v-32.508c0-1.584,1.238-2.858,2.774-2.858h0.793h15.063c4.658,0,8.424,3.878,8.424,8.674
			v3.88c0,2.449-1.883,5.717-4.559,6.277c2.675,0.716,4.559,3.828,4.559,6.277v4.492c0,4.795-3.766,8.725-8.424,8.725H14.475
			C12.889,212.154,11.601,210.829,11.601,209.193z M16.258,190.464h13.973c2.083,0,3.768-1.735,3.768-3.879v-4.489
			c0-2.146-1.686-3.879-3.768-3.879H17.199c-0.546,0-0.941,0.407-0.941,0.969V190.464L16.258,190.464z M33.996,198.732
			c0-2.145-1.685-3.879-3.768-3.879H16.258v11.941c0,0.512,0.396,0.969,0.941,0.969h13.03c2.083,0,3.768-1.785,3.768-3.929v-5.104
			h-0.001V198.732z"/>
		<path fill="#D8D9DA" d="M44.256,203.324v-28.836c0-0.356,0.297-0.661,0.645-0.661h4.013v29.957c0,2.192,1.733,3.979,3.815,3.979
			h15.458c0.349,0,0.646,0.307,0.646,0.664v3.725H52.729C48.072,212.154,44.256,208.175,44.256,203.324z"/>
		<path fill="#D8D9DA" d="M77.455,182.096v9.695c0.496-0.613,1.388-1.021,2.429-1.021h16.301v3.727c0,0.357-0.297,0.663-0.644,0.663
			H77.455v8.728c0,2.145,1.685,3.879,3.767,3.879h16.053c0.348,0,0.645,0.307,0.645,0.664v3.727H81.222
			c-4.657,0-8.424-3.879-8.424-8.678v-20.978c0-4.796,3.767-8.674,8.424-8.674h16.697v3.726c0,0.356-0.297,0.664-0.645,0.664H81.222
			C79.14,178.217,77.455,179.95,77.455,182.096z"/>
		<path fill="#D8D9DA" d="M120.566,207.766c2.082,0,3.667-1.734,3.667-3.879v-4.644c0-0.511-0.396-1.071-0.893-1.226l-19.025-6.531
			c-1.486-0.512-2.727-2.244-2.727-3.879v-6.072c0-4.799,3.767-7.706,8.423-7.706h17.641v3.726c0,0.356-0.249,0.664-0.646,0.664
			h-16.995c-2.081,0-3.815,1.377-3.815,3.52v4.949c0,0.563,0.396,1.123,0.893,1.276l19.026,6.479
			c1.486,0.513,2.577,2.299,2.577,3.933v5.46c0,4.797-3.518,8.318-8.126,8.318h-18.978v-3.727c0-0.406,0.297-0.662,0.645-0.662
			H120.566L120.566,207.766L120.566,207.766z"/>
	</g>
</g>
<g>
	<path fill="#2E3192" d="M-70.856,164.912c0,12.92-10.475,23.395-23.395,23.395c-12.921,0-12.921-46.789,0-46.789
		C-81.331,141.518-70.856,151.99-70.856,164.912z"/>
	<g>
		<polygon fill="#2E3192" points="-93.47,141.501 -141.501,141.5 -141.501,212.25 -111.8,212.25 -111.8,174.449 -105.013,176.791 		
			"/>
		<g>
			<polygon fill="#2E3192" points="-70.82,212.25 -93.034,146.107 -124.894,145.859 -103.111,208.734 -101.706,212.25 			"/>
			<polygon fill="#2E3192" points="-70.82,212.25 -93.034,146.107 -124.894,145.859 -103.111,208.734 -101.706,212.25 			"/>
		</g>
	</g>
	<g>
		<path fill="#FFFFFF" d="M-137.028,183.688v-37.715h22.221v7.924h-14.004v6.959h12.161v7.924h-12.161v6.984h14.004v7.924H-137.028
			L-137.028,183.688z"/>
	</g>
	<g>
		<polygon fill="#FFFFFF" points="-80.413,183.688 -88.639,183.688 -101.358,145.973 -93.133,145.973 		"/>
		<rect x="-103.872" y="166.996" fill="#FFFFFF" width="12.161" height="7.727"/>
		<polygon fill="#FFFFFF" points="-114.807,183.688 -106.58,183.688 -93.861,145.973 -102.088,145.973 		"/>
	</g>
</g>
</svg>
