<?xml version="1.0" encoding="utf-8"?>
<!-- Generator: Adobe Illustrator 16.0.0, SVG Export Plug-In . SVG Version: 6.00 Build 0)  -->
<!DOCTYPE svg PUBLIC "-//W3C//DTD SVG 1.1//EN" "http://www.w3.org/Graphics/SVG/1.1/DTD/svg11.dtd">
<svg version="1.1" id="Layer_1" xmlns="http://www.w3.org/2000/svg" xmlns:xlink="http://www.w3.org/1999/xlink" x="0px" y="0px"
	 width="311.811px" height="469.508px" viewBox="0 0 311.811 469.508" enable-background="new 0 0 311.811 469.508"
	 xml:space="preserve">
<rect width="311.811" height="469.508"/>
<g>
	<path fill-rule="evenodd" clip-rule="evenodd" d="M65.525,188.81c-0.078-3.887-0.71-7.606-2.44-11.19
		c-5.249-10.881-16.868-16.498-28.363-14.319c-7.706,1.46-13.585,5.722-17.301,12.522c-5.007,9.158-3.951,18.276,1.316,27.018
		c1.818,3.017,3.908,5.872,5.915,8.772c3.557,5.142,7.144,10.263,10.72,15.39c0.785,1.125,1.848,1.885,3.188,2.17
		c2.402,0.512,4.165-0.521,5.569-2.39c2.264-3.014,4.618-5.963,6.801-9.033c3.522-4.952,6.999-9.937,10.374-14.987
		C64.11,198.565,65.621,193.913,65.525,188.81z"/>
	<path fill-rule="evenodd" clip-rule="evenodd" fill="#FFFFFF" d="M65.525,188.81c0.095,5.104-1.415,9.756-4.222,13.953
		c-3.375,5.05-6.852,10.035-10.374,14.987c-2.184,3.07-4.537,6.019-6.801,9.033c-1.404,1.87-3.167,2.902-5.569,2.39
		c-1.34-0.286-2.403-1.046-3.188-2.17c-3.577-5.127-7.164-10.248-10.72-15.39c-2.007-2.9-4.097-5.756-5.915-8.772
		c-5.267-8.742-6.323-17.86-1.316-27.018c3.716-6.8,9.595-11.062,17.301-12.522c11.496-2.178,23.114,3.438,28.363,14.319
		C64.815,181.203,65.447,184.923,65.525,188.81z M14.977,187.615c0.111,1.008,0.219,2.016,0.333,3.024
		c0.492,4.31,1.75,8.358,4.152,12.005c1.777,2.7,3.533,5.416,5.365,8.077c3.668,5.323,7.337,10.645,11.092,15.906
		c1.848,2.586,4.86,2.665,6.942,0.237c1.634-1.906,3.217-3.871,4.669-5.918c4.277-6.03,8.516-12.087,12.693-18.186
		c2.63-3.84,4.061-8.144,4.143-12.804c0.141-7.892-2.76-14.525-8.802-19.614c-5.671-4.778-12.288-6.636-19.657-5.585
		c-8.233,1.174-14.049,5.923-18.26,12.779C15.793,180.56,15.166,184.052,14.977,187.615z"/>
	<path fill-rule="evenodd" clip-rule="evenodd" d="M14.977,187.615c0.189-3.563,0.816-7.056,2.672-10.079
		c4.211-6.856,10.027-11.605,18.26-12.779c7.369-1.051,13.986,0.807,19.657,5.585c6.042,5.089,8.943,11.723,8.802,19.614
		c-0.083,4.66-1.513,8.964-4.143,12.804c-4.177,6.099-8.417,12.156-12.693,18.186c-1.452,2.047-3.035,4.012-4.669,5.918
		c-2.082,2.428-5.095,2.35-6.942-0.237c-3.755-5.261-7.424-10.583-11.092-15.906c-1.833-2.661-3.588-5.376-5.365-8.077
		c-2.402-3.647-3.66-7.696-4.152-12.005C15.195,189.631,15.088,188.624,14.977,187.615z M35.799,207.469
		c1.085,0.073,1.49-0.142,1.391-0.863c-0.241-1.737-0.385-3.513-0.873-5.185c-2.197-7.531-9.837-13.405-17.602-13.684
		c-0.781-0.029-1.074,0.333-1,1.004c0.156,1.427,0.258,2.875,0.59,4.265C20.045,200.278,26.94,206.854,35.799,207.469z
		 M60.444,188.792c-0.002-0.02-0.004-0.039-0.006-0.059c-1.039,0.119-2.093,0.163-3.113,0.369
		c-4.075,0.824-7.508,2.756-10.325,5.863c-3.024,3.337-4.546,7.24-4.868,11.677c-0.048,0.667,0.242,0.998,0.871,0.925
		c1.771-0.204,3.569-0.317,5.297-0.721c2.167-0.506,4.024-1.665,5.856-2.974c2.538-1.814,4.449-4.019,5.713-6.836
		c1.055-2.349,2.087-4.692,2.055-7.355c-0.008-0.676-0.2-0.953-0.852-0.922C60.863,188.77,60.654,188.781,60.444,188.792z
		 M44.237,221.134c-1.239-0.417-2.331-0.928-3.477-1.127c-0.958-0.167-1.989-0.038-2.971,0.088c-0.811,0.103-1.6,0.387-2.395,0.607
		c-0.182,0.051-0.449,0.131-0.494,0.26c-0.05,0.146,0.061,0.486,0.178,0.531c0.587,0.214,1.196,0.479,1.805,0.5
		c1.481,0.053,2.968-0.04,4.453-0.029c0.561,0.003,1.121,0.191,1.681,0.19C43.718,222.153,44.176,221.792,44.237,221.134z
		 M42.703,213.618c0.01-0.566-0.336-0.886-0.765-0.57c-0.721,0.53-1.388,1.18-1.926,1.893c-0.313,0.415,0.174,0.932,0.731,0.868
		C41.623,215.707,42.688,214.518,42.703,213.618z M39.588,214.87c-0.438-0.533-0.841-1.103-1.335-1.578
		c-0.17-0.165-0.776-0.204-0.826-0.111c-0.213,0.402-0.537,1.042-0.37,1.286c0.348,0.505,0.942,0.896,1.511,1.176
		C39.05,215.88,39.447,215.645,39.588,214.87z"/>
	<path fill-rule="evenodd" clip-rule="evenodd" fill="#FFFFFF" d="M35.799,207.469c-8.858-0.614-15.753-7.191-17.494-14.462
		c-0.332-1.389-0.434-2.837-0.59-4.265c-0.074-0.672,0.219-1.034,1-1.004c7.764,0.279,15.404,6.153,17.602,13.684
		c0.488,1.671,0.632,3.448,0.873,5.185C37.289,207.327,36.884,207.542,35.799,207.469z"/>
	<path fill-rule="evenodd" clip-rule="evenodd" fill="#FFFFFF" d="M60.444,188.792c0.21-0.011,0.418-0.023,0.628-0.034
		c0.652-0.031,0.844,0.246,0.852,0.922c0.032,2.664-1,5.007-2.055,7.355c-1.264,2.818-3.175,5.022-5.713,6.836
		c-1.832,1.31-3.689,2.468-5.856,2.974c-1.728,0.404-3.525,0.517-5.297,0.721c-0.629,0.072-0.919-0.258-0.871-0.925
		c0.322-4.437,1.844-8.339,4.868-11.677c2.817-3.107,6.25-5.039,10.325-5.863c1.021-0.206,2.075-0.25,3.113-0.369
		C60.44,188.753,60.442,188.773,60.444,188.792z"/>
	<path fill-rule="evenodd" clip-rule="evenodd" fill="#FFFFFF" d="M44.237,221.134c-0.061,0.658-0.519,1.019-1.22,1.021
		c-0.56,0-1.12-0.187-1.681-0.19c-1.485-0.011-2.971,0.082-4.453,0.029c-0.609-0.021-1.217-0.287-1.805-0.5
		c-0.118-0.044-0.228-0.384-0.178-0.531c0.045-0.129,0.312-0.209,0.494-0.26c0.795-0.22,1.584-0.504,2.395-0.607
		c0.981-0.126,2.013-0.255,2.971-0.088C41.906,220.206,42.998,220.717,44.237,221.134z"/>
	<path fill-rule="evenodd" clip-rule="evenodd" fill="#FFFFFF" d="M42.703,213.618c-0.015,0.899-1.08,2.089-1.959,2.19
		c-0.557,0.064-1.045-0.453-0.731-0.868c0.539-0.713,1.205-1.363,1.926-1.893C42.367,212.732,42.713,213.052,42.703,213.618z"/>
	<path fill-rule="evenodd" clip-rule="evenodd" fill="#FFFFFF" d="M39.588,214.87c-0.141,0.775-0.538,1.011-1.02,0.773
		c-0.569-0.281-1.163-0.671-1.511-1.176c-0.167-0.244,0.156-0.884,0.37-1.286c0.049-0.093,0.655-0.054,0.826,0.111
		C38.747,213.767,39.149,214.337,39.588,214.87z"/>
</g>
<g>
	<path fill-rule="evenodd" clip-rule="evenodd" fill="none" stroke="#FFFFFF" stroke-miterlimit="10" d="M310.291,461.374
		c-12.82-22.202-25.534-44.223-38.338-66.397c-12.812,22.195-25.533,44.231-38.328,66.397
		C259.241,461.374,284.644,461.374,310.291,461.374z"/>
	<path fill-rule="evenodd" clip-rule="evenodd" stroke="#FFFFFF" stroke-width="1.0303" stroke-miterlimit="10" d="M294.147,439.613
		c-0.271,0.236-0.466,0.389-0.645,0.562c-2.836,2.727-5.996,5.01-9.498,6.795c-5.321,2.714-10.912,3.832-16.847,2.613
		c-4.528-0.931-8.536-3.022-12.237-5.714c-1.773-1.29-3.439-2.726-5.225-4.151c-3.541,6.144-7.085,12.29-10.693,18.548
		c22.052,0,43.914,0,65.916,0C301.311,452.016,297.757,445.862,294.147,439.613z M253.652,432.884
		c12.228-9.213,24.368-9.289,36.577-0.049c-6.069-10.517-12.138-21.035-18.272-31.665
		C265.784,411.862,259.718,422.373,253.652,432.884z M280.577,438.129c0.017-4.945-3.83-8.854-8.82-8.752
		c-4.597,0.094-8.404,3.721-8.457,8.654c-0.053,4.762,3.941,8.629,8.812,8.639C276.688,446.68,280.562,442.772,280.577,438.129z
		 M252.709,437.958c2.131,2.569,9.294,7.133,11.697,7.461c-4.227-4.589-3.745-10.917,0.227-15.025
		C259.995,432.166,256.143,434.725,252.709,437.958z M279.406,430.717c4.614,1.782,8.454,4.318,11.886,7.508
		c-2.043,2.509-8.743,6.787-11.579,7.413C283.582,440.784,283.456,435.315,279.406,430.717z"/>
	<path fill-rule="evenodd" clip-rule="evenodd" fill="#FFFFFF" d="M280.577,438.129c-0.016,4.643-3.889,8.551-8.466,8.541
		c-4.871-0.01-8.864-3.877-8.812-8.639c0.053-4.934,3.86-8.56,8.457-8.654C276.747,429.275,280.594,433.185,280.577,438.129z
		 M277.43,438.095c0.032-3.113-2.367-5.506-5.577-5.564c-2.801-0.051-5.354,2.488-5.396,5.368c-0.046,3.105,2.465,5.603,5.65,5.62
		C274.961,443.534,277.399,441.049,277.43,438.095z"/>
	<path fill-rule="evenodd" clip-rule="evenodd" fill="#FFFFFF" d="M252.709,437.958c3.434-3.233,7.286-5.792,11.924-7.563
		c-3.972,4.108-4.454,10.436-0.227,15.025C262.003,445.091,254.84,440.527,252.709,437.958z"/>
	<path fill-rule="evenodd" clip-rule="evenodd" fill="#FFFFFF" d="M252.709,437.958c3.434-3.233,7.286-5.792,11.924-7.563
		c-3.972,4.108-4.454,10.436-0.227,15.025C262.003,445.091,254.84,440.527,252.709,437.958z"/>
	<path fill-rule="evenodd" clip-rule="evenodd" fill="#FFFFFF" d="M291.633,437.958c-3.434-3.233-7.286-5.792-11.924-7.563
		c3.972,4.108,4.454,10.436,0.227,15.025C282.339,445.091,289.502,440.527,291.633,437.958z"/>
	<path fill-rule="evenodd" clip-rule="evenodd" stroke="#FFFFFF" stroke-width="1.0303" stroke-miterlimit="10" d="M277.43,438.095
		c-0.031,2.954-2.468,5.439-5.323,5.424c-3.185-0.018-5.696-2.515-5.65-5.62c0.042-2.88,2.595-5.419,5.396-5.368
		C275.063,432.589,277.462,434.982,277.43,438.095z M274.999,435.18c-0.072-0.637-0.461-1.062-1.141-1.068
		c-0.683-0.006-1.106,0.403-1.146,1.104c-0.039,0.669,0.514,1.218,1.175,1.176C274.591,436.347,274.936,435.92,274.999,435.18z"/>
	<path fill-rule="evenodd" clip-rule="evenodd" fill="#FFFFFF" d="M274.999,435.18c-0.063,0.74-0.407,1.167-1.113,1.212
		c-0.661,0.042-1.214-0.507-1.175-1.176c0.041-0.701,0.464-1.11,1.146-1.104C274.538,434.118,274.926,434.543,274.999,435.18z"/>
</g>
<g>
	<path fill-rule="evenodd" clip-rule="evenodd" d="M282.113,145.725c-0.323-0.74-0.662-1.466-1.329-1.946
		c0.413,2.137,0.567,4.333,1.302,6.404c-0.577-0.691-0.841-1.677-1.743-2.066c-0.032,0.177-0.062,0.348-0.096,0.519
		c-0.231,1.232-0.473-7.463-0.69-6.229c-0.051,0.29-0.025,0.594-0.036,0.892c-0.002,0.072-0.008,0.145-0.071,0.26
		c-0.064-0.083-0.136-0.159-0.193-0.248c-0.395-0.616-0.783-1.236-1.179-1.85c-0.042-0.064-0.115-0.107-0.179-0.164
		c-0.192,0.287-0.351,0.579-0.561,0.82c-0.319,0.366-0.673,0.698-1.012,1.045c-0.176,0.179-0.357,0.354-0.528,0.54
		c-0.117,0.128-0.243,0.142-0.332,0.003c-0.173-0.275-0.326-0.566-0.479-0.856c-0.283-0.537-0.569-1.072-0.834-1.617
		c-0.129-0.265-0.208,9.369-0.317,9.094c-0.086-0.219-0.182-0.433-0.303-0.718c-0.274,0.278-0.472,0.528-0.712,0.71
		c-0.444,0.336-0.911-9.287-1.376-8.984c-0.211,0.138-0.332,0.015-0.403-0.209c-0.198-0.621-0.381,8.677-0.611,8.07
		c-0.132-0.35-0.343-0.664-0.537-1.029c-0.198,0.249-0.348,0.452-0.513,0.641c-0.094,0.107-0.202,0.208-0.319,0.282
		c-0.179,0.113-0.336,0.063-0.435-0.144c-0.067-0.142-0.128-0.288-0.189-0.433c-0.118-0.285-0.183-0.305-0.43-0.133
		c-0.102,0.071-0.199,0.154-0.309,0.208c-0.231,0.114-0.362,0.036-0.414-0.231c-0.002-0.009-0.001-0.02-0.003-0.028
		c-0.103-0.632-0.105-0.647-0.667-0.483c-0.402,0.119-0.645-0.122-0.813-0.43c-0.156-0.285-0.353-0.306-0.589-0.243
		c-0.284,0.075-0.56,0.189-0.841,0.273c-0.274,0.082-0.551,0.16-0.831,0.218c-0.474,0.099-0.741-0.129-0.786-0.655
		c-0.014-0.168-0.013-0.338-0.026-0.507c-0.005-0.064-0.031-0.125-0.057-0.223c-0.459,0.115-0.912,0.226-1.364,0.339
		c-0.529,0.131-1.061,0.202-1.6,0.089c-0.486-0.102-0.524-0.237-0.295-0.702c0.274-0.556,0.08-1.09-0.12-1.676
		c-0.569,0.503-1.138,0.917-1.911,0.749c0.154-0.403,0.305-0.759,0.427-1.128c0.228-0.68,0.115-1.359-0.055-2.025
		c-0.078-0.306-0.192-0.607-0.326-0.89c-0.185-0.389-0.346-0.441-0.657-0.172c-0.452,0.391-0.873,0.824-1.301,1.245
		c-0.402,0.395-0.82,0.757-1.371,0.865c-0.131,0.027-0.272,0.004-0.469,0.004c0.185-0.229,0.359-0.398,0.479-0.603
		c0.125-0.216,0.241-0.457,0.291-0.703c0.107-0.532,0.172-1.074,0.26-1.654c-0.285,0.185-0.563,0.355-0.83,0.544
		c-0.519,0.368-1.055,0.648-1.688,0.736c-0.315,0.043-0.618,0.269-0.904,0.45c-0.389,0.246-0.753,0.534-1.135,0.788
		c-0.101,0.067-0.234,0.081-0.351,0.118c-0.014-0.023-0.027-0.045-0.041-0.07c0.062-0.096,0.122-0.193,0.183-0.29
		c0.231-0.362,0.406-0.743,0.342-1.205c-0.048-0.352-0.101-0.386-0.398-0.214c-0.229,0.131-0.444,0.291-0.674,0.419
		c-0.419,0.235-0.873,0.208-1.323,0.171c-0.072-0.005-0.139-0.083-0.208-0.13c0.054-0.065,0.097-0.153,0.165-0.192
		c0.217-0.133,0.441-0.261,0.671-0.366c0.399-0.184,0.454-0.563,0.542-1.033c-0.229,0.161-0.406,0.255-0.552,0.392
		c-0.355,0.327-0.783,0.464-1.209,0.625c-0.595,0.223-1.182,0.473-1.768,0.721c-0.477,0.202-0.95,0.409-1.522,0.343
		c0.131-0.284,0.371-0.384,0.574-0.513c0.505-0.319,0.987-0.662,1.307-1.21c0.108-0.187,0.191-0.393,0.319-0.664
		c-0.539,0.314-1.004,0.586-1.47,0.856c-0.466,0.273-0.928,0.559-1.552,0.46c0.479-0.546,1.162-0.88,1.268-1.74
		c-0.149,0.041-0.295,0.075-0.438,0.12c-0.746,0.232-1.455,0.623-2.255,0.623c-0.306,0-0.61,0.07-0.895-0.164
		c-0.089-0.073-0.295,0.004-0.441,0.039c-0.095,0.021-0.182,0.091-0.291,0.106c0.233-0.281,0.511-0.533,0.69-0.849
		c0.454-0.794,1.056-1.479,1.387-2.371c0.287-0.77,0.71-1.479,1.028-2.238c0.4-0.957,0.745-1.942,1.128-2.907
		c0.265-0.664,0.572-11.234,0.825-11.903c0.136-0.36,0.191-0.757,0.293-1.133c0.149-0.548,0.307-1.093,0.49-1.742
		c-0.15,0.127-0.283,0.192-0.346,0.303c-0.208,0.355-0.377,0.737-0.585,1.092c-0.19,0.321-0.413,0.618-0.65,0.905
		c0.152-0.362,0.322-0.718,0.454-1.088c0.184-0.516,0.322-1.051,0.51-1.565c0.306-0.841,0.704-1.63,1.201-2.359
		c0.699-1.021,1.402-2.038,2.09-3.069c0.148-0.221,0.221-0.504,0.365-0.729c0.469-0.733,0.957-1.452,1.435-2.177
		c0.038-0.057,0.063-0.122,0.118-0.23c-0.517,0.223-0.993,0.426-1.469,0.631c-0.02-0.033-0.04-0.066-0.058-0.1
		c0.208-0.21,0.4-0.45,0.629-0.627c0.971-0.75,1.606-1.8,2.23-2.865c0.185-0.316,0.369-0.644,0.608-0.908
		c0.188-0.207,0.48-0.293,0.693-0.481c0.595-0.525,1.188-1.059,1.751-1.625c0.333-0.335,0.601-0.747,0.914-1.108
		c0.133-0.154,0.309-0.263,0.45-0.429c-0.389,0.133-0.777,0.267-1.167,0.401c-0.007-0.014-0.017-0.028-0.026-0.042
		c0.172-0.14,0.349-0.269,0.511-0.418c0.503-0.459,1.019-0.903,1.493-1.394c0.571-0.593,1.222-1.042,1.924-1.413
		c0.839-0.441,1.683-0.878,2.534-1.293c1.568-0.764,3.19-1.351,4.892-1.64c0.504-0.085,1.021-0.071,1.531-0.124
		c2.186-0.224,4.377-0.323,6.571-0.363c0.917-0.016,1.781,0.161,2.641,0.508c1.677,0.676,3.367,1.314,5.06,1.942
		c0.481,0.179,0.987,0.287,1.488,0.388c0.737,0.149,1.396,0.479,2.023,0.908c0.118,0.08,0.243,0.146,0.383,0.229
		c0.052-0.294,0.199-0.251,0.368-0.129c0.2,0.146,0.402,0.292,0.642,0.463c0.064-0.214,0.12-0.402,0.176-0.59
		c0.022-0.007,0.044-0.014,0.067-0.021c0.197,0.477,0.395,0.955,0.588,1.426c1.565-0.056,3.109,0.137,4.657,0.265
		c0.54,0.044,0.91,0.37,1.123,0.912c0.024,0.063,0.101,0.143,0.154,0.144c1.198,0.018,2.243,0.574,3.298,1.096
		c1.128,0.558,2.215,1.199,3.21,2.003c0.848,0.684,1.487,1.562,1.923,2.615c0.568,1.379,0.832,2.843,1.033,4.325
		c0.146,1.079-0.059,2.114-0.303,3.148c-0.289,1.219-0.782,2.347-1.262,3.482c-0.198,0.467-0.441,0.915-0.695,1.349
		c-0.063,0.109-0.247,0.134-0.437,0.229c0-0.294-0.008-0.497,0.001-0.699c0.064-1.419,0.139-2.84,0.194-4.259
		c0.015-0.406-0.104-0.784-0.384-1.075c-0.052-0.055-0.167-0.114-0.218-0.087c-0.526,0.275-1.095,0.249-1.653,0.313
		c-1.137,0.131-2.272,0.285-3.41,0.421c-1.055,0.125-2.11,0.122-3.169,0.022c-0.889-0.083-1.781-0.212-2.669-0.181
		c-1.207,0.042-2.383,0.33-3.467,0.964c-0.303,0.177-0.635,0.297-0.955,0.442c-0.943,0.429-1.593,1.194-2.096,2.136
		c-0.384,0.722-0.911,1.318-1.425,1.93c-0.406,0.484-0.897,10.844-0.978,11.575c-0.046,0.417-0.115,0.843-0.25,1.235
		c-0.324,0.944-0.161,1.9-0.113,2.852c0.029,0.57,0.125,1.141,0.235,1.7c0.1,0.504,0.275,0.989,0.39,1.489
		c0.153,0.674,0.35,1.348,0.403,2.033c0.097,1.223,0.271,2.429,0.527,3.622c0.173,0.805,0.351,1.608,0.524,2.414
		c0.018,0.084,0.021,0.174,0.031,0.261C282.164,145.697,282.138,145.71,282.113,145.725z"/>
	<ellipse fill-rule="evenodd" clip-rule="evenodd" fill="#FFFFFF" cx="279.006" cy="103.064" rx="4.035" ry="4.385"/>
</g>
<g>
	<path fill-rule="evenodd" clip-rule="evenodd" d="M282.113,145.725c-0.323-0.74-0.662-1.466-1.329-1.946
		c0.413,2.137,0.567,4.333,1.302,6.404c-0.577-0.691-0.841-1.677-1.743-2.066c-0.032,0.177-0.062,0.348-0.096,0.519
		c-0.231,1.232-0.473-7.463-0.69-6.229c-0.051,0.29-0.025,0.594-0.036,0.892c-0.002,0.072-0.008,0.145-0.071,0.26
		c-0.064-0.083-0.136-0.159-0.193-0.248c-0.395-0.616-0.783-1.236-1.179-1.85c-0.042-0.064-0.115-0.107-0.179-0.164
		c-0.192,0.287-0.351,0.579-0.561,0.82c-0.319,0.366-0.673,0.698-1.012,1.045c-0.176,0.179-0.357,0.354-0.528,0.54
		c-0.117,0.128-0.243,0.142-0.332,0.003c-0.173-0.275-0.326-0.566-0.479-0.856c-0.283-0.537-0.569-1.072-0.834-1.617
		c-0.129-0.265-0.208,9.369-0.317,9.094c-0.086-0.219-0.182-0.433-0.303-0.718c-0.274,0.278-0.472,0.528-0.712,0.71
		c-0.444,0.336-0.911-9.287-1.376-8.984c-0.211,0.138-0.332,0.015-0.403-0.209c-0.198-0.621-0.381,8.677-0.611,8.07
		c-0.132-0.35-0.343-0.664-0.537-1.029c-0.198,0.249-0.348,0.452-0.513,0.641c-0.094,0.107-0.202,0.208-0.319,0.282
		c-0.179,0.113-0.336,0.063-0.435-0.144c-0.067-0.142-0.128-0.288-0.189-0.433c-0.118-0.285-0.183-0.305-0.43-0.133
		c-0.102,0.071-0.199,0.154-0.309,0.208c-0.231,0.114-0.362,0.036-0.414-0.231c-0.002-0.009-0.001-0.02-0.003-0.028
		c-0.103-0.632-0.105-0.647-0.667-0.483c-0.402,0.119-0.645-0.122-0.813-0.43c-0.156-0.285-0.353-0.306-0.589-0.243
		c-0.284,0.075-0.56,0.189-0.841,0.273c-0.274,0.082-0.551,0.16-0.831,0.218c-0.474,0.099-0.741-0.129-0.786-0.655
		c-0.014-0.168-0.013-0.338-0.026-0.507c-0.005-0.064-0.031-0.125-0.057-0.223c-0.459,0.115-0.912,0.226-1.364,0.339
		c-0.529,0.131-1.061,0.202-1.6,0.089c-0.486-0.102-0.524-0.237-0.295-0.702c0.274-0.556,0.08-1.09-0.12-1.676
		c-0.569,0.503-1.138,0.917-1.911,0.749c0.154-0.403,0.305-0.759,0.427-1.128c0.228-0.68,0.115-1.359-0.055-2.025
		c-0.078-0.306-0.192-0.607-0.326-0.89c-0.185-0.389-0.346-0.441-0.657-0.172c-0.452,0.391-0.873,0.824-1.301,1.245
		c-0.402,0.395-0.82,0.757-1.371,0.865c-0.131,0.027-0.272,0.004-0.469,0.004c0.185-0.229,0.359-0.398,0.479-0.603
		c0.125-0.216,0.241-0.457,0.291-0.703c0.107-0.532,0.172-1.074,0.26-1.654c-0.285,0.185-0.563,0.355-0.83,0.544
		c-0.519,0.368-1.055,0.648-1.688,0.736c-0.315,0.043-0.618,0.269-0.904,0.45c-0.389,0.246-0.753,0.534-1.135,0.788
		c-0.101,0.067-0.234,0.081-0.351,0.118c-0.014-0.023-0.027-0.045-0.041-0.07c0.062-0.096,0.122-0.193,0.183-0.29
		c0.231-0.362,0.406-0.743,0.342-1.205c-0.048-0.352-0.101-0.386-0.398-0.214c-0.229,0.131-0.444,0.291-0.674,0.419
		c-0.419,0.235-0.873,0.208-1.323,0.171c-0.072-0.005-0.139-0.083-0.208-0.13c0.054-0.065,0.097-0.153,0.165-0.192
		c0.217-0.133,0.441-0.261,0.671-0.366c0.399-0.184,0.454-0.563,0.542-1.033c-0.229,0.161-0.406,0.255-0.552,0.392
		c-0.355,0.327-0.783,0.464-1.209,0.625c-0.595,0.223-1.182,0.473-1.768,0.721c-0.477,0.202-0.95,0.409-1.522,0.343
		c0.131-0.284,0.371-0.384,0.574-0.513c0.505-0.319,0.987-0.662,1.307-1.21c0.108-0.187,0.191-0.393,0.319-0.664
		c-0.539,0.314-1.004,0.586-1.47,0.856c-0.466,0.273-0.928,0.559-1.552,0.46c0.479-0.546,1.162-0.88,1.268-1.74
		c-0.149,0.041-0.295,0.075-0.438,0.12c-0.746,0.232-1.455,0.623-2.255,0.623c-0.306,0-0.61,0.07-0.895-0.164
		c-0.089-0.073-0.295,0.004-0.441,0.039c-0.095,0.021-0.182,0.091-0.291,0.106c0.233-0.281,0.511-0.533,0.69-0.849
		c0.454-0.794,1.056-1.479,1.387-2.371c0.287-0.77,0.71-1.479,1.028-2.238c0.4-0.957,0.745-1.942,1.128-2.907
		c0.265-0.664,0.572-11.234,0.825-11.903c0.136-0.36,0.191-0.757,0.293-1.133c0.149-0.548,0.307-1.093,0.49-1.742
		c-0.15,0.127-0.283,0.192-0.346,0.303c-0.208,0.355-0.377,0.737-0.585,1.092c-0.19,0.321-0.413,0.618-0.65,0.905
		c0.152-0.362,0.322-0.718,0.454-1.088c0.184-0.516,0.322-1.051,0.51-1.565c0.306-0.841,0.704-1.63,1.201-2.359
		c0.699-1.021,1.402-2.038,2.09-3.069c0.148-0.221,0.221-0.504,0.365-0.729c0.469-0.733,0.957-1.452,1.435-2.177
		c0.038-0.057,0.063-0.122,0.118-0.23c-0.517,0.223-0.993,0.426-1.469,0.631c-0.02-0.033-0.04-0.066-0.058-0.1
		c0.208-0.21,0.4-0.45,0.629-0.627c0.971-0.75,1.606-1.8,2.23-2.865c0.185-0.316,0.369-0.644,0.608-0.908
		c0.188-0.207,0.48-0.293,0.693-0.481c0.595-0.525,1.188-1.059,1.751-1.625c0.333-0.335,0.601-0.747,0.914-1.108
		c0.133-0.154,0.309-0.263,0.45-0.429c-0.389,0.133-0.777,0.267-1.167,0.401c-0.007-0.014-0.017-0.028-0.026-0.042
		c0.172-0.14,0.349-0.269,0.511-0.418c0.503-0.459,1.019-0.903,1.493-1.394c0.571-0.593,1.222-1.042,1.924-1.413
		c0.839-0.441,1.683-0.878,2.534-1.293c1.568-0.764,3.19-1.351,4.892-1.64c0.504-0.085,1.021-0.071,1.531-0.124
		c2.186-0.224,4.377-0.323,6.571-0.363c0.917-0.016,1.781,0.161,2.641,0.508c1.677,0.676,3.367,1.314,5.06,1.942
		c0.481,0.179,0.987,0.287,1.488,0.388c0.737,0.149,1.396,0.479,2.023,0.908c0.118,0.08,0.243,0.146,0.383,0.229
		c0.052-0.294,0.199-0.251,0.368-0.129c0.2,0.146,0.402,0.292,0.642,0.463c0.064-0.214,0.12-0.402,0.176-0.59
		c0.022-0.007,0.044-0.014,0.067-0.021c0.197,0.477,0.395,0.955,0.588,1.426c1.565-0.056,3.109,0.137,4.657,0.265
		c0.54,0.044,0.91,0.37,1.123,0.912c0.024,0.063,0.101,0.143,0.154,0.144c1.198,0.018,2.243,0.574,3.298,1.096
		c1.128,0.558,2.215,1.199,3.21,2.003c0.848,0.684,1.487,1.562,1.923,2.615c0.568,1.379,0.832,2.843,1.033,4.325
		c0.146,1.079-0.059,2.114-0.303,3.148c-0.289,1.219-0.782,2.347-1.262,3.482c-0.198,0.467-0.441,0.915-0.695,1.349
		c-0.063,0.109-0.247,0.134-0.437,0.229c0-0.294-0.008-0.497,0.001-0.699c0.064-1.419,0.139-2.84,0.194-4.259
		c0.015-0.406-0.104-0.784-0.384-1.075c-0.052-0.055-0.167-0.114-0.218-0.087c-0.526,0.275-1.095,0.249-1.653,0.313
		c-1.137,0.131-2.272,0.285-3.41,0.421c-1.055,0.125-2.11,0.122-3.169,0.022c-0.889-0.083-1.781-0.212-2.669-0.181
		c-1.207,0.042-2.383,0.33-3.467,0.964c-0.303,0.177-0.635,0.297-0.955,0.442c-0.943,0.429-1.593,1.194-2.096,2.136
		c-0.384,0.722-0.911,1.318-1.425,1.93c-0.406,0.484-0.897,10.844-0.978,11.575c-0.046,0.417-0.115,0.843-0.25,1.235
		c-0.324,0.944-0.161,1.9-0.113,2.852c0.029,0.57,0.125,1.141,0.235,1.7c0.1,0.504,0.275,0.989,0.39,1.489
		c0.153,0.674,0.35,1.348,0.403,2.033c0.097,1.223,0.271,2.429,0.527,3.622c0.173,0.805,0.351,1.608,0.524,2.414
		c0.018,0.084,0.021,0.174,0.031,0.261C282.164,145.697,282.138,145.71,282.113,145.725z"/>
	<ellipse fill-rule="evenodd" clip-rule="evenodd" fill="#FFFFFF" cx="279.006" cy="103.064" rx="4.035" ry="4.385"/>
</g>
<g>
	<path fill-rule="evenodd" clip-rule="evenodd" stroke="#FFFFFF" stroke-width="0.9925" stroke-miterlimit="10" d="M39.875,11.225
		c1.5,3.936,3.01,7.639,4.34,11.453c2.533,7.245,4.323,14.792,4.298,22.866c-0.012,4.129-0.611,8.166-2.473,11.668
		c-3.33,6.265-9.346,6.249-12.625-0.079c-2.289-4.415-2.647-9.458-2.39-14.598C31.471,33.566,35.57,19.088,39.875,11.225z"/>
	<path fill-rule="evenodd" clip-rule="evenodd" stroke="#FFFFFF" stroke-width="0.9925" stroke-miterlimit="10" d="M35.945,65.009
		c-4.052,0.922-7.538-0.828-10.379-4.972c-3.38-4.928-4.745-11.039-5.554-17.4c-0.949-7.466-0.765-14.982-0.274-22.491
		c0.013-0.196,0.098-0.383,0.273-1.038c3.707,2.641,7.348,5.23,10.767,7.666c-0.788,4.702-1.737,8.913-2.152,13.212
		c-0.649,6.715-0.508,13.454,2.727,19.176C32.602,61.371,34.38,63.055,35.945,65.009z"/>
	<path fill-rule="evenodd" clip-rule="evenodd" stroke="#FFFFFF" stroke-width="0.9925" stroke-miterlimit="10" d="M42.958,64.97
		c7.544-5.53,8.716-14.289,7.934-23.905c-0.35-4.306-1.44-8.502-2.112-12.771c-0.086-0.541,0.187-1.531,0.521-1.788
		c3.294-2.534,6.637-4.956,10.463-7.775c0.1,5.536,0.314,10.422,0.244,15.301c-0.107,7.42-0.953,14.687-3.639,21.342
		c-1.897,4.702-4.515,8.437-8.63,9.537C46.326,65.288,44.807,64.97,42.958,64.97z"/>
	<path fill-rule="evenodd" clip-rule="evenodd" stroke="#FFFFFF" stroke-width="0.9925" stroke-miterlimit="10" d="M5.408,38.695
		c3.923,0,7.672,0,11.364,0c0.622,3.794,1.134,7.751,1.936,11.601c1.061,5.094,2.882,9.707,5.826,13.376
		c3.052,3.802,6.401,5.352,11.159,5.154c-2.592,2.138-5.072,3.023-7.818,2.438c-3.237-0.688-6.024-2.659-8.559-5.34
		C14.184,60.489,7.297,47.156,5.408,38.695z"/>
	<path fill-rule="evenodd" clip-rule="evenodd" stroke="#FFFFFF" stroke-width="0.9925" stroke-miterlimit="10" d="M74.297,38.651
		c-3.838,10.81-7.833,20.69-14.737,27.842c-2.345,2.429-4.964,4.09-7.925,4.749c-2.708,0.602-5.142-0.294-7.254-1.916
		c2.169-0.702,4.572-1.016,6.668-2.247c5.156-3.03,7.838-9.02,9.465-15.829c0.975-4.083,1.496-8.359,2.23-12.6
		C66.326,38.651,70.12,38.651,74.297,38.651z"/>
</g>
<g>
	<g>
		<path fill-rule="evenodd" clip-rule="evenodd" d="M193.721,75.062c-7.626,0-14.52-0.352-21.076-1.075
			c-2.183-0.241-4.337-0.734-6.156-1.185c-1.806-0.446-3.02-1.717-3.511-3.676c-0.016-0.063-0.046-0.121-0.074-0.181l-0.101-0.231
			v-2.473c0.32-2.842,2.38-3.969,4.354-4.703c3.225-1.201,6.834-1.8,11.341-1.882c-0.82-0.783-1.219-1.9-1.144-3.267l0.034-0.618
			c0.123-2.29,0.251-4.658,0.666-6.951c0.405-2.239,0.985-4.477,1.546-6.64c0.223-0.861,0.447-1.723,0.66-2.586
			c0.051-0.208,0.137-0.408,0.225-0.607c0.048-0.108,0.097-0.217,0.135-0.329c0.682-2.002,2.045-2.99,4.167-3.018
			c1.735-0.023,3.479-0.627,5.332-1.847c0.422-0.277,0.538-0.395,0.561-0.444c-0.009-0.024-0.074-0.166-0.357-0.549
			c-0.034-0.045-0.067-0.092-0.1-0.138c-0.201,0.238-0.412,0.476-0.652,0.69c-0.223,0.198-0.501,0.251-0.725,0.295
			c-0.067,0.013-0.134,0.025-0.197,0.043l-0.525,0.153l-0.102-0.538c-0.012-0.067-0.03-0.134-0.048-0.201
			c-0.052-0.202-0.112-0.431-0.086-0.686c0.041-0.405,0.156-0.785,0.267-1.151c0.396-1.292,0.206-2.519-0.198-3.971
			c-0.125-0.451-0.182-0.898-0.249-1.417c-0.031-0.242-0.064-0.501-0.107-0.781l-0.133-0.859l1.12,0.448l-0.006-0.065
			c-0.054-0.646-0.107-1.274-0.185-1.899c-0.327-2.644,0.734-4.735,3.07-6.049c0.155-0.087,0.304-0.226,0.388-0.36
			c0.179-0.288,0.343-0.583,0.507-0.879c0.196-0.353,0.391-0.706,0.609-1.043c0.24-0.371,0.275-0.67,0.129-1.104
			c-0.601-1.795-0.069-3.469,0.595-5.009c0.182-0.422,0.517-0.674,0.897-0.674c0.377,0,0.711,0.25,0.892,0.671
			c0.664,1.551,1.195,3.23,0.596,5.008c-0.147,0.437-0.113,0.736,0.126,1.105c0.229,0.353,0.435,0.72,0.641,1.088
			c0.157,0.281,0.314,0.562,0.482,0.835c0.078,0.128,0.203,0.252,0.319,0.317c2.412,1.357,3.463,3.429,3.127,6.161
			c-0.073,0.586-0.124,1.175-0.176,1.783l-0.009,0.103l0.951-0.387l-0.052,0.791c-0.014,0.208-0.015,0.404-0.017,0.591
			c-0.003,0.424-0.007,0.825-0.139,1.217c-0.633,1.886-0.665,3.611-0.097,5.273c0.105,0.308,0.032,0.618-0.027,0.867
			c-0.019,0.081-0.039,0.161-0.049,0.239l-0.079,0.606l-0.577-0.202c-0.077-0.027-0.159-0.048-0.241-0.069
			c-0.25-0.065-0.534-0.14-0.771-0.342c-0.215-0.184-0.391-0.397-0.555-0.611c-0.148,0.186-0.295,0.377-0.427,0.578
			c-0.047,0.07-0.05,0.102-0.05,0.103c0.023,0.057,0.22,0.194,0.325,0.267c1.495,1.047,2.929,1.663,4.418,1.906
			c0.699,0.114,1.433,0.203,2.241,0.272c1.19,0.102,2.069,0.692,2.474,1.661c0.14,0.335,0.285,0.67,0.429,1.006
			c0.571,1.323,1.162,2.69,1.474,4.119c0.755,3.472,1.318,7.039,1.863,10.488l0.061,0.388c0.17,1.078,0.121,2.179,0.073,3.245
			l-0.005,0.108c-0.057,1.243-0.427,2.185-1.126,2.856c0.061,0.003,0.122,0.005,0.183,0.008c0.986,0.042,2.005,0.084,3.007,0.174
			c3.455,0.308,6.055,0.87,8.431,1.822c0.331,0.133,0.653,0.288,0.973,0.442c1.856,0.897,2.895,2.276,3.089,4.098l0.002,2.526
			l-0.101,0.231c-0.028,0.061-0.059,0.12-0.075,0.183c-0.46,1.848-1.605,3.081-3.403,3.66c-0.813,0.262-1.604,0.467-2.349,0.609
			c-4.88,0.931-9.894,1.202-14.21,1.383C201.738,74.97,197.644,75.062,193.721,75.062z M203.584,49.063
			c-0.608,1.652-1.236,3.359-1.782,5.072c-0.13,0.409-0.095,0.925-0.048,1.418c0.042,0.451,0.32,0.743,0.706,0.743l0,0
			c0.188,0,0.385-0.071,0.57-0.204c0.134-0.097,0.263-0.202,0.393-0.306c0.241-0.194,0.49-0.396,0.777-0.562
			c0.254-0.147,0.354-0.286,0.278-0.722c-0.138-0.79-0.265-1.581-0.391-2.373L203.584,49.063z M185.579,49.083
			c-0.249,1.429-0.484,2.861-0.709,4.294c-0.25,1.579-0.25,1.579,1.027,2.524c0.116,0.086,0.469,0.347,0.715,0.37
			c0.042,0.004,0.125,0.006,0.125,0.006c0.216,0,0.375-0.057,0.488-0.173c0.163-0.17,0.245-0.491,0.229-0.906
			c-0.078-2.005-0.673-3.969-1.87-6.146C185.583,49.063,185.581,49.073,185.579,49.083z"/>
		<path fill="#FFFFFF" d="M194.591,8.099c0.165,0,0.329,0.122,0.436,0.371c0.637,1.488,1.131,3.024,0.582,4.654
			c-0.193,0.573-0.144,1.034,0.18,1.533c0.401,0.619,0.729,1.285,1.117,1.915c0.119,0.194,0.303,0.379,0.5,0.49
			c2.241,1.261,3.189,3.132,2.877,5.667c-0.109,0.879-0.169,1.764-0.259,2.713c0.305-0.124,0.535-0.219,0.971-0.396
			c-0.043,0.658,0.029,1.209-0.13,1.682c-0.626,1.864-0.74,3.709-0.096,5.592c0.086,0.253-0.06,0.585-0.099,0.881
			c-0.29-0.102-0.636-0.135-0.853-0.32c-0.33-0.282-0.569-0.669-0.87-1.04c-0.272,0.353-0.587,0.714-0.849,1.111
			c-0.357,0.541,0.089,0.828,0.439,1.073c1.389,0.973,2.901,1.69,4.589,1.965c0.755,0.123,1.517,0.212,2.279,0.277
			c0.943,0.081,1.7,0.499,2.059,1.358c0.691,1.656,1.498,3.304,1.876,5.039c0.78,3.585,1.346,7.221,1.919,10.848
			c0.168,1.063,0.111,2.17,0.063,3.253c-0.054,1.171-0.4,2.24-1.483,2.913c-0.103,0.063-0.186,0.163-0.269,0.254
			c-0.029,0.031-0.034,0.084-0.062,0.154c1.45,0.075,2.894,0.105,4.328,0.233c2.835,0.252,5.63,0.722,8.291,1.789
			c0.32,0.129,0.632,0.279,0.942,0.429c1.565,0.757,2.619,1.904,2.811,3.703c0,0.791,0,1.582,0,2.374
			c-0.054,0.129-0.126,0.257-0.161,0.392c-0.416,1.67-1.444,2.784-3.075,3.31c-0.75,0.242-1.516,0.447-2.29,0.594
			c-4.67,0.891-9.401,1.176-14.139,1.375c-4.166,0.175-8.333,0.281-12.495,0.281c-7.017,0-14.025-0.3-21.021-1.072
			c-2.05-0.227-4.086-0.677-6.091-1.173c-1.688-0.417-2.723-1.615-3.148-3.314c-0.034-0.136-0.106-0.262-0.161-0.392
			c0-0.792,0-1.583,0-2.374c0.276-2.426,2.014-3.488,4.031-4.238c3.68-1.37,7.521-1.8,11.419-1.855
			c0.109-0.001,0.218-0.001,0.332-0.001c0.195,0,0.404,0.001,0.653,0.001c-0.132-0.175-0.199-0.335-0.319-0.41
			c-1.242-0.771-1.638-2.001-1.565-3.321c0.138-2.51,0.246-5.043,0.692-7.508c0.561-3.096,1.444-6.135,2.2-9.196
			c0.076-0.309,0.244-0.592,0.348-0.895c0.603-1.77,1.779-2.657,3.704-2.682c2.05-0.027,3.897-0.808,5.598-1.928
			c0.961-0.632,0.987-0.811,0.33-1.702c-0.161-0.216-0.307-0.444-0.456-0.662c-0.347,0.395-0.652,0.805-1.025,1.137
			c-0.175,0.155-0.483,0.16-0.731,0.232c-0.047-0.249-0.152-0.504-0.128-0.747c0.037-0.364,0.148-0.725,0.255-1.079
			c0.439-1.436,0.188-2.826-0.202-4.226c-0.172-0.622-0.211-1.281-0.344-2.14c0.479,0.191,0.709,0.284,1.061,0.425
			c-0.088-0.965-0.149-1.879-0.263-2.787c-0.302-2.439,0.662-4.34,2.821-5.555c0.221-0.125,0.433-0.317,0.566-0.531
			c0.391-0.626,0.712-1.296,1.112-1.916c0.323-0.499,0.377-0.954,0.183-1.531c-0.544-1.628-0.061-3.167,0.58-4.655
			C194.256,8.226,194.424,8.099,194.591,8.099 M186.737,56.773c0.801,0,1.251-0.571,1.213-1.593
			c-0.095-2.446-0.947-4.665-2.153-6.763c-0.066-0.116-0.204-0.192-0.404-0.374c-0.121,0.373-0.25,0.656-0.303,0.953
			c-0.249,1.433-0.485,2.868-0.71,4.303c-0.295,1.868-0.295,1.877,1.223,3c0.285,0.211,0.629,0.434,0.963,0.465
			C186.625,56.771,186.682,56.773,186.737,56.773 M202.461,56.792c0.281,0,0.58-0.095,0.861-0.298
			c0.38-0.274,0.724-0.606,1.127-0.839c0.513-0.297,0.613-0.7,0.518-1.238c-0.208-1.19-0.39-2.384-0.585-3.577
			c-0.146-0.89-0.296-1.78-0.443-2.671c-0.093-0.021-0.185-0.044-0.277-0.065c-0.179,0.245-0.425,0.465-0.525,0.74
			c-0.628,1.705-1.256,3.412-1.807,5.142c-0.158,0.498-0.12,1.081-0.069,1.615C201.331,56.347,201.853,56.792,202.461,56.792
			 M194.591,7.106c-0.575,0-1.094,0.374-1.353,0.974c-0.703,1.631-1.263,3.41-0.61,5.363c0.106,0.313,0.072,0.45-0.074,0.676
			c-0.231,0.358-0.433,0.722-0.627,1.074c-0.16,0.288-0.319,0.577-0.493,0.855c-0.036,0.057-0.119,0.14-0.212,0.193
			c-2.524,1.419-3.672,3.681-3.318,6.541c0.047,0.377,0.085,0.756,0.12,1.144l-1.179-0.472l0.266,1.72
			c0.042,0.275,0.075,0.529,0.105,0.768c0.066,0.515,0.128,1.001,0.263,1.486c0.381,1.37,0.563,2.517,0.209,3.67
			c-0.12,0.396-0.248,0.817-0.294,1.27c-0.034,0.344,0.044,0.643,0.101,0.861c0.015,0.056,0.03,0.112,0.04,0.168l0.203,1.076
			l0.282-0.083c-1.104,0.491-2.175,0.739-3.238,0.752c-2.325,0.031-3.883,1.16-4.63,3.355c-0.033,0.097-0.077,0.192-0.119,0.288
			c-0.088,0.199-0.188,0.424-0.253,0.69c-0.212,0.86-0.436,1.72-0.658,2.579c-0.563,2.172-1.146,4.419-1.554,6.676
			c-0.42,2.324-0.549,4.708-0.673,7.013l-0.034,0.618c-0.06,1.092,0.155,2.044,0.63,2.825c-4.106,0.15-7.469,0.756-10.504,1.886
			c-1.991,0.741-4.322,1.985-4.671,5.056l-0.006,0.056v0.056v2.374v0.199l0.077,0.184c0.022,0.053,0.046,0.105,0.071,0.157
			c0.016,0.035,0.034,0.068,0.046,0.104c0.527,2.105,1.903,3.539,3.87,4.025c1.834,0.455,4.008,0.952,6.22,1.196
			c6.574,0.726,13.486,1.078,21.13,1.078c3.93,0,8.031-0.092,12.537-0.282c4.334-0.182,9.37-0.454,14.283-1.391
			c0.765-0.146,1.576-0.356,2.408-0.625c1.944-0.627,3.235-2.016,3.733-4.015c0.008-0.022,0.027-0.056,0.043-0.091
			c0.024-0.052,0.048-0.104,0.07-0.157l0.077-0.184v-0.199v-2.374v-0.053l-0.006-0.052c-0.214-2.004-1.346-3.515-3.366-4.492
			c-0.321-0.154-0.651-0.313-1.003-0.456c-2.392-0.959-5.116-1.549-8.574-1.857c-0.748-0.067-1.502-0.108-2.245-0.142
			c0.381-0.647,0.59-1.436,0.633-2.378l0.005-0.109c0.049-1.09,0.099-2.217-0.079-3.345l-0.062-0.388
			c-0.545-3.457-1.109-7.031-1.868-10.516c-0.322-1.476-0.923-2.866-1.503-4.21c-0.144-0.333-0.288-0.667-0.427-1
			c-0.48-1.149-1.506-1.846-2.89-1.964c-0.795-0.068-1.517-0.156-2.204-0.268c-0.602-0.098-1.195-0.261-1.787-0.492l0.155-1.19
			c0.008-0.061,0.025-0.125,0.04-0.188c0.065-0.278,0.165-0.698,0.014-1.142c-0.532-1.556-0.5-3.176,0.098-4.956
			c0.157-0.466,0.161-0.926,0.164-1.371c0.001-0.177,0.003-0.364,0.016-0.562l0.104-1.581l-0.933,0.379
			c0.033-0.359,0.068-0.71,0.111-1.059c0.363-2.951-0.772-5.189-3.375-6.654c-0.04-0.022-0.103-0.082-0.14-0.143
			c-0.166-0.27-0.32-0.545-0.473-0.82c-0.205-0.366-0.417-0.746-0.657-1.117c-0.155-0.239-0.17-0.385-0.072-0.676
			c0.652-1.937,0.092-3.722-0.61-5.362C195.677,7.47,195.173,7.106,194.591,7.106L194.591,7.106z M186.737,55.781
			c-0.026,0-0.052-0.001-0.079-0.004c-0.025-0.004-0.147-0.039-0.465-0.274c-0.429-0.317-0.914-0.676-0.963-0.797
			c-0.049-0.121,0.046-0.721,0.13-1.25c0.154-0.98,0.306-1.915,0.458-2.827c0.714,1.59,1.082,3.08,1.14,4.59
			c0.014,0.374-0.07,0.525-0.092,0.542C186.861,55.765,186.822,55.781,186.737,55.781L186.737,55.781z M202.461,55.799
			c-0.152,0-0.199-0.159-0.212-0.292c-0.041-0.423-0.075-0.901,0.027-1.221c0.35-1.1,0.735-2.198,1.127-3.282l0.194,1.205
			c0.127,0.794,0.254,1.588,0.393,2.38c0.017,0.093,0.018,0.147,0.017,0.175c-0.009,0.004-0.027,0.017-0.054,0.033
			c-0.32,0.185-0.596,0.408-0.84,0.604c-0.122,0.099-0.244,0.198-0.371,0.289C202.642,55.76,202.543,55.799,202.461,55.799
			L202.461,55.799z"/>
	</g>
</g>
<g>
	<g>
		<g>
			<path fill-rule="evenodd" clip-rule="evenodd" d="M116.351,307.167c-7.623,0-14.517-0.352-21.075-1.075
				c-2.177-0.241-4.333-0.734-6.156-1.185c-1.807-0.447-3.021-1.718-3.511-3.676c-0.016-0.063-0.046-0.122-0.074-0.182l-0.101-0.231
				v-2.472c0.32-2.844,2.38-3.97,4.354-4.704c3.226-1.201,6.834-1.8,11.342-1.882c-0.822-0.783-1.221-1.901-1.146-3.268l0.034-0.628
				c0.124-2.286,0.251-4.65,0.666-6.94c0.405-2.239,0.984-4.476,1.545-6.64c0.224-0.862,0.447-1.724,0.66-2.587
				c0.051-0.208,0.136-0.407,0.225-0.605c0.048-0.109,0.097-0.218,0.135-0.33c0.683-2.002,2.045-2.989,4.167-3.017
				c1.736-0.024,3.481-0.628,5.333-1.847c0.421-0.277,0.537-0.394,0.56-0.443c-0.009-0.024-0.074-0.166-0.357-0.549
				c-0.034-0.046-0.067-0.092-0.1-0.139c-0.202,0.238-0.413,0.476-0.652,0.69c-0.222,0.198-0.5,0.251-0.724,0.295
				c-0.067,0.013-0.135,0.025-0.197,0.044l-0.526,0.155l-0.102-0.539c-0.013-0.067-0.03-0.134-0.048-0.202
				c-0.052-0.203-0.111-0.432-0.087-0.687c0.04-0.402,0.154-0.777,0.265-1.139c0.398-1.303,0.208-2.531-0.195-3.984
				c-0.125-0.447-0.182-0.892-0.248-1.407c-0.031-0.245-0.065-0.505-0.109-0.789l-0.134-0.86l1.121,0.448l-0.008-0.091
				c-0.054-0.637-0.106-1.257-0.183-1.874c-0.327-2.643,0.735-4.735,3.07-6.049c0.156-0.087,0.304-0.226,0.388-0.36
				c0.18-0.289,0.345-0.585,0.509-0.882c0.195-0.352,0.39-0.703,0.607-1.04c0.239-0.372,0.274-0.67,0.128-1.104
				c-0.6-1.794-0.069-3.468,0.595-5.009c0.182-0.422,0.517-0.674,0.897-0.674c0.378,0,0.711,0.251,0.892,0.672
				c0.664,1.551,1.195,3.23,0.596,5.008c-0.147,0.437-0.113,0.736,0.126,1.104c0.229,0.354,0.437,0.723,0.643,1.092
				c0.157,0.28,0.313,0.56,0.48,0.833c0.08,0.129,0.201,0.25,0.318,0.315c2.413,1.358,3.464,3.431,3.128,6.162
				c-0.073,0.589-0.124,1.181-0.177,1.793l-0.008,0.092l0.951-0.389l-0.052,0.792c-0.014,0.208-0.015,0.404-0.016,0.59
				c-0.003,0.425-0.006,0.827-0.139,1.219c-0.633,1.885-0.665,3.609-0.097,5.272c0.105,0.308,0.032,0.617-0.026,0.865
				c-0.019,0.082-0.04,0.162-0.049,0.24l-0.076,0.608l-0.579-0.201c-0.077-0.027-0.158-0.047-0.24-0.069
				c-0.251-0.065-0.537-0.14-0.774-0.343c-0.214-0.183-0.39-0.396-0.554-0.61c-0.147,0.186-0.295,0.377-0.428,0.578
				c-0.038,0.057-0.048,0.093-0.049,0.102c0.023,0.057,0.22,0.194,0.325,0.268c1.495,1.047,2.928,1.663,4.418,1.907
				c0.7,0.113,1.434,0.202,2.242,0.271c1.189,0.101,2.068,0.691,2.474,1.661c0.14,0.336,0.286,0.673,0.431,1.009
				c0.571,1.321,1.161,2.688,1.472,4.116c0.756,3.475,1.32,7.044,1.865,10.497l0.06,0.378c0.171,1.081,0.121,2.188,0.072,3.259
				c-0.06,1.319-0.43,2.275-1.131,2.95c0.067,0.003,0.135,0.006,0.202,0.009c0.98,0.041,1.993,0.083,2.99,0.173
				c3.457,0.309,6.056,0.87,8.43,1.822c0.322,0.129,0.635,0.279,0.947,0.429c1.881,0.909,2.92,2.288,3.116,4.111l0.002,2.525
				l-0.102,0.232c-0.028,0.06-0.059,0.119-0.075,0.182c-0.461,1.848-1.606,3.08-3.403,3.66c-0.813,0.263-1.603,0.468-2.35,0.609
				c-4.88,0.932-9.894,1.203-14.21,1.383C124.371,307.075,120.276,307.167,116.351,307.167z M126.216,281.168
				c-0.609,1.654-1.238,3.365-1.782,5.072c-0.129,0.406-0.095,0.923-0.049,1.419c0.042,0.45,0.32,0.741,0.707,0.741l0,0
				c0.188,0,0.385-0.071,0.57-0.205c0.133-0.096,0.262-0.2,0.39-0.303c0.242-0.195,0.492-0.396,0.779-0.563
				c0.255-0.147,0.355-0.286,0.279-0.724c-0.143-0.813-0.273-1.628-0.403-2.444l-0.183-1.136L126.216,281.168z M108.212,281.187
				c-0.25,1.43-0.485,2.862-0.711,4.295c-0.249,1.579-0.249,1.579,1.028,2.524c0.128,0.095,0.469,0.347,0.715,0.37
				c0.042,0.004,0.125,0.006,0.125,0.006c0.216,0,0.376-0.057,0.488-0.173c0.163-0.169,0.244-0.491,0.228-0.904
				c-0.077-2.006-0.672-3.969-1.868-6.146C108.215,281.168,108.213,281.178,108.212,281.187z"/>
			<path fill="#FFFFFF" d="M117.222,240.204c0.165,0,0.329,0.123,0.436,0.372c0.636,1.487,1.131,3.024,0.582,4.654
				c-0.193,0.573-0.144,1.033,0.18,1.533c0.402,0.619,0.73,1.286,1.117,1.915c0.119,0.194,0.302,0.379,0.5,0.489
				c2.24,1.261,3.189,3.133,2.877,5.667c-0.108,0.878-0.17,1.764-0.26,2.714c0.305-0.125,0.536-0.219,0.971-0.397
				c-0.043,0.658,0.03,1.209-0.13,1.683c-0.626,1.864-0.739,3.708-0.096,5.591c0.086,0.253-0.061,0.587-0.098,0.882
				c-0.291-0.101-0.637-0.134-0.854-0.32c-0.329-0.281-0.569-0.669-0.869-1.04c-0.272,0.352-0.587,0.714-0.85,1.11
				c-0.356,0.542,0.089,0.828,0.439,1.073c1.39,0.974,2.9,1.69,4.588,1.966c0.754,0.122,1.518,0.21,2.279,0.276
				c0.943,0.08,1.7,0.5,2.059,1.358c0.69,1.655,1.499,3.304,1.876,5.039c0.78,3.585,1.347,7.22,1.92,10.848
				c0.168,1.063,0.111,2.17,0.063,3.254c-0.053,1.17-0.4,2.24-1.483,2.912c-0.103,0.063-0.185,0.163-0.268,0.254
				c-0.029,0.031-0.034,0.083-0.061,0.154c1.45,0.075,2.894,0.104,4.329,0.233c2.834,0.253,5.628,0.721,8.29,1.788
				c0.32,0.129,0.632,0.279,0.943,0.429c1.565,0.756,2.618,1.905,2.811,3.704c0,0.791,0,1.581,0,2.373
				c-0.055,0.13-0.127,0.257-0.161,0.392c-0.417,1.67-1.443,2.783-3.075,3.31c-0.749,0.242-1.516,0.447-2.29,0.594
				c-4.669,0.892-9.401,1.177-14.139,1.375c-4.167,0.176-8.333,0.282-12.496,0.282c-7.017,0-14.025-0.3-21.021-1.072
				c-2.05-0.227-4.084-0.677-6.091-1.173c-1.688-0.417-2.723-1.615-3.149-3.315c-0.034-0.136-0.106-0.262-0.16-0.392
				c0-0.792,0-1.582,0-2.373c0.276-2.426,2.014-3.489,4.031-4.238c3.68-1.37,7.521-1.801,11.419-1.855
				c0.107-0.001,0.215-0.002,0.327-0.002c0.196,0,0.407,0.001,0.659,0.001c-0.133-0.175-0.199-0.336-0.32-0.411
				c-1.242-0.771-1.639-2.001-1.566-3.321c0.138-2.509,0.247-5.042,0.693-7.507c0.56-3.097,1.443-6.135,2.199-9.196
				c0.076-0.308,0.244-0.591,0.348-0.895c0.603-1.769,1.779-2.655,3.704-2.681c2.05-0.028,3.897-0.809,5.599-1.929
				c0.961-0.632,0.986-0.811,0.33-1.702c-0.16-0.217-0.307-0.445-0.455-0.662c-0.347,0.394-0.653,0.805-1.026,1.137
				c-0.174,0.155-0.483,0.161-0.73,0.233c-0.047-0.25-0.152-0.505-0.128-0.749c0.036-0.364,0.148-0.724,0.256-1.077
				c0.439-1.436,0.187-2.827-0.203-4.227c-0.172-0.621-0.21-1.28-0.344-2.139c0.479,0.191,0.709,0.283,1.061,0.424
				c-0.089-0.964-0.15-1.878-0.262-2.786c-0.302-2.439,0.661-4.34,2.82-5.555c0.221-0.124,0.434-0.317,0.566-0.531
				c0.391-0.626,0.713-1.295,1.112-1.916c0.321-0.499,0.376-0.953,0.182-1.53c-0.545-1.628-0.061-3.167,0.58-4.655
				C116.888,240.331,117.055,240.204,117.222,240.204 M109.369,288.878c0.801,0,1.251-0.57,1.212-1.592
				c-0.094-2.445-0.946-4.665-2.153-6.764c-0.066-0.116-0.204-0.191-0.405-0.373c-0.12,0.371-0.25,0.655-0.301,0.953
				c-0.25,1.431-0.486,2.866-0.712,4.302c-0.294,1.868-0.294,1.877,1.223,3c0.285,0.21,0.629,0.434,0.964,0.465
				C109.256,288.875,109.313,288.878,109.369,288.878 M125.092,288.896c0.28,0,0.58-0.095,0.861-0.298
				c0.38-0.275,0.724-0.605,1.126-0.838c0.514-0.297,0.613-0.7,0.519-1.239c-0.208-1.189-0.391-2.384-0.585-3.575
				c-0.146-0.892-0.295-1.781-0.443-2.671c-0.093-0.022-0.185-0.045-0.277-0.066c-0.178,0.246-0.424,0.466-0.525,0.74
				c-0.627,1.705-1.255,3.411-1.806,5.141c-0.159,0.497-0.12,1.081-0.07,1.615C123.962,288.452,124.484,288.896,125.092,288.896
				 M117.222,239.212c-0.575,0-1.094,0.373-1.353,0.974c-0.703,1.632-1.264,3.412-0.61,5.363c0.105,0.313,0.071,0.45-0.076,0.678
				c-0.229,0.356-0.43,0.718-0.624,1.068c-0.161,0.289-0.32,0.579-0.496,0.859c-0.036,0.057-0.118,0.14-0.211,0.192
				c-2.525,1.421-3.673,3.683-3.319,6.542c0.046,0.378,0.084,0.757,0.119,1.145l-1.182-0.472l0.268,1.721
				c0.043,0.278,0.076,0.535,0.107,0.775c0.066,0.511,0.128,0.995,0.261,1.476c0.381,1.371,0.563,2.519,0.21,3.672
				c-0.123,0.403-0.25,0.819-0.294,1.269c-0.033,0.345,0.044,0.643,0.1,0.861c0.015,0.057,0.03,0.113,0.041,0.169l0.203,1.079
				l0.264-0.078c-1.098,0.485-2.163,0.731-3.221,0.746c-2.324,0.031-3.881,1.159-4.629,3.353c-0.034,0.098-0.077,0.194-0.12,0.29
				c-0.088,0.199-0.188,0.423-0.252,0.688c-0.212,0.861-0.436,1.721-0.659,2.581c-0.563,2.172-1.146,4.418-1.553,6.676
				c-0.42,2.32-0.549,4.7-0.673,7.001l-0.034,0.628c-0.06,1.093,0.155,2.046,0.63,2.826c-4.104,0.149-7.468,0.756-10.504,1.886
				c-1.991,0.74-4.321,1.983-4.671,5.056l-0.006,0.056v0.056v2.373v0.199l0.077,0.184c0.022,0.053,0.046,0.105,0.071,0.158
				c0.016,0.034,0.034,0.068,0.045,0.103c0.527,2.107,1.903,3.541,3.871,4.027c1.838,0.455,4.015,0.952,6.22,1.196
				c6.577,0.726,13.488,1.078,21.13,1.078c3.932,0,8.034-0.092,12.538-0.282c4.333-0.181,9.369-0.454,14.283-1.392
				c0.765-0.145,1.576-0.355,2.409-0.625c1.943-0.626,3.234-2.015,3.732-4.014c0.008-0.021,0.026-0.056,0.043-0.091
				c0.024-0.052,0.048-0.105,0.071-0.158l0.077-0.184v-0.2v-2.373v-0.053l-0.006-0.053c-0.215-2.005-1.348-3.517-3.366-4.492
				c-0.34-0.164-0.663-0.318-1.004-0.456c-2.422-0.971-5.065-1.543-8.572-1.856c-0.749-0.067-1.503-0.108-2.246-0.142
				c0.381-0.647,0.59-1.437,0.632-2.378l0.004-0.095c0.05-1.095,0.101-2.228-0.078-3.358l-0.06-0.379
				c-0.546-3.459-1.111-7.036-1.871-10.524c-0.321-1.475-0.921-2.864-1.501-4.207c-0.145-0.335-0.289-0.669-0.428-1.003
				c-0.48-1.149-1.507-1.847-2.891-1.964c-0.794-0.069-1.516-0.156-2.206-0.268c-0.599-0.098-1.19-0.26-1.778-0.49l0.15-1.197
				c0.007-0.061,0.024-0.124,0.04-0.188c0.065-0.277,0.164-0.696,0.013-1.139c-0.532-1.556-0.5-3.177,0.098-4.955
				c0.157-0.466,0.161-0.927,0.164-1.373c0.001-0.177,0.002-0.363,0.015-0.561l0.104-1.585l-0.931,0.381
				c0.033-0.355,0.068-0.707,0.111-1.056c0.363-2.951-0.772-5.189-3.375-6.654c-0.041-0.023-0.104-0.083-0.141-0.143
				c-0.165-0.268-0.317-0.542-0.47-0.816c-0.206-0.368-0.418-0.748-0.66-1.121c-0.154-0.238-0.17-0.383-0.071-0.676
				c0.651-1.936,0.092-3.721-0.61-5.361C118.309,239.575,117.805,239.212,117.222,239.212L117.222,239.212z M109.369,287.886
				c-0.025,0-0.052-0.001-0.079-0.004c-0.026-0.004-0.147-0.039-0.467-0.274c-0.427-0.316-0.912-0.676-0.961-0.797
				s0.045-0.722,0.129-1.251c0.156-0.991,0.308-1.926,0.459-2.826c0.714,1.589,1.081,3.08,1.139,4.59
				c0.014,0.373-0.07,0.524-0.091,0.542C109.492,287.87,109.453,287.886,109.369,287.886L109.369,287.886z M125.092,287.904
				c-0.153,0-0.2-0.159-0.212-0.292c-0.04-0.423-0.073-0.903,0.027-1.22c0.35-1.097,0.735-2.196,1.127-3.283l0.182,1.132
				c0.13,0.818,0.261,1.636,0.404,2.452c0.016,0.093,0.018,0.148,0.017,0.176c-0.009,0.004-0.027,0.017-0.054,0.032
				c-0.321,0.186-0.598,0.409-0.843,0.605c-0.122,0.098-0.243,0.197-0.37,0.288C125.273,287.865,125.174,287.904,125.092,287.904
				L125.092,287.904z"/>
		</g>
	</g>
</g>
<g>
	<g>
		<g>
			<g>
				<polygon points="81.992,133.562 81.992,103.704 102.192,103.704 102.192,109.366 88.183,109.366 88.183,115.685 
					100.333,115.685 100.333,121.58 88.183,121.58 88.183,127.899 102.192,127.899 102.192,133.562 				"/>
				<path fill="#FFFFFF" d="M101.696,104.2v4.67h-14.01v7.311h12.15v4.903h-12.15v7.311h14.01v4.67H82.488V104.2H101.696
					 M102.689,103.208h-0.993H82.488h-0.993v0.993v28.865v0.993h0.993h19.208h0.993v-0.993v-4.67v-0.993h-0.993H88.679v-5.326
					h11.157h0.993v-0.993v-4.903v-0.993h-0.993H88.679v-5.325h13.017h0.993v-0.993v-4.67V103.208L102.689,103.208z"/>
			</g>
		</g>
	</g>
	<g>
		<g>
			<rect x="109.432" y="115.685" width="12.623" height="5.896"/>
			<path fill="#FFFFFF" d="M121.558,116.181v4.903h-11.63v-4.903H121.558 M122.551,115.188h-0.993h-11.63h-0.993v0.993v4.903v0.993
				h0.993h11.63h0.993v-0.993v-4.903V115.188L122.551,115.188z"/>
		</g>
		<g>
			<rect x="128.391" y="117.608" width="12.622" height="5.896"/>
			<path fill="#FFFFFF" d="M140.517,118.104v4.903h-11.629v-4.903H140.517 M141.509,117.112h-0.993h-11.629h-0.993v0.993v4.903V124
				h0.993h11.629h0.993v-0.993v-4.903V117.112L141.509,117.112z"/>
		</g>
		<g>
			<rect x="128.386" y="128.036" width="5.965" height="5.663"/>
			<path fill="#FFFFFF" d="M133.854,128.532v4.67h-4.973v-4.67H133.854 M134.847,127.54h-0.993h-4.973h-0.993v0.993v4.67v0.993
				h0.993h4.973h0.993v-0.993v-4.67V127.54L134.847,127.54z"/>
		</g>
	</g>
	<g>
		<rect x="119.768" y="103.841" width="5.896" height="29.681"/>
		<path fill="#FFFFFF" d="M125.168,104.337v28.688h-4.904v-28.688H125.168 M126.161,103.345h-0.993h-4.904h-0.993v0.993v28.688
			v0.993h0.993h4.904h0.993v-0.993v-28.688V103.345L126.161,103.345z"/>
	</g>
	<g>
		<polygon points="104.564,133.522 104.564,108.759 109.432,103.892 109.432,103.704 125.694,103.704 125.694,109.366 
			110.461,109.366 110.461,133.522 		"/>
		<path fill="#FFFFFF" d="M125.198,104.2v4.67h-15.233v24.156h-4.904v-24.062l4.627-4.627h0.24V104.2H125.198 M126.19,103.208
			h-0.993h-15.27h-0.993v0.479l-4.576,4.576l-0.291,0.291v0.411v24.062v0.993h0.993h4.904h0.993v-0.993v-23.163h14.24h0.993v-0.993
			v-4.67V103.208L126.19,103.208z"/>
	</g>
	<g>
		<path d="M145.414,133.562l-6.9-10.201l-3.899-0.23v0.209l-6.191-0.328v-14.208l5.102-5.1h6.478c3.491,0,6.254,0.85,8.212,2.526
			c1.982,1.696,2.987,4.138,2.987,7.258c0,4.395-2.035,7.35-6.053,8.793l7.747,11.28H145.414z M139.865,117.629
			c1.658,0,2.963-0.292,3.878-0.868c0.841-0.529,1.268-1.588,1.268-3.147c0-1.583-0.425-2.648-1.264-3.165
			c-0.917-0.564-2.223-0.851-3.882-0.851h-5.25v8.031H139.865z"/>
		<path fill="#FFFFFF" d="M140.003,104.2c3.384,0,6.014,0.802,7.89,2.407c1.875,1.604,2.814,3.898,2.814,6.881
			c0,4.397-2.113,7.241-6.34,8.53l7.586,11.047h-6.275l-6.89-10.186l-4.669-0.275v0.212l-5.199-0.275V109.01l4.811-4.81H140.003
			 M134.119,118.125h5.747c1.762,0,3.142-0.314,4.143-0.944c1-0.629,1.5-1.818,1.5-3.567c0-1.776-0.5-2.972-1.5-3.587
			c-1.001-0.617-2.381-0.925-4.143-0.925h-5.747V118.125 M140.003,103.208h-6.272h-0.411l-0.291,0.291l-4.811,4.81l-0.291,0.291
			v0.411v13.531v0.941l0.94,0.05l5.199,0.275l1.045,0.055v-0.206l3.129,0.185l6.615,9.78l0.295,0.437h0.527h6.275h1.886
			l-1.067-1.555l-6.857-9.985c3.84-1.591,5.785-4.623,5.785-9.03c0-3.271-1.063-5.84-3.161-7.635
			C146.487,104.098,143.616,103.208,140.003,103.208L140.003,103.208z M135.111,110.094h4.754c1.566,0,2.785,0.261,3.622,0.777
			c0.682,0.42,1.028,1.342,1.028,2.742c0,1.396-0.339,2.289-1.036,2.728c-0.835,0.525-2.051,0.792-3.614,0.792h-4.754V110.094
			L135.111,110.094z"/>
	</g>
</g>
<g>
	<path fill-rule="evenodd" clip-rule="evenodd" stroke="#FFFFFF" stroke-width="0.9925" stroke-miterlimit="10" d="M271.98,243.331
		c1.499,3.935,3.01,7.638,4.341,11.453c2.532,7.244,4.322,14.792,4.298,22.864c-0.013,4.129-0.613,8.166-2.474,11.668
		c-3.329,6.266-9.346,6.249-12.625-0.078c-2.288-4.416-2.646-9.46-2.39-14.598C263.577,265.672,267.674,251.193,271.98,243.331z"/>
	<path fill-rule="evenodd" clip-rule="evenodd" stroke="#FFFFFF" stroke-width="0.9925" stroke-miterlimit="10" d="M268.051,297.115
		c-4.053,0.921-7.539-0.827-10.379-4.972c-3.38-4.928-4.745-11.038-5.553-17.4c-0.95-7.466-0.765-14.982-0.275-22.492
		c0.014-0.195,0.099-0.382,0.274-1.036c3.707,2.64,7.347,5.229,10.766,7.666c-0.787,4.702-1.737,8.913-2.152,13.212
		c-0.649,6.714-0.507,13.453,2.727,19.176C264.708,293.477,266.486,295.16,268.051,297.115z"/>
	<path fill-rule="evenodd" clip-rule="evenodd" stroke="#FFFFFF" stroke-width="0.9925" stroke-miterlimit="10" d="M275.063,297.076
		c7.544-5.53,8.715-14.289,7.934-23.906c-0.35-4.305-1.441-8.502-2.113-12.771c-0.085-0.541,0.187-1.531,0.521-1.788
		c3.294-2.535,6.638-4.956,10.463-7.775c0.099,5.536,0.314,10.421,0.244,15.301c-0.107,7.419-0.954,14.686-3.639,21.342
		c-1.898,4.702-4.516,8.436-8.629,9.537C278.431,297.393,276.912,297.076,275.063,297.076z"/>
	<path fill-rule="evenodd" clip-rule="evenodd" stroke="#FFFFFF" stroke-width="0.9925" stroke-miterlimit="10" d="M237.513,270.8
		c3.923,0,7.672,0,11.364,0c0.622,3.794,1.134,7.752,1.937,11.601c1.06,5.094,2.883,9.707,5.826,13.376
		c3.052,3.803,6.402,5.353,11.158,5.154c-2.592,2.138-5.071,3.022-7.818,2.438c-3.236-0.687-6.024-2.658-8.559-5.34
		C246.289,292.594,239.402,279.262,237.513,270.8z"/>
	<path fill-rule="evenodd" clip-rule="evenodd" stroke="#FFFFFF" stroke-width="0.9925" stroke-miterlimit="10" d="M306.402,270.756
		c-3.838,10.811-7.833,20.689-14.738,27.844c-2.345,2.429-4.964,4.089-7.924,4.748c-2.708,0.603-5.143-0.293-7.254-1.916
		c2.168-0.702,4.571-1.016,6.669-2.246c5.155-3.031,7.837-9.021,9.464-15.829c0.975-4.083,1.495-8.359,2.23-12.601
		C298.431,270.756,302.226,270.756,306.402,270.756z"/>
</g>
<g>
	<path fill-rule="evenodd" clip-rule="evenodd" stroke="#FFFFFF" stroke-width="0.9925" stroke-miterlimit="10" d="M282.113,145.725
		c-0.323-0.74-0.662-1.466-1.329-1.946c0.413,2.137,0.567,4.333,1.302,6.404c-0.577-0.691-0.841-1.677-1.743-2.066
		c-0.032,0.177-0.062,0.348-0.096,0.519c-0.231,1.232-0.473-7.463-0.69-6.229c-0.051,0.29-0.025,0.594-0.036,0.892
		c-0.002,0.072-0.008,0.145-0.071,0.26c-0.064-0.083-0.136-0.159-0.193-0.248c-0.395-0.616-0.783-1.236-1.179-1.85
		c-0.042-0.064-0.115-0.107-0.179-0.164c-0.192,0.287-0.351,0.579-0.561,0.82c-0.319,0.366-0.673,0.698-1.012,1.045
		c-0.176,0.179-0.357,0.354-0.528,0.54c-0.117,0.128-0.243,0.142-0.332,0.003c-0.173-0.275-0.326-0.566-0.479-0.856
		c-0.283-0.537-0.569-1.072-0.834-1.617c-0.129-0.265-0.208,9.369-0.317,9.094c-0.086-0.219-0.182-0.433-0.303-0.718
		c-0.274,0.278-0.472,0.528-0.712,0.71c-0.444,0.336-0.911-9.287-1.376-8.984c-0.211,0.138-0.332,0.015-0.403-0.209
		c-0.198-0.621-0.381,8.677-0.611,8.07c-0.132-0.35-0.343-0.664-0.537-1.029c-0.198,0.249-0.348,0.452-0.513,0.641
		c-0.094,0.107-0.202,0.208-0.319,0.282c-0.179,0.113-0.336,0.063-0.435-0.144c-0.067-0.142-0.128-0.288-0.189-0.433
		c-0.118-0.285-0.183-0.305-0.43-0.133c-0.102,0.071-0.199,0.154-0.309,0.208c-0.231,0.114-0.362,0.036-0.414-0.231
		c-0.002-0.009-0.001-0.02-0.003-0.028c-0.103-0.632-0.105-0.647-0.667-0.483c-0.402,0.119-0.645-0.122-0.813-0.43
		c-0.156-0.285-0.353-0.306-0.589-0.243c-0.284,0.075-0.56,0.189-0.841,0.273c-0.274,0.082-0.551,0.16-0.831,0.218
		c-0.474,0.099-0.741-0.129-0.786-0.655c-0.014-0.168-0.013-0.338-0.026-0.507c-0.005-0.064-0.031-0.125-0.057-0.223
		c-0.459,0.115-0.912,0.226-1.364,0.339c-0.529,0.131-1.061,0.202-1.6,0.089c-0.486-0.102-0.524-0.237-0.295-0.702
		c0.274-0.556,0.08-1.09-0.12-1.676c-0.569,0.503-1.138,0.917-1.911,0.749c0.154-0.403,0.305-0.759,0.427-1.128
		c0.228-0.68,0.115-1.359-0.055-2.025c-0.078-0.306-0.192-0.607-0.326-0.89c-0.185-0.389-0.346-0.441-0.657-0.172
		c-0.452,0.391-0.873,0.824-1.301,1.245c-0.402,0.395-0.82,0.757-1.371,0.865c-0.131,0.027-0.272,0.004-0.469,0.004
		c0.185-0.229,0.359-0.398,0.479-0.603c0.125-0.216,0.241-0.457,0.291-0.703c0.107-0.532,0.172-1.074,0.26-1.654
		c-0.285,0.185-0.563,0.355-0.83,0.544c-0.519,0.368-1.055,0.648-1.688,0.736c-0.315,0.043-0.618,0.269-0.904,0.45
		c-0.389,0.246-0.753,0.534-1.135,0.788c-0.101,0.067-0.234,0.081-0.351,0.118c-0.014-0.023-0.027-0.045-0.041-0.07
		c0.062-0.096,0.122-0.193,0.183-0.29c0.231-0.362,0.406-0.743,0.342-1.205c-0.048-0.352-0.101-0.386-0.398-0.214
		c-0.229,0.131-0.444,0.291-0.674,0.419c-0.419,0.235-0.873,0.208-1.323,0.171c-0.072-0.005-0.139-0.083-0.208-0.13
		c0.054-0.065,0.097-0.153,0.165-0.192c0.217-0.133,0.441-0.261,0.671-0.366c0.399-0.184,0.454-0.563,0.542-1.033
		c-0.229,0.161-0.406,0.255-0.552,0.392c-0.355,0.327-0.783,0.464-1.209,0.625c-0.595,0.223-1.182,0.473-1.768,0.721
		c-0.477,0.202-0.95,0.409-1.522,0.343c0.131-0.284,0.371-0.384,0.574-0.513c0.505-0.319,0.987-0.662,1.307-1.21
		c0.108-0.187,0.191-0.393,0.319-0.664c-0.539,0.314-1.004,0.586-1.47,0.856c-0.466,0.273-0.928,0.559-1.552,0.46
		c0.479-0.546,1.162-0.88,1.268-1.74c-0.149,0.041-0.295,0.075-0.438,0.12c-0.746,0.232-1.455,0.623-2.255,0.623
		c-0.306,0-0.61,0.07-0.895-0.164c-0.089-0.073-0.295,0.004-0.441,0.039c-0.095,0.021-0.182,0.091-0.291,0.106
		c0.233-0.281,0.511-0.533,0.69-0.849c0.454-0.794,1.056-1.479,1.387-2.371c0.287-0.77,0.71-1.479,1.028-2.238
		c0.4-0.957,0.745-1.942,1.128-2.907c0.265-0.664,0.572-11.234,0.825-11.903c0.136-0.36,0.191-0.757,0.293-1.133
		c0.149-0.548,0.307-1.093,0.49-1.742c-0.15,0.127-0.283,0.192-0.346,0.303c-0.208,0.355-0.377,0.737-0.585,1.092
		c-0.19,0.321-0.413,0.618-0.65,0.905c0.152-0.362,0.322-0.718,0.454-1.088c0.184-0.516,0.322-1.051,0.51-1.565
		c0.306-0.841,0.704-1.63,1.201-2.359c0.699-1.021,1.402-2.038,2.09-3.069c0.148-0.221,0.221-0.504,0.365-0.729
		c0.469-0.733,0.957-1.452,1.435-2.177c0.038-0.057,0.063-0.122,0.118-0.23c-0.517,0.223-0.993,0.426-1.469,0.631
		c-0.02-0.033-0.04-0.066-0.058-0.1c0.208-0.21,0.4-0.45,0.629-0.627c0.971-0.75,1.606-1.8,2.23-2.865
		c0.185-0.316,0.369-0.644,0.608-0.908c0.188-0.207,0.48-0.293,0.693-0.481c0.595-0.525,1.188-1.059,1.751-1.625
		c0.333-0.335,0.601-0.747,0.914-1.108c0.133-0.154,0.309-0.263,0.45-0.429c-0.389,0.133-0.777,0.267-1.167,0.401
		c-0.007-0.014-0.017-0.028-0.026-0.042c0.172-0.14,0.349-0.269,0.511-0.418c0.503-0.459,1.019-0.903,1.493-1.394
		c0.571-0.593,1.222-1.042,1.924-1.413c0.839-0.441,1.683-0.878,2.534-1.293c1.568-0.764,3.19-1.351,4.892-1.64
		c0.504-0.085,1.021-0.071,1.531-0.124c2.186-0.224,4.377-0.323,6.571-0.363c0.917-0.016,1.781,0.161,2.641,0.508
		c1.677,0.676,3.367,1.314,5.06,1.942c0.481,0.179,0.987,0.287,1.488,0.388c0.737,0.149,1.396,0.479,2.023,0.908
		c0.118,0.08,0.243,0.146,0.383,0.229c0.052-0.294,0.199-0.251,0.368-0.129c0.2,0.146,0.402,0.292,0.642,0.463
		c0.064-0.214,0.12-0.402,0.176-0.59c0.022-0.007,0.044-0.014,0.067-0.021c0.197,0.477,0.395,0.955,0.588,1.426
		c1.565-0.056,3.109,0.137,4.657,0.265c0.54,0.044,0.91,0.37,1.123,0.912c0.024,0.063,0.101,0.143,0.154,0.144
		c1.198,0.018,2.243,0.574,3.298,1.096c1.128,0.558,2.215,1.199,3.21,2.003c0.848,0.684,1.487,1.562,1.923,2.615
		c0.568,1.379,0.832,2.843,1.033,4.325c0.146,1.079-0.059,2.114-0.303,3.148c-0.289,1.219-0.782,2.347-1.262,3.482
		c-0.198,0.467-0.441,0.915-0.695,1.349c-0.063,0.109-0.247,0.134-0.437,0.229c0-0.294-0.008-0.497,0.001-0.699
		c0.064-1.419,0.139-2.84,0.194-4.259c0.015-0.406-0.104-0.784-0.384-1.075c-0.052-0.055-0.167-0.114-0.218-0.087
		c-0.526,0.275-1.095,0.249-1.653,0.313c-1.137,0.131-2.272,0.285-3.41,0.421c-1.055,0.125-2.11,0.122-3.169,0.022
		c-0.889-0.083-1.781-0.212-2.669-0.181c-1.207,0.042-2.383,0.33-3.467,0.964c-0.303,0.177-0.635,0.297-0.955,0.442
		c-0.943,0.429-1.593,1.194-2.096,2.136c-0.384,0.722-0.911,1.318-1.425,1.93c-0.406,0.484-0.897,10.844-0.978,11.575
		c-0.046,0.417-0.115,0.843-0.25,1.235c-0.324,0.944-0.161,1.9-0.113,2.852c0.029,0.57,0.125,1.141,0.235,1.7
		c0.1,0.504,0.275,0.989,0.39,1.489c0.153,0.674,0.35,1.348,0.403,2.033c0.097,1.223,0.271,2.429,0.527,3.622
		c0.173,0.805,0.351,1.608,0.524,2.414c0.018,0.084,0.021,0.174,0.031,0.261C282.164,145.697,282.138,145.71,282.113,145.725z"/>
	
		<ellipse fill-rule="evenodd" clip-rule="evenodd" fill="#FFFFFF" stroke="#FFFFFF" stroke-width="0.2481" stroke-miterlimit="10" cx="279.006" cy="103.064" rx="4.035" ry="4.385"/>
</g>
<g>
	<path fill-rule="evenodd" clip-rule="evenodd" d="M142.895,420.914c-0.08-3.887-0.71-7.605-2.44-11.19
		c-5.249-10.88-16.868-16.497-28.363-14.318c-7.706,1.459-13.585,5.721-17.302,12.521c-5.007,9.159-3.951,18.276,1.317,27.019
		c1.817,3.018,3.908,5.873,5.916,8.773c3.557,5.141,7.143,10.262,10.72,15.39c0.785,1.125,1.847,1.884,3.188,2.17
		c2.402,0.512,4.165-0.52,5.569-2.39c2.263-3.015,4.617-5.963,6.801-9.034c3.521-4.952,6.998-9.935,10.374-14.986
		C141.479,430.671,142.989,426.019,142.895,420.914z"/>
	<path fill-rule="evenodd" clip-rule="evenodd" fill="#FFFFFF" d="M142.895,420.914c0.095,5.104-1.416,9.757-4.222,13.954
		c-3.376,5.051-6.853,10.035-10.374,14.986c-2.184,3.07-4.538,6.019-6.801,9.034c-1.405,1.87-3.167,2.901-5.569,2.39
		c-1.341-0.286-2.402-1.045-3.188-2.17c-3.577-5.128-7.164-10.249-10.72-15.39c-2.007-2.9-4.098-5.756-5.916-8.773
		c-5.268-8.742-6.324-17.859-1.317-27.019c3.717-6.8,9.596-11.061,17.302-12.521c11.496-2.179,23.114,3.438,28.363,14.318
		C142.184,413.309,142.815,417.027,142.895,420.914z M92.346,419.721c0.111,1.007,0.218,2.017,0.333,3.023
		c0.492,4.311,1.75,8.357,4.152,12.006c1.776,2.7,3.532,5.415,5.365,8.077c3.667,5.322,7.337,10.645,11.092,15.905
		c1.847,2.588,4.86,2.666,6.941,0.238c1.635-1.906,3.218-3.87,4.669-5.918c4.277-6.03,8.517-12.087,12.694-18.187
		c2.63-3.84,4.06-8.143,4.144-12.803c0.14-7.892-2.761-14.525-8.802-19.615c-5.672-4.777-12.288-6.635-19.658-5.584
		c-8.232,1.173-14.048,5.923-18.259,12.779C93.162,412.665,92.534,416.159,92.346,419.721z"/>
	<path fill-rule="evenodd" clip-rule="evenodd" d="M92.346,419.721c0.188-3.562,0.816-7.056,2.672-10.078
		c4.21-6.856,10.026-11.606,18.259-12.779c7.37-1.051,13.986,0.807,19.658,5.584c6.041,5.089,8.941,11.723,8.802,19.615
		c-0.083,4.661-1.514,8.963-4.144,12.803c-4.177,6.099-8.417,12.157-12.694,18.187c-1.451,2.048-3.034,4.012-4.669,5.918
		c-2.081,2.428-5.094,2.351-6.941-0.238c-3.755-5.26-7.425-10.583-11.092-15.905c-1.833-2.662-3.589-5.377-5.365-8.077
		c-2.403-3.649-3.661-7.695-4.152-12.006C92.563,421.737,92.457,420.728,92.346,419.721z M113.167,439.574
		c1.084,0.073,1.49-0.142,1.391-0.864c-0.241-1.737-0.385-3.512-0.874-5.183c-2.197-7.532-9.837-13.406-17.602-13.684
		c-0.779-0.029-1.074,0.333-1,1.004c0.156,1.427,0.258,2.875,0.591,4.264C97.415,432.383,104.308,438.96,113.167,439.574z
		 M137.813,420.897c-0.002-0.02-0.005-0.039-0.008-0.059c-1.038,0.119-2.091,0.164-3.112,0.369
		c-4.075,0.824-7.508,2.756-10.325,5.864c-3.025,3.336-4.547,7.239-4.869,11.676c-0.048,0.668,0.242,0.998,0.872,0.925
		c1.771-0.204,3.569-0.317,5.297-0.721c2.166-0.506,4.023-1.664,5.857-2.975c2.537-1.814,4.448-4.02,5.712-6.836
		c1.054-2.349,2.086-4.692,2.055-7.356c-0.008-0.676-0.2-0.952-0.852-0.921C138.231,420.875,138.022,420.886,137.813,420.897z
		 M121.605,453.239c-1.24-0.417-2.332-0.929-3.477-1.127c-0.958-0.167-1.989-0.038-2.972,0.088c-0.811,0.103-1.6,0.388-2.394,0.607
		c-0.183,0.051-0.449,0.131-0.493,0.26c-0.051,0.146,0.06,0.487,0.178,0.53c0.586,0.213,1.194,0.48,1.804,0.501
		c1.482,0.054,2.968-0.04,4.453-0.028c0.561,0.004,1.121,0.191,1.681,0.19C121.085,454.258,121.545,453.897,121.605,453.239z
		 M120.071,445.724c0.011-0.567-0.335-0.886-0.765-0.57c-0.721,0.529-1.387,1.18-1.926,1.893c-0.313,0.414,0.175,0.93,0.731,0.866
		C118.991,447.813,120.057,446.623,120.071,445.724z M116.957,446.975c-0.439-0.533-0.841-1.103-1.335-1.579
		c-0.17-0.165-0.777-0.204-0.826-0.11c-0.213,0.402-0.537,1.042-0.37,1.286c0.348,0.505,0.941,0.896,1.511,1.177
		C116.418,447.986,116.816,447.75,116.957,446.975z"/>
	<path fill-rule="evenodd" clip-rule="evenodd" fill="#FFFFFF" d="M113.167,439.574c-8.86-0.614-15.752-7.191-17.494-14.463
		c-0.333-1.389-0.435-2.837-0.591-4.264c-0.073-0.671,0.221-1.033,1-1.004c7.764,0.278,15.404,6.152,17.602,13.684
		c0.488,1.671,0.633,3.446,0.874,5.183C114.657,439.432,114.252,439.647,113.167,439.574z"/>
	<path fill-rule="evenodd" clip-rule="evenodd" fill="#FFFFFF" d="M137.813,420.897c0.209-0.012,0.418-0.023,0.627-0.033
		c0.651-0.031,0.843,0.245,0.852,0.921c0.032,2.664-1,5.008-2.055,7.356c-1.264,2.816-3.175,5.022-5.712,6.836
		c-1.834,1.311-3.691,2.469-5.857,2.975c-1.728,0.403-3.526,0.517-5.297,0.721c-0.629,0.073-0.92-0.257-0.872-0.925
		c0.321-4.437,1.843-8.339,4.869-11.676c2.817-3.108,6.25-5.04,10.325-5.864c1.021-0.205,2.075-0.25,3.112-0.369
		C137.809,420.858,137.812,420.878,137.813,420.897z"/>
	<path fill-rule="evenodd" clip-rule="evenodd" fill="#FFFFFF" d="M121.605,453.239c-0.06,0.658-0.52,1.019-1.22,1.02
		c-0.56,0.001-1.12-0.186-1.681-0.19c-1.485-0.012-2.971,0.083-4.453,0.028c-0.609-0.021-1.218-0.288-1.804-0.501
		c-0.119-0.043-0.229-0.384-0.178-0.53c0.044-0.129,0.311-0.209,0.493-0.26c0.794-0.219,1.583-0.504,2.394-0.607
		c0.982-0.125,2.013-0.255,2.972-0.088C119.274,452.311,120.365,452.822,121.605,453.239z"/>
	<path fill-rule="evenodd" clip-rule="evenodd" fill="#FFFFFF" d="M120.071,445.724c-0.015,0.899-1.08,2.089-1.959,2.189
		c-0.557,0.064-1.045-0.453-0.731-0.866c0.539-0.713,1.205-1.364,1.926-1.893C119.736,444.838,120.082,445.156,120.071,445.724z"/>
	<path fill-rule="evenodd" clip-rule="evenodd" fill="#FFFFFF" d="M116.957,446.975c-0.141,0.775-0.539,1.011-1.02,0.773
		c-0.57-0.281-1.164-0.672-1.511-1.177c-0.167-0.244,0.157-0.883,0.37-1.286c0.049-0.094,0.656-0.055,0.826,0.11
		C116.115,445.872,116.518,446.442,116.957,446.975z"/>
</g>
<g>
	<g>
		<g>
			<g>
				<polygon points="159.361,365.666 159.361,335.809 179.561,335.809 179.561,341.471 165.55,341.471 165.55,347.791 
					177.7,347.791 177.7,353.685 165.55,353.685 165.55,360.004 179.561,360.004 179.561,365.666 				"/>
				<path fill="#FFFFFF" d="M179.065,336.305v4.669h-14.011v7.313h12.15v4.902h-12.15v7.311h14.011v4.67h-19.208v-28.865H179.065
					 M180.058,335.313h-0.993h-19.208h-0.993v0.993v28.865v0.993h0.993h19.208h0.993v-0.993v-4.67v-0.993h-0.993h-13.018v-5.326
					h11.157h0.993v-0.993v-4.902v-0.993h-0.993h-11.157v-5.327h13.018h0.993v-0.993v-4.669V335.313L180.058,335.313z"/>
			</g>
		</g>
	</g>
	<g>
		<g>
			<rect x="186.8" y="347.791" width="12.623" height="5.894"/>
			<path fill="#FFFFFF" d="M198.927,348.287v4.902h-11.63v-4.902H198.927 M199.919,347.294h-0.993h-11.63h-0.993v0.993v4.902v0.993
				h0.993h11.63h0.993v-0.993v-4.902V347.294L199.919,347.294z"/>
		</g>
		<g>
			<rect x="205.759" y="349.714" width="12.622" height="5.894"/>
			<path fill="#FFFFFF" d="M217.885,350.21v4.902h-11.63v-4.902H217.885 M218.877,349.218h-0.993h-11.63h-0.993v0.993v4.902v0.993
				h0.993h11.63h0.993v-0.993v-4.902V349.218L218.877,349.218z"/>
		</g>
		<g>
			<rect x="205.754" y="360.142" width="5.965" height="5.662"/>
			<path fill="#FFFFFF" d="M211.223,360.638v4.67h-4.973v-4.67H211.223 M212.215,359.645h-0.993h-4.973h-0.993v0.993v4.67v0.993
				h0.993h4.973h0.993v-0.993v-4.67V359.645L212.215,359.645z"/>
		</g>
	</g>
	<g>
		<rect x="197.137" y="335.946" width="5.896" height="29.682"/>
		<path fill="#FFFFFF" d="M202.537,336.442v28.689h-4.904v-28.689H202.537 M203.529,335.45h-0.993h-4.904h-0.993v0.993v28.689v0.993
			h0.993h4.904h0.993v-0.993v-28.689V335.45L203.529,335.45z"/>
	</g>
	<g>
		<polygon points="181.934,365.628 181.934,340.864 186.8,335.997 186.8,335.809 203.062,335.809 203.062,341.471 187.829,341.471 
			187.829,365.628 		"/>
		<path fill="#FFFFFF" d="M202.566,336.305v4.669h-15.233v24.157h-4.903v-24.063l4.627-4.627h0.24v-0.137H202.566 M203.559,335.313
			h-0.993h-15.27h-0.993v0.479l-4.576,4.576l-0.291,0.291v0.411v24.063v0.993h0.993h4.903h0.993v-0.993v-23.165h14.241h0.993v-0.993
			v-4.669V335.313L203.559,335.313z"/>
	</g>
	<g>
		<path d="M222.783,365.666l-6.901-10.2l-3.899-0.23v0.208l-6.191-0.327v-14.208l5.102-5.1h6.479c3.49,0,6.253,0.85,8.211,2.527
			c1.982,1.694,2.987,4.137,2.987,7.258c0,4.394-2.035,7.348-6.052,8.792l7.747,11.28H222.783z M217.234,349.734
			c1.656,0,2.961-0.292,3.877-0.868c0.842-0.53,1.269-1.588,1.269-3.146c0-1.584-0.426-2.649-1.265-3.166
			c-0.917-0.564-2.223-0.85-3.881-0.85h-5.251v8.03H217.234z"/>
		<path fill="#FFFFFF" d="M217.372,336.305c3.384,0,6.014,0.802,7.889,2.408c1.875,1.604,2.813,3.898,2.813,6.881
			c0,4.397-2.112,7.24-6.339,8.529l7.586,11.047h-6.276l-6.89-10.185l-4.669-0.275v0.211l-5.199-0.274v-13.532l4.811-4.809H217.372
			 M211.487,350.23h5.748c1.76,0,3.141-0.315,4.142-0.944c1-0.629,1.501-1.818,1.501-3.566c0-1.776-0.501-2.973-1.501-3.588
			c-1-0.615-2.382-0.923-4.142-0.923h-5.748V350.23 M217.372,335.313h-6.273h-0.411l-0.291,0.291l-4.811,4.809l-0.291,0.291v0.411
			v13.532v0.941l0.94,0.05l5.199,0.274l1.045,0.055v-0.205l3.129,0.185l6.615,9.779l0.295,0.437h0.527h6.276h1.886l-1.067-1.555
			l-6.857-9.985c3.84-1.591,5.784-4.623,5.784-9.029c0-3.273-1.063-5.842-3.161-7.636
			C223.855,336.203,220.984,335.313,217.372,335.313L217.372,335.313z M212.479,342.201h4.755c1.565,0,2.784,0.261,3.622,0.776
			c0.683,0.42,1.028,1.343,1.028,2.743c0,1.396-0.339,2.288-1.037,2.726c-0.836,0.526-2.052,0.792-3.613,0.792h-4.755V342.201
			L212.479,342.201z"/>
	</g>
</g>
<g>
	<path fill-rule="evenodd" clip-rule="evenodd" stroke="#FFFFFF" stroke-width="0.9925" stroke-miterlimit="10" d="M50.213,374.425
		c-0.323-0.739-0.662-1.464-1.329-1.947c0.414,2.138,0.568,4.333,1.303,6.405c-0.577-0.69-0.841-1.677-1.743-2.065
		c-0.033,0.176-0.062,0.346-0.095,0.518c-0.232,1.233-0.473-7.462-0.691-6.229c-0.05,0.289-0.025,0.594-0.036,0.892
		c-0.002,0.073-0.007,0.146-0.07,0.261c-0.065-0.082-0.137-0.16-0.194-0.248c-0.394-0.615-0.783-1.235-1.179-1.851
		c-0.042-0.065-0.115-0.107-0.178-0.163c-0.192,0.286-0.351,0.579-0.561,0.819c-0.319,0.368-0.673,0.699-1.013,1.044
		c-0.175,0.181-0.357,0.355-0.527,0.542c-0.117,0.127-0.244,0.14-0.332,0.002c-0.174-0.275-0.326-0.566-0.479-0.857
		c-0.283-0.535-0.569-1.071-0.834-1.617c-0.13-0.264-0.209,9.371-0.317,9.095c-0.087-0.219-0.184-0.433-0.303-0.717
		c-0.275,0.278-0.472,0.528-0.713,0.71c-0.445,0.336-0.912-9.287-1.377-8.984c-0.21,0.138-0.331,0.015-0.403-0.21
		c-0.198-0.621-0.38,8.677-0.611,8.07c-0.133-0.349-0.343-0.664-0.538-1.028c-0.197,0.247-0.348,0.451-0.513,0.639
		c-0.093,0.108-0.2,0.209-0.318,0.283c-0.179,0.113-0.335,0.063-0.434-0.143c-0.068-0.142-0.129-0.287-0.189-0.434
		c-0.118-0.284-0.184-0.304-0.431-0.134c-0.103,0.07-0.199,0.154-0.309,0.209c-0.23,0.114-0.362,0.035-0.413-0.231
		c-0.002-0.009-0.002-0.019-0.003-0.027c-0.104-0.633-0.106-0.647-0.667-0.484c-0.403,0.119-0.646-0.122-0.814-0.429
		c-0.155-0.285-0.353-0.305-0.589-0.243c-0.285,0.075-0.56,0.188-0.841,0.272c-0.275,0.083-0.551,0.16-0.832,0.218
		c-0.473,0.1-0.74-0.128-0.784-0.655c-0.015-0.168-0.013-0.338-0.027-0.507c-0.005-0.063-0.031-0.124-0.057-0.222
		c-0.459,0.113-0.912,0.225-1.364,0.338c-0.529,0.132-1.062,0.202-1.6,0.09c-0.485-0.102-0.524-0.236-0.295-0.702
		c0.275-0.555,0.08-1.09-0.12-1.677c-0.569,0.504-1.139,0.918-1.911,0.749c0.153-0.402,0.304-0.759,0.427-1.127
		c0.228-0.679,0.115-1.359-0.055-2.025c-0.078-0.308-0.191-0.607-0.326-0.891c-0.185-0.387-0.346-0.44-0.657-0.17
		c-0.452,0.391-0.872,0.824-1.3,1.244c-0.402,0.395-0.821,0.757-1.372,0.865c-0.131,0.025-0.271,0.004-0.469,0.004
		c0.186-0.23,0.359-0.397,0.478-0.603c0.126-0.216,0.241-0.457,0.292-0.703c0.107-0.533,0.172-1.073,0.261-1.654
		c-0.286,0.185-0.563,0.355-0.83,0.543c-0.519,0.37-1.056,0.649-1.69,0.738c-0.314,0.043-0.616,0.268-0.904,0.449
		c-0.387,0.245-0.751,0.533-1.134,0.788c-0.101,0.067-0.234,0.08-0.351,0.118c-0.014-0.022-0.027-0.045-0.04-0.069
		c0.06-0.097,0.121-0.194,0.182-0.291c0.231-0.362,0.406-0.742,0.342-1.205c-0.048-0.352-0.101-0.386-0.398-0.215
		c-0.229,0.133-0.445,0.292-0.675,0.421c-0.419,0.234-0.874,0.207-1.323,0.17c-0.072-0.006-0.139-0.084-0.208-0.129
		c0.053-0.067,0.097-0.154,0.165-0.194c0.217-0.131,0.441-0.258,0.671-0.364c0.4-0.184,0.454-0.565,0.543-1.035
		c-0.23,0.16-0.407,0.256-0.553,0.392c-0.354,0.328-0.783,0.465-1.209,0.626c-0.595,0.223-1.181,0.472-1.767,0.72
		c-0.476,0.202-0.95,0.408-1.522,0.345c0.131-0.287,0.371-0.385,0.574-0.514c0.504-0.32,0.987-0.662,1.307-1.21
		c0.108-0.188,0.19-0.393,0.32-0.663c-0.54,0.314-1.005,0.585-1.471,0.857c-0.465,0.271-0.928,0.558-1.552,0.459
		c0.479-0.547,1.162-0.88,1.268-1.74c-0.149,0.042-0.295,0.076-0.438,0.12c-0.746,0.233-1.455,0.624-2.255,0.624
		c-0.307,0-0.609,0.069-0.895-0.165c-0.089-0.072-0.295,0.004-0.441,0.038c-0.095,0.021-0.181,0.091-0.291,0.107
		c0.234-0.281,0.511-0.533,0.69-0.85c0.454-0.795,1.055-1.48,1.387-2.37c0.287-0.77,0.712-1.479,1.028-2.238
		c0.4-0.958,0.744-1.942,1.128-2.908c0.264-0.664,0.572-11.234,0.825-11.903c0.136-0.36,0.191-0.757,0.293-1.132
		c0.148-0.549,0.307-1.094,0.49-1.742c-0.151,0.127-0.283,0.191-0.346,0.301c-0.208,0.356-0.377,0.738-0.586,1.092
		c-0.189,0.321-0.413,0.618-0.649,0.906c0.152-0.362,0.321-0.718,0.454-1.088c0.183-0.517,0.323-1.052,0.509-1.565
		c0.306-0.841,0.705-1.632,1.202-2.36c0.699-1.022,1.402-2.039,2.09-3.069c0.148-0.222,0.22-0.505,0.366-0.731
		c0.468-0.731,0.956-1.451,1.434-2.177c0.037-0.056,0.063-0.122,0.117-0.229c-0.516,0.223-0.993,0.427-1.468,0.631
		c-0.02-0.034-0.04-0.067-0.058-0.099c0.208-0.212,0.398-0.451,0.628-0.628c0.972-0.75,1.606-1.799,2.23-2.866
		c0.185-0.317,0.369-0.645,0.609-0.908c0.187-0.206,0.481-0.293,0.692-0.481c0.595-0.526,1.189-1.059,1.752-1.625
		c0.334-0.336,0.602-0.748,0.914-1.109c0.133-0.153,0.309-0.262,0.45-0.428c-0.388,0.134-0.776,0.268-1.165,0.401
		c-0.008-0.015-0.018-0.029-0.026-0.042c0.171-0.138,0.349-0.27,0.511-0.418c0.502-0.458,1.018-0.903,1.492-1.393
		c0.571-0.592,1.224-1.042,1.926-1.412c0.839-0.442,1.682-0.879,2.534-1.294c1.568-0.763,3.189-1.351,4.891-1.641
		c0.504-0.084,1.022-0.07,1.532-0.122c2.186-0.224,4.377-0.324,6.572-0.363c0.917-0.016,1.781,0.161,2.64,0.507
		c1.677,0.677,3.368,1.315,5.06,1.943c0.48,0.179,0.986,0.286,1.488,0.388c0.737,0.149,1.396,0.478,2.022,0.908
		c0.117,0.08,0.243,0.145,0.384,0.229c0.052-0.294,0.199-0.25,0.368-0.128c0.2,0.146,0.401,0.291,0.642,0.463
		c0.064-0.215,0.12-0.402,0.177-0.59c0.022-0.007,0.045-0.015,0.066-0.022c0.198,0.477,0.395,0.956,0.589,1.426
		c1.565-0.055,3.109,0.139,4.656,0.265c0.54,0.045,0.909,0.37,1.123,0.913c0.024,0.063,0.101,0.142,0.154,0.143
		c1.199,0.019,2.243,0.575,3.298,1.096c1.129,0.559,2.215,1.2,3.211,2.004c0.847,0.685,1.487,1.562,1.922,2.615
		c0.568,1.379,0.831,2.844,1.033,4.325c0.146,1.078-0.058,2.113-0.304,3.147c-0.288,1.219-0.782,2.348-1.261,3.481
		c-0.198,0.468-0.44,0.916-0.695,1.351c-0.063,0.108-0.246,0.134-0.436,0.229c0-0.294-0.008-0.497,0.001-0.7
		c0.064-1.419,0.139-2.838,0.193-4.258c0.016-0.406-0.103-0.785-0.384-1.074c-0.053-0.057-0.167-0.116-0.218-0.09
		c-0.525,0.277-1.095,0.249-1.653,0.314c-1.137,0.132-2.273,0.287-3.41,0.422c-1.054,0.126-2.109,0.122-3.169,0.022
		c-0.888-0.083-1.781-0.212-2.669-0.181c-1.207,0.042-2.382,0.33-3.467,0.963c-0.303,0.178-0.636,0.297-0.954,0.443
		c-0.943,0.428-1.594,1.194-2.097,2.135c-0.384,0.721-0.911,1.318-1.424,1.931c-0.407,0.484-0.897,10.844-0.978,11.575
		c-0.046,0.417-0.116,0.843-0.251,1.234c-0.324,0.945-0.162,1.903-0.112,2.853c0.03,0.57,0.124,1.141,0.234,1.7
		c0.099,0.503,0.275,0.989,0.39,1.49c0.153,0.671,0.351,1.347,0.405,2.032c0.095,1.224,0.27,2.429,0.526,3.622
		c0.173,0.805,0.351,1.608,0.523,2.413c0.019,0.085,0.021,0.175,0.032,0.261C50.266,374.396,50.239,374.411,50.213,374.425z"/>
	
		<ellipse fill-rule="evenodd" clip-rule="evenodd" fill="#FFFFFF" stroke="#FFFFFF" stroke-width="0.2481" stroke-miterlimit="10" cx="47.107" cy="331.765" rx="4.036" ry="4.384"/>
</g>
<g>
	<path fill-rule="evenodd" clip-rule="evenodd" fill="none" stroke="#FFFFFF" stroke-miterlimit="10" d="M232.926,229.268
		c-12.82-22.202-25.534-44.223-38.338-66.397c-12.812,22.195-25.533,44.231-38.328,66.397
		C181.876,229.268,207.279,229.268,232.926,229.268z"/>
	<path fill-rule="evenodd" clip-rule="evenodd" stroke="#FFFFFF" stroke-width="1.0303" stroke-miterlimit="10" d="M216.782,207.507
		c-0.271,0.236-0.466,0.389-0.645,0.562c-2.836,2.727-5.996,5.01-9.498,6.795c-5.321,2.714-10.912,3.832-16.847,2.613
		c-4.528-0.931-8.536-3.022-12.237-5.714c-1.773-1.29-3.439-2.726-5.225-4.151c-3.541,6.144-7.085,12.29-10.693,18.548
		c22.052,0,43.914,0,65.916,0C223.945,219.91,220.392,213.756,216.782,207.507z M176.287,200.778
		c12.228-9.213,24.368-9.289,36.577-0.049c-6.069-10.517-12.138-21.035-18.272-31.665
		C188.419,179.756,182.353,190.267,176.287,200.778z M203.212,206.023c0.017-4.945-3.83-8.854-8.82-8.752
		c-4.597,0.094-8.404,3.721-8.457,8.654c-0.053,4.762,3.941,8.629,8.812,8.639C199.323,214.574,203.196,210.666,203.212,206.023z
		 M175.344,205.852c2.131,2.569,9.294,7.133,11.697,7.461c-4.227-4.589-3.745-10.917,0.227-15.025
		C182.63,200.06,178.778,202.619,175.344,205.852z M202.041,198.611c4.614,1.782,8.454,4.318,11.886,7.508
		c-2.043,2.509-8.743,6.787-11.579,7.413C206.216,208.678,206.091,203.209,202.041,198.611z"/>
	<path fill-rule="evenodd" clip-rule="evenodd" fill="#FFFFFF" d="M203.212,206.023c-0.016,4.643-3.889,8.551-8.466,8.541
		c-4.871-0.01-8.864-3.877-8.812-8.639c0.053-4.934,3.86-8.56,8.457-8.654C199.382,197.169,203.229,201.079,203.212,206.023z
		 M200.064,205.989c0.032-3.113-2.367-5.506-5.577-5.564c-2.801-0.051-5.354,2.488-5.396,5.368c-0.046,3.105,2.465,5.603,5.65,5.62
		C197.596,211.428,200.034,208.943,200.064,205.989z"/>
	<path fill-rule="evenodd" clip-rule="evenodd" fill="#FFFFFF" d="M175.344,205.852c3.434-3.233,7.286-5.792,11.924-7.563
		c-3.972,4.108-4.454,10.436-0.227,15.025C184.638,212.985,177.475,208.421,175.344,205.852z"/>
	<path fill-rule="evenodd" clip-rule="evenodd" fill="#FFFFFF" d="M175.344,205.852c3.434-3.233,7.286-5.792,11.924-7.563
		c-3.972,4.108-4.454,10.436-0.227,15.025C184.638,212.985,177.475,208.421,175.344,205.852z"/>
	<path fill-rule="evenodd" clip-rule="evenodd" fill="#FFFFFF" d="M214.268,205.852c-3.434-3.233-7.286-5.792-11.924-7.563
		c3.972,4.108,4.454,10.436,0.227,15.025C204.974,212.985,212.137,208.421,214.268,205.852z"/>
	<path fill-rule="evenodd" clip-rule="evenodd" stroke="#FFFFFF" stroke-width="1.0303" stroke-miterlimit="10" d="M200.064,205.989
		c-0.031,2.954-2.468,5.439-5.323,5.424c-3.185-0.018-5.696-2.515-5.65-5.62c0.042-2.88,2.595-5.419,5.396-5.368
		C197.698,200.483,200.097,202.876,200.064,205.989z M197.633,203.074c-0.072-0.637-0.461-1.062-1.141-1.068
		c-0.683-0.006-1.106,0.403-1.146,1.104c-0.039,0.669,0.514,1.218,1.175,1.176C197.226,204.241,197.57,203.814,197.633,203.074z"/>
	<path fill-rule="evenodd" clip-rule="evenodd" fill="#FFFFFF" d="M197.633,203.074c-0.063,0.74-0.407,1.167-1.113,1.212
		c-0.661,0.042-1.214-0.507-1.175-1.176c0.041-0.701,0.464-1.11,1.146-1.104C197.172,202.012,197.561,202.437,197.633,203.074z"/>
</g>
<rect opacity="0.54" fill="#3E095C" width="311.811" height="469.508"/>
</svg>
