<?xml version="1.0" encoding="utf-8"?>
<!-- Generator: Adobe Illustrator 16.0.0, SVG Export Plug-In . SVG Version: 6.00 Build 0)  -->
<!DOCTYPE svg PUBLIC "-//W3C//DTD SVG 1.1//EN" "http://www.w3.org/Graphics/SVG/1.1/DTD/svg11.dtd">
<svg version="1.1" id="Layer_1" xmlns="http://www.w3.org/2000/svg" xmlns:xlink="http://www.w3.org/1999/xlink" x="0px" y="0px"
	 width="311.811px" height="467.716px" viewBox="0 0 311.811 467.716" enable-background="new 0 0 311.811 467.716"
	 xml:space="preserve">
<rect fill-rule="evenodd" clip-rule="evenodd" fill="#FFFFFF" width="311.811" height="467.716"/>
<g>
	<g>
		<path fill-rule="evenodd" clip-rule="evenodd" fill="#FFFFFF" stroke="#FFFFFF" stroke-width="0.5" stroke-miterlimit="10" d="
			M85.558,102.419c1.598,2.441,3.254,4.895,4.83,7.398c2.567,4.075,5.932,7.291,10.117,9.669c1.984,1.128,4.748,1.861,5.691,3.579
			c0.992,1.805,0.135,4.58,0.284,6.918c0.052,0.813,0.512,1.779,1.102,2.346c2.281,2.192,4.689,4.254,7.053,6.36
			c3.338,2.973,6.68,5.942,10.019,8.914c-0.4-1.206-0.991-2.253-1.78-3.121c-2.17-2.388-3.033-5.349-3.781-8.354
			c-0.138-0.556-0.002-1.364,0.331-1.817c0.828-1.127,1.844-2.117,2.854-3.239c1.709,0.846,3.365,1.577,4.93,2.469
			c1.337,0.762,2.091,0.404,2.631-1.011c-5.789-5.167-11.565-10.322-17.341-15.479c-0.402-0.358-0.866-0.677-1.168-1.107
			c-0.187-0.266-0.121-0.708-0.169-1.071c0.42-0.049,0.907-0.256,1.243-0.111c0.472,0.203,0.834,0.663,1.236,1.021
			c5.379,4.799,10.755,9.6,16.137,14.395c0.433,0.385,0.903,0.727,1.356,1.088c0.211-0.061,0.422-0.122,0.633-0.184
			c-0.067-0.685,0.012-1.429-0.239-2.04c-0.326-0.795-0.911-1.486-1.39-2.219c-1.74-2.67-1.696-2.632,0.442-5.116
			c0.915-1.062,1.739-1.439,3.254-1.229c3.14,0.434,5.991,1.418,8.639,3.111c0.698,0.446,1.454,0.799,2.184,1.195
			c-4.692-4.764-9.724-9.039-14.482-13.597c-2.186-2.094-4.316-3.324-7.282-2.229c-3.392,1.252-5.307-0.233-7.147-3.057
			c-4.83-7.41-12.634-10.965-20.114-15.095c-0.428,0.789-0.737,1.358-1.099,2.024c11.165,6.83,20.042,15.851,27.886,26.6
			c-10.225-8.122-20.061-15.937-29.808-23.681C90.117,98.107,87.924,100.181,85.558,102.419z M136.782,137.222
			c-0.108,0.132-0.216,0.264-0.323,0.396c-1.845-1.366-3.689-2.731-6.015-4.452c0,1.826-0.301,3.19,0.054,4.354
			c1.302,4.272,4.629,6.072,8.76,7.066c3.294,0.792,6.466,2.09,9.691,3.164c0.319,0.106,0.64,0.213,0.959,0.319
			c-2.466-3.477-4.59-7.026-6.564-10.657c-1.813-3.335-4.569-5.232-8.257-5.742c-0.874-0.121-1.821,0.285-3.086,0.512
			C133.842,134.122,135.313,135.671,136.782,137.222z M90.946,90.718c0.315-0.562,0.621-1.107,0.975-1.738
			c-4.246-1.805-8.359-3.082-12.994-2.724c0.345,4.64,1.967,8.639,4.544,12.949c1.914-2.147,3.602-4.042,5.377-6.033
			c-2.281-1.753-4.659-3.581-7.037-5.409c0.098-0.165,0.196-0.331,0.295-0.496C84.962,88.383,87.818,89.498,90.946,90.718z"/>
		<path fill-rule="evenodd" clip-rule="evenodd" stroke="#FFFFFF" stroke-width="0.5" stroke-miterlimit="10" d="M88.502,102.919
			c2.366-2.238,4.559-4.312,7.051-6.667c9.747,7.744,19.583,15.559,29.807,23.681c-7.844-10.749-16.721-19.771-27.885-26.6
			c0.361-0.666,0.67-1.235,1.099-2.024c7.479,4.129,15.284,7.685,20.114,15.095c1.84,2.824,3.756,4.31,7.148,3.057
			c2.965-1.094,5.096,0.136,7.282,2.229c4.759,4.558,9.79,8.833,14.482,13.597c-0.729-0.396-1.486-0.75-2.184-1.195
			c-2.648-1.692-5.499-2.677-8.639-3.111c-1.515-0.21-2.339,0.167-3.254,1.229c-2.139,2.483-2.183,2.445-0.442,5.116
			c0.478,0.733,1.063,1.424,1.39,2.219c0.25,0.61,0.172,1.355,0.239,2.04c-0.211,0.062-0.423,0.123-0.634,0.184
			c-0.453-0.362-0.924-0.703-1.356-1.088c-5.382-4.795-10.758-9.596-16.137-14.395c-0.402-0.358-0.765-0.818-1.236-1.021
			c-0.336-0.145-0.823,0.062-1.242,0.111c0.047,0.363-0.019,0.805,0.168,1.071c0.303,0.43,0.767,0.749,1.168,1.107
			c5.775,5.157,11.552,10.313,17.341,15.479c-0.54,1.416-1.294,1.773-2.631,1.011c-1.563-0.892-3.22-1.623-4.93-2.469
			c-1.01,1.122-2.025,2.112-2.854,3.239c-0.333,0.453-0.469,1.261-0.33,1.817c0.748,3.005,1.611,5.965,3.781,8.354
			c0.788,0.868,1.38,1.916,1.78,3.121c-3.34-2.971-6.681-5.941-10.019-8.914c-2.364-2.106-4.771-4.167-7.053-6.36
			c-0.59-0.567-1.05-1.534-1.102-2.346c-0.148-2.338,0.708-5.113-0.284-6.918c-0.943-1.718-3.707-2.451-5.691-3.579
			c-4.185-2.378-7.549-5.594-10.116-9.669C91.755,107.814,90.1,105.36,88.502,102.919z"/>
		<path fill-rule="evenodd" clip-rule="evenodd" stroke="#FFFFFF" stroke-width="0.5" stroke-miterlimit="10" d="M139.726,137.722
			c-1.47-1.55-2.94-3.1-4.781-5.04c1.265-0.227,2.211-0.632,3.086-0.512c3.688,0.51,6.444,2.407,8.257,5.742
			c1.974,3.631,4.098,7.181,6.564,10.657c-0.32-0.106-0.64-0.213-0.959-0.319c-3.226-1.073-6.397-2.372-9.691-3.164
			c-4.131-0.994-7.458-2.794-8.76-7.066c-0.354-1.165-0.054-2.528-0.054-4.354c2.325,1.721,4.17,3.086,6.014,4.452
			C139.511,137.986,139.618,137.854,139.726,137.722z"/>
		<path fill-rule="evenodd" clip-rule="evenodd" stroke="#FFFFFF" stroke-width="0.5" stroke-miterlimit="10" d="M93.89,91.218
			c-3.127-1.221-5.984-2.335-8.84-3.45c-0.099,0.166-0.196,0.331-0.295,0.496c2.378,1.828,4.756,3.655,7.037,5.409
			c-1.775,1.991-3.463,3.885-5.376,6.033c-2.578-4.31-4.199-8.309-4.544-12.949c4.635-0.358,8.749,0.918,12.994,2.724
			C94.511,90.111,94.205,90.657,93.89,91.218z"/>
	</g>
</g>
<g>
	<path fill-rule="evenodd" clip-rule="evenodd" d="M64.844,188.566c-0.079-3.916-0.716-7.662-2.458-11.274
		c-5.289-10.963-16.995-16.622-28.578-14.427c-7.765,1.471-13.688,5.765-17.433,12.616c-5.044,9.228-3.981,18.415,1.326,27.223
		c1.832,3.04,3.938,5.916,5.96,8.839c3.584,5.18,7.197,10.34,10.802,15.506c0.791,1.133,1.861,1.898,3.211,2.187
		c2.42,0.516,4.196-0.523,5.611-2.408c2.281-3.037,4.652-6.008,6.852-9.102c3.548-4.988,7.051-10.011,10.452-15.1
		C63.417,198.396,64.939,193.709,64.844,188.566z"/>
	<path fill-rule="evenodd" clip-rule="evenodd" fill="#FFFFFF" d="M64.844,188.566c0.096,5.143-1.427,9.83-4.254,14.059
		c-3.401,5.089-6.904,10.111-10.452,15.1c-2.2,3.094-4.571,6.065-6.852,9.102c-1.415,1.885-3.191,2.924-5.611,2.408
		c-1.351-0.288-2.42-1.053-3.211-2.187c-3.604-5.166-7.218-10.326-10.802-15.506c-2.021-2.923-4.128-5.799-5.96-8.839
		c-5.307-8.808-6.371-17.995-1.326-27.223c3.745-6.851,9.668-11.145,17.433-12.616c11.583-2.194,23.289,3.464,28.578,14.427
		C64.128,180.904,64.765,184.65,64.844,188.566z M13.914,187.363c0.111,1.016,0.22,2.032,0.335,3.047
		c0.496,4.343,1.763,8.421,4.183,12.097c1.791,2.72,3.559,5.456,5.407,8.138c3.694,5.363,7.392,10.725,11.175,16.025
		c1.861,2.607,4.897,2.686,6.995,0.239c1.646-1.921,3.241-3.9,4.704-5.963c4.309-6.075,8.581-12.178,12.79-18.324
		c2.65-3.869,4.091-8.205,4.175-12.9c0.142-7.951-2.781-14.635-8.868-19.763c-5.714-4.813-12.38-6.686-19.806-5.627
		c-8.295,1.183-14.155,5.968-18.397,12.876C14.735,180.255,14.104,183.775,13.914,187.363z"/>
	<path fill-rule="evenodd" clip-rule="evenodd" d="M13.914,187.363c0.19-3.588,0.822-7.108,2.692-10.154
		c4.242-6.908,10.103-11.693,18.397-12.876c7.425-1.059,14.091,0.813,19.806,5.627c6.087,5.127,9.01,11.812,8.868,19.763
		c-0.083,4.695-1.525,9.031-4.175,12.9c-4.209,6.146-8.48,12.249-12.79,18.324c-1.463,2.063-3.057,4.042-4.704,5.963
		c-2.098,2.447-5.134,2.368-6.995-0.239c-3.783-5.3-7.48-10.662-11.175-16.025c-1.848-2.682-3.616-5.418-5.407-8.138
		c-2.42-3.676-3.688-7.754-4.183-12.097C14.133,189.395,14.025,188.379,13.914,187.363z M34.892,207.368
		c1.093,0.073,1.501-0.143,1.401-0.87c-0.242-1.75-0.387-3.54-0.879-5.224c-2.214-7.589-9.912-13.505-17.735-13.788
		c-0.786-0.028-1.082,0.336-1.007,1.013c0.157,1.438,0.26,2.896,0.595,4.296C19.021,200.122,25.967,206.748,34.892,207.368z
		 M59.724,188.549c-0.002-0.019-0.004-0.039-0.007-0.058c-1.046,0.12-2.108,0.164-3.136,0.372c-4.106,0.83-7.564,2.776-10.403,5.907
		c-3.047,3.362-4.581,7.294-4.905,11.765c-0.048,0.672,0.244,1.005,0.878,0.932c1.785-0.205,3.596-0.32,5.337-0.726
		c2.182-0.509,4.054-1.677,5.9-2.997c2.557-1.827,4.482-4.048,5.756-6.887c1.063-2.367,2.102-4.728,2.07-7.412
		c-0.009-0.681-0.202-0.959-0.859-0.928C60.146,188.526,59.935,188.539,59.724,188.549z M43.395,221.136
		c-1.25-0.421-2.349-0.936-3.503-1.136c-0.965-0.168-2.004-0.038-2.994,0.089c-0.817,0.104-1.612,0.39-2.412,0.612
		c-0.184,0.051-0.452,0.131-0.497,0.262c-0.051,0.147,0.06,0.49,0.179,0.534c0.591,0.216,1.204,0.483,1.817,0.505
		c1.493,0.054,2.991-0.04,4.487-0.029c0.565,0.004,1.129,0.192,1.693,0.191C42.871,222.162,43.333,221.798,43.395,221.136z
		 M41.849,213.563c0.01-0.571-0.338-0.892-0.771-0.574c-0.727,0.534-1.398,1.188-1.941,1.907c-0.316,0.418,0.176,0.938,0.737,0.874
		C40.761,215.667,41.833,214.469,41.849,213.563z M38.71,214.824c-0.441-0.537-0.847-1.112-1.345-1.591
		c-0.172-0.166-0.783-0.205-0.832-0.111c-0.214,0.405-0.541,1.05-0.373,1.295c0.35,0.509,0.948,0.902,1.522,1.186
		C38.167,215.842,38.568,215.605,38.71,214.824z"/>
	<path fill-rule="evenodd" clip-rule="evenodd" fill="#FFFFFF" d="M34.892,207.368c-8.925-0.62-15.872-7.246-17.625-14.573
		c-0.335-1.399-0.438-2.858-0.595-4.296c-0.074-0.677,0.222-1.042,1.007-1.013c7.823,0.283,15.521,6.199,17.735,13.788
		c0.492,1.684,0.637,3.474,0.879,5.224C36.394,207.225,35.985,207.44,34.892,207.368z"/>
	<path fill-rule="evenodd" clip-rule="evenodd" fill="#FFFFFF" d="M59.724,188.549c0.21-0.011,0.421-0.023,0.632-0.033
		c0.657-0.031,0.85,0.247,0.859,0.928c0.032,2.684-1.008,5.044-2.07,7.412c-1.274,2.839-3.199,5.06-5.756,6.887
		c-1.846,1.32-3.718,2.488-5.9,2.997c-1.741,0.406-3.552,0.521-5.337,0.726c-0.634,0.073-0.927-0.259-0.878-0.932
		c0.324-4.471,1.858-8.403,4.905-11.765c2.839-3.131,6.297-5.077,10.403-5.907c1.028-0.208,2.09-0.252,3.136-0.372
		C59.72,188.511,59.722,188.53,59.724,188.549z"/>
	<path fill-rule="evenodd" clip-rule="evenodd" fill="#FFFFFF" d="M43.395,221.136c-0.062,0.663-0.524,1.026-1.229,1.028
		c-0.564,0.001-1.128-0.188-1.693-0.191c-1.496-0.011-2.994,0.083-4.487,0.029c-0.613-0.021-1.226-0.289-1.817-0.505
		c-0.119-0.043-0.23-0.387-0.179-0.534c0.045-0.131,0.313-0.211,0.497-0.262c0.8-0.222,1.595-0.507,2.412-0.612
		c0.99-0.127,2.028-0.257,2.994-0.089C41.045,220.2,42.145,220.715,43.395,221.136z"/>
	<path fill-rule="evenodd" clip-rule="evenodd" fill="#FFFFFF" d="M41.849,213.563c-0.015,0.906-1.088,2.104-1.975,2.206
		c-0.561,0.064-1.053-0.456-0.737-0.874c0.543-0.718,1.214-1.373,1.941-1.907C41.51,212.671,41.858,212.992,41.849,213.563z"/>
	<path fill-rule="evenodd" clip-rule="evenodd" fill="#FFFFFF" d="M38.71,214.824c-0.142,0.781-0.543,1.018-1.027,0.779
		c-0.574-0.283-1.172-0.677-1.522-1.186c-0.168-0.245,0.158-0.891,0.373-1.295c0.049-0.094,0.66-0.055,0.832,0.111
		C37.863,213.712,38.269,214.287,38.71,214.824z"/>
</g>
<g>
	<path fill-rule="evenodd" clip-rule="evenodd" stroke="#FFFFFF" stroke-width="2.5" stroke-miterlimit="10" d="M232.086,72.199
		c-12.442-21.548-24.782-42.92-37.209-64.444c-12.435,21.542-24.782,42.931-37.2,64.444
		C182.539,72.199,207.195,72.199,232.086,72.199z"/>
	<path fill-rule="evenodd" clip-rule="evenodd" stroke="#FFFFFF" stroke-miterlimit="10" d="M232.086,72.199
		c-24.892,0-49.547,0-74.41,0c12.418-21.513,24.766-42.902,37.2-64.444C207.304,29.278,219.645,50.65,232.086,72.199z
		 M216.419,51.079c-0.265,0.229-0.454,0.378-0.626,0.545c-2.753,2.646-5.82,4.862-9.219,6.596
		c-5.165,2.634-10.591,3.718-16.35,2.536c-4.396-0.903-8.285-2.933-11.877-5.546c-1.721-1.251-3.338-2.646-5.071-4.029
		c-3.438,5.962-6.877,11.929-10.378,18.001c21.403,0,42.623,0,63.976,0C223.371,63.116,219.921,57.144,216.419,51.079z
		 M177.114,44.547c11.868-8.941,23.65-9.014,35.5-0.046c-5.89-10.208-11.781-20.417-17.734-30.734
		C188.89,24.145,183.002,34.346,177.114,44.547z M203.248,49.639c0.016-4.798-3.718-8.595-8.561-8.495
		c-4.462,0.092-8.157,3.61-8.208,8.399c-0.05,4.623,3.826,8.374,8.552,8.385C199.473,57.938,203.232,54.145,203.248,49.639z
		 M176.199,49.472c2.068,2.494,9.021,6.923,11.353,7.242c-4.103-4.454-3.634-10.594,0.221-14.582
		C183.271,43.85,179.532,46.334,176.199,49.472z M202.054,42.184c3.932,4.462,3.969,8.713,0.298,14.482
		c2.754-0.608,9.257-4.759,11.239-7.195C210.26,46.375,206.533,43.913,202.054,42.184z"/>
	<path fill-rule="evenodd" clip-rule="evenodd" fill="#FFFFFF" d="M203.248,49.639c-0.016,4.506-3.775,8.299-8.217,8.289
		c-4.727-0.011-8.603-3.762-8.552-8.385c0.052-4.789,3.746-8.308,8.208-8.399C199.53,41.043,203.264,44.84,203.248,49.639z
		 M200.193,49.605c0.031-3.021-2.297-5.344-5.413-5.4c-2.719-0.049-5.196,2.416-5.237,5.211c-0.045,3.013,2.393,5.437,5.484,5.454
		C197.797,54.884,200.163,52.473,200.193,49.605z"/>
	<path fill-rule="evenodd" clip-rule="evenodd" fill="#FFFFFF" stroke="#000000" stroke-miterlimit="10" d="M176.199,49.472
		c3.333-3.137,7.073-5.622,11.574-7.34c-3.854,3.988-4.323,10.128-0.221,14.582C185.22,56.395,178.267,51.965,176.199,49.472z"/>
	<path fill-rule="evenodd" clip-rule="evenodd" fill="#FFFFFF" stroke="#000000" stroke-miterlimit="10" d="M202.054,42.184
		c4.479,1.729,8.207,4.192,11.537,7.287c-1.982,2.436-8.485,6.587-11.239,7.195C206.023,50.896,205.986,46.646,202.054,42.184z"/>
	<path fill-rule="evenodd" clip-rule="evenodd" stroke="#FFFFFF" stroke-miterlimit="10" d="M200.193,49.605
		c-0.03,2.868-2.396,5.279-5.166,5.265c-3.091-0.017-5.529-2.441-5.484-5.454c0.042-2.795,2.519-5.26,5.237-5.211
		C197.896,44.261,200.224,46.584,200.193,49.605z M197.833,46.775c-0.071-0.618-0.448-1.031-1.108-1.037
		c-0.662-0.006-1.073,0.391-1.113,1.072c-0.038,0.649,0.499,1.182,1.141,1.141C197.438,47.908,197.772,47.494,197.833,46.775z"/>
	<path fill-rule="evenodd" clip-rule="evenodd" fill="#FFFFFF" d="M197.833,46.775c-0.062,0.718-0.396,1.132-1.081,1.176
		c-0.642,0.041-1.178-0.492-1.141-1.141c0.04-0.681,0.451-1.078,1.113-1.072C197.386,45.745,197.763,46.157,197.833,46.775z"/>
</g>
<g>
	<polygon stroke="#FFFFFF" stroke-miterlimit="10" points="38.977,39.978 38.977,39.978 38.977,39.978 	"/>
	<rect x="38.977" y="39.978" stroke="#FFFFFF" stroke-miterlimit="10" width="0" height="0"/>
	<polygon stroke="#FFFFFF" stroke-miterlimit="10" points="38.977,39.978 38.977,39.978 38.977,39.978 	"/>
	<polygon stroke="#FFFFFF" stroke-miterlimit="10" points="38.977,39.978 38.977,39.978 38.977,39.978 	"/>
	<rect x="38.977" y="39.978" stroke="#FFFFFF" stroke-miterlimit="10" width="0" height="0"/>
	<rect x="38.977" y="39.978" stroke="#FFFFFF" stroke-miterlimit="10" width="0" height="0"/>
	<polygon stroke="#FFFFFF" stroke-miterlimit="10" points="38.977,39.978 38.977,39.978 38.977,39.978 	"/>
	<rect x="38.975" y="39.977" stroke="#FFFFFF" stroke-miterlimit="10" width="0.002" height="0"/>
	<polygon stroke="#FFFFFF" stroke-miterlimit="10" points="38.977,39.978 38.977,39.978 38.977,39.978 	"/>
	<polygon stroke="#FFFFFF" stroke-miterlimit="10" points="38.977,39.978 38.977,39.978 38.977,39.978 	"/>
	<rect x="38.977" y="39.978" stroke="#FFFFFF" stroke-miterlimit="10" width="0" height="0"/>
	<polygon stroke="#FFFFFF" stroke-miterlimit="10" points="38.977,39.978 38.977,39.978 38.977,39.978 38.977,39.978 38.977,39.978 
		38.977,39.978 	"/>
	<path stroke="#FFFFFF" stroke-miterlimit="10" d="M68.778,17.185c0,0-11.624-2.096-17.008,6.951
		c0.011,0.603,0.011,1.221-0.002,1.857c-0.119,5.96-4.7,9.801-8.346,11.921c-1.27,1.239-2.669,1.953-4.445,2.063
		c0,0,0,0,0.001,0.001c0.021,0.002,3.119,0.523,6.842,0.051c2.722-1.028,5.937-2.982,10.148-5.295
		c0.288-0.395,0.562-0.811,0.809-1.262C61.537,24.747,61.462,18.248,68.778,17.185z"/>
	<path stroke="#FFFFFF" stroke-miterlimit="10" d="M39.414,35.122c0.43,1.708,0.351,3.27-0.437,4.855v-0.001
		c0.007-0.01,2.018-2.443,3.474-5.916c0.464-2.871,0.38-6.627,0.482-11.421c-0.198-0.447-0.422-0.892-0.69-1.331
		c-5.175-8.484-10.84-11.669-8.104-18.537c0,0-7.626,9.02-2.485,18.205c0.527,0.292,1.064,0.601,1.608,0.929
		C38.377,24.997,39.405,30.903,39.414,35.122z"/>
	<path stroke="#FFFFFF" stroke-miterlimit="10" d="M34.968,37.157c1.708,0.482,3.024,1.336,4.007,2.819l0,0
		c-0.003-0.01-1.105-2.968-3.385-5.966c-2.253-1.837-5.55-3.642-9.65-6.127c-0.485-0.051-0.983-0.081-1.498-0.069
		c-9.934,0.241-15.525,3.554-20.104-2.249c0,0,4,11.116,14.523,11.255c0.518-0.312,1.052-0.623,1.611-0.929
		C25.694,33.012,31.309,35.06,34.968,37.157z"/>
	<path stroke="#FFFFFF" stroke-miterlimit="10" d="M26.184,53.96c0.12-5.962,4.702-9.803,8.347-11.922
		c1.271-1.238,2.669-1.951,4.444-2.062h0c-0.008-0.001-3.114-0.524-6.844-0.051c-2.721,1.029-5.936,2.981-10.146,5.294
		c-0.288,0.396-0.562,0.811-0.809,1.263c-4.76,8.724-4.686,15.221-12.001,16.287c0,0,11.625,2.095,17.008-6.952
		C26.172,55.217,26.172,54.597,26.184,53.96z"/>
	<path stroke="#FFFFFF" stroke-miterlimit="10" d="M38.54,44.834c-0.432-1.711-0.353-3.273,0.437-4.857c0,0-2.017,2.437-3.474,5.916
		c-0.467,2.87-0.381,6.627-0.483,11.419c0.197,0.447,0.422,0.894,0.69,1.333c5.174,8.483,10.84,11.669,8.104,18.536
		c0,0,7.627-9.02,2.485-18.205c-0.528-0.292-1.065-0.601-1.609-0.929C39.577,54.957,38.548,49.052,38.54,44.834z"/>
	<path stroke="#FFFFFF" stroke-miterlimit="10" d="M42.986,42.796c-1.708-0.479-3.026-1.335-4.009-2.818c0,0,0,0,0,0
		c0.002,0.007,1.104,2.966,3.386,5.965c2.252,1.838,5.549,3.643,9.651,6.128c0.485,0.052,0.983,0.082,1.499,0.069
		c9.933-0.242,15.524-3.555,20.104,2.249c0,0-3.999-11.115-14.522-11.255c-0.519,0.311-1.053,0.621-1.61,0.928
		C52.26,46.94,46.645,44.894,42.986,42.796z"/>
	<path stroke="#FFFFFF" stroke-miterlimit="10" d="M38.975,39.976L38.975,39.976l0.002,0.001l0,0L38.975,39.976L38.975,39.976
		c-0.014-0.015-1.58-1.426-4.007-2.819c-3.659-2.097-9.273-4.145-14.497-1.266c-0.559,0.306-1.093,0.617-1.611,0.929
		c-7.545,4.539-10.957,9.192-17.266,6.35c0,0,8.861,8.198,18.378,3.138c0.7-0.37,1.364-0.732,2.013-1.088
		c4.21-2.313,7.425-4.265,10.146-5.294C34.71,38.95,36.85,38.799,38.975,39.976z"/>
	<path stroke="#FFFFFF" stroke-miterlimit="10" d="M38.977,39.978L38.977,39.978C38.977,39.978,38.977,39.978,38.977,39.978
		L38.977,39.978L38.977,39.978L38.977,39.978L38.977,39.978L38.977,39.978L38.977,39.978L38.977,39.978L38.977,39.978l-0.002-0.001
		h0c-0.02,0.007-2.024,0.657-4.444,2.062c-3.645,2.119-8.227,5.96-8.347,11.922c-0.011,0.637-0.011,1.257,0,1.858
		c0.159,8.807,2.482,14.086-3.133,18.129c0,0,11.53-3.575,11.907-14.348c0.026-0.788,0.046-1.548,0.062-2.287
		c0.103-4.792,0.016-8.55,0.483-11.419C35.946,43.163,36.889,41.231,38.977,39.978z"/>
	<path stroke="#FFFFFF" stroke-miterlimit="10" d="M38.977,39.978C38.977,39.978,38.977,39.978,38.977,39.978L38.977,39.978
		L38.977,39.978L38.977,39.978L38.977,39.978L38.977,39.978L38.977,39.978L38.977,39.978L38.977,39.978L38.977,39.978L38.977,39.978
		L38.977,39.978L38.977,39.978L38.977,39.978L38.977,39.978c-0.001,0.005-0.442,2.062-0.437,4.856
		c0.008,4.218,1.037,10.122,6.151,13.213c0.544,0.329,1.081,0.637,1.609,0.929c7.705,4.265,13.439,4.894,14.133,11.779
		c0,0,2.668-11.774-6.471-17.487c-0.669-0.417-1.318-0.815-1.948-1.197c-4.102-2.486-7.399-4.291-9.651-6.128
		C40.219,44.194,39.02,42.412,38.977,39.978z"/>
	<path stroke="#FFFFFF" stroke-miterlimit="10" d="M38.979,39.978c-0.001-0.001-0.001-0.001-0.001-0.001v0.001l0,0l0,0l0,0l0,0l0,0
		l0,0c0.006,0.006,1.576,1.424,4.009,2.818c3.659,2.098,9.274,4.145,14.497,1.267c0.557-0.307,1.092-0.617,1.61-0.928
		c7.546-4.539,10.957-9.192,17.266-6.35c0,0-8.862-8.2-18.38-3.138c-0.697,0.37-1.362,0.732-2.011,1.088
		c-4.211,2.313-7.426,4.267-10.148,5.295C43.243,41.004,41.103,41.155,38.979,39.978z"/>
	<path stroke="#FFFFFF" stroke-miterlimit="10" d="M38.977,39.977L38.977,39.977L38.977,39.977L38.977,39.977L38.977,39.977
		c0.002-0.002,2.018-0.651,4.445-2.063c3.646-2.12,8.227-5.96,8.346-11.921c0.013-0.636,0.013-1.254,0.002-1.857
		c-0.159-8.807-2.483-14.085,3.133-18.129c0,0-11.531,3.574-11.908,14.347c-0.027,0.788-0.048,1.548-0.063,2.286
		c-0.102,4.793-0.018,8.55-0.482,11.421C42.008,36.792,41.065,38.723,38.977,39.977z"/>
	<path stroke="#FFFFFF" stroke-miterlimit="10" d="M38.977,39.978c0,0,0.442-2.059,0.437-4.855
		c-0.008-4.219-1.037-10.125-6.152-13.216c-0.543-0.328-1.081-0.638-1.608-0.929c-7.705-4.266-13.44-4.894-14.134-11.778
		c0,0-2.669,11.773,6.473,17.487c0.667,0.417,1.315,0.813,1.946,1.196c4.101,2.486,7.397,4.29,9.65,6.127
		C37.733,35.759,38.934,37.541,38.977,39.978z"/>
	<circle fill="#FFFFFF" stroke="#FFFFFF" stroke-miterlimit="10" cx="38.977" cy="39.978" r="10.705"/>
	<circle fill="#58595B" stroke="#FFFFFF" stroke-miterlimit="10" cx="38.977" cy="39.978" r="5.352"/>
	<circle stroke="#FFFFFF" stroke-miterlimit="10" cx="38.977" cy="39.978" r="2.676"/>
</g>
<path fill-rule="evenodd" clip-rule="evenodd" stroke="#FFFFFF" stroke-width="2.5" stroke-miterlimit="10" d="M190.608,185.718
	c-12.84-2.733-18.583-14.699-17.513-23.276c0.141,0.187,0.255,0.299,0.324,0.435c2.301,4.533,5.752,7.966,10.184,10.377
	c8.552,4.653,19.293,3.504,26.724-2.789c2.167-1.835,4.01-3.952,5.417-6.431c0.31-0.547,0.61-1.101,0.964-1.637
	c0.275,3.596-0.195,7.078-1.614,10.397c-1.42,3.319-3.556,6.115-6.372,8.381c-2.822,2.271-6.014,3.773-9.593,4.545
	c6.051,1.385,10.9,4.494,14.23,9.734c3.327,5.235,4.249,10.932,2.891,16.985c-2.071,9.239-10.2,16.536-20.505,16.91
	c-10.375,0.377-19.168-6.2-21.897-15.785c-1.746-6.135-1.09-12.098,2.278-17.607C179.466,190.496,184.4,187.201,190.608,185.718z"/>
<g>
	<polygon points="285.66,134.899 243.384,134.899 243.384,95.276 285.152,95.276 	"/>
	<g>
		<rect x="243.26" y="95.231" width="25.04" height="50.932"/>
		<polygon points="302.094,146.164 273.243,146.164 255.71,95.231 284.562,95.231 		"/>
	</g>
	<line x1="286.737" y1="97.142" x2="259.316" y2="97.142"/>
	<g>
		<g>
			<path d="M303.869,115.508c0,11.171-9.075,20.312-20.167,20.312s-20.167-9.141-20.167-20.312c0-11.172,9.075-20.313,20.167-20.313
				S303.869,104.336,303.869,115.508z"/>
		</g>
		<g>
			<rect x="243.366" y="95.195" width="40.335" height="40.625"/>
		</g>
	</g>
	<g>
		<g>
			<g>
				<g>
					<path fill="#FFFFFF" d="M245.754,130.884v-32.96h21.153v6.925h-13.332v6.081h11.577v6.925h-11.577v6.105h13.332v6.925H245.754z
						"/>
				</g>
			</g>
			<g>
				<g>
					<polygon fill="#FFFFFF" points="285.638,98.755 277.482,98.755 288.651,130.885 296.807,130.885 					"/>
				</g>
				<g>
					<polygon fill="#FFFFFF" points="277.471,98.755 285.627,98.755 274.458,130.885 266.302,130.885 					"/>
				</g>
				<rect x="276.071" y="116.746" fill="#FFFFFF" width="12.029" height="6.351"/>
			</g>
		</g>
	</g>
	<rect x="253.208" y="123.932" fill="#FFFFFF" width="16.77" height="5.25"/>
</g>
<g>
	<g>
		<path fill-rule="evenodd" clip-rule="evenodd" fill="#FFFFFF" stroke="#FFFFFF" stroke-width="0.5" stroke-miterlimit="10" d="
			M163.511,336.277c1.598,2.441,3.253,4.895,4.83,7.398c2.567,4.075,5.932,7.291,10.117,9.669c1.984,1.128,4.748,1.861,5.691,3.579
			c0.992,1.806,0.135,4.58,0.284,6.918c0.052,0.813,0.512,1.78,1.102,2.347c2.282,2.192,4.689,4.254,7.053,6.359
			c3.338,2.973,6.679,5.943,10.019,8.914c-0.4-1.206-0.992-2.253-1.78-3.121c-2.17-2.388-3.033-5.349-3.781-8.354
			c-0.138-0.556-0.002-1.364,0.331-1.817c0.829-1.127,1.844-2.117,2.854-3.239c1.709,0.847,3.366,1.577,4.93,2.469
			c1.337,0.762,2.091,0.404,2.631-1.011c-5.789-5.167-11.565-10.322-17.341-15.479c-0.402-0.359-0.866-0.677-1.168-1.107
			c-0.187-0.266-0.121-0.708-0.168-1.071c0.419-0.05,0.907-0.257,1.243-0.112c0.472,0.204,0.834,0.664,1.236,1.022
			c5.379,4.798,10.755,9.6,16.137,14.395c0.433,0.385,0.903,0.727,1.356,1.088c0.211-0.061,0.422-0.123,0.633-0.184
			c-0.067-0.685,0.011-1.43-0.239-2.04c-0.327-0.796-0.912-1.486-1.39-2.22c-1.74-2.67-1.697-2.632,0.442-5.116
			c0.915-1.062,1.739-1.439,3.254-1.229c3.14,0.435,5.991,1.419,8.639,3.111c0.698,0.446,1.454,0.799,2.184,1.196
			c-4.693-4.764-9.724-9.039-14.482-13.597c-2.186-2.094-4.317-3.324-7.282-2.229c-3.392,1.252-5.307-0.234-7.148-3.058
			c-4.83-7.41-12.634-10.965-20.114-15.094c-0.428,0.789-0.737,1.358-1.099,2.024c11.164,6.829,20.042,15.851,27.885,26.6
			c-10.224-8.123-20.061-15.937-29.807-23.681C168.07,331.966,165.877,334.039,163.511,336.277z M214.735,371.08
			c-0.108,0.132-0.215,0.264-0.323,0.396c-1.844-1.365-3.689-2.73-6.014-4.452c0,1.827-0.301,3.19,0.054,4.355
			c1.302,4.272,4.628,6.072,8.76,7.065c3.293,0.792,6.465,2.091,9.691,3.164c0.32,0.106,0.64,0.213,0.959,0.319
			c-2.466-3.476-4.59-7.026-6.564-10.657c-1.813-3.334-4.569-5.232-8.257-5.742c-0.875-0.121-1.821,0.285-3.086,0.512
			C211.795,367.98,213.265,369.53,214.735,371.08z M168.898,324.577c0.315-0.562,0.621-1.107,0.975-1.738
			c-4.246-1.805-8.359-3.082-12.994-2.723c0.345,4.64,1.967,8.639,4.544,12.949c1.914-2.147,3.602-4.042,5.376-6.033
			c-2.281-1.753-4.659-3.581-7.037-5.409c0.099-0.165,0.196-0.331,0.295-0.496C162.915,322.241,165.771,323.356,168.898,324.577z"/>
		<path fill-rule="evenodd" clip-rule="evenodd" stroke="#FFFFFF" stroke-width="0.5" stroke-miterlimit="10" d="M166.455,336.777
			c2.366-2.238,4.559-4.312,7.051-6.667c9.747,7.744,19.583,15.558,29.807,23.681c-7.844-10.75-16.721-19.771-27.885-26.6
			c0.362-0.667,0.67-1.236,1.099-2.024c7.48,4.129,15.284,7.685,20.114,15.094c1.841,2.824,3.756,4.31,7.148,3.058
			c2.965-1.094,5.096,0.135,7.282,2.229c4.759,4.558,9.79,8.833,14.482,13.597c-0.729-0.396-1.486-0.75-2.184-1.196
			c-2.648-1.692-5.499-2.676-8.639-3.111c-1.515-0.209-2.339,0.167-3.254,1.229c-2.139,2.484-2.183,2.446-0.442,5.116
			c0.478,0.734,1.063,1.424,1.39,2.22c0.25,0.61,0.172,1.355,0.239,2.04c-0.211,0.061-0.422,0.123-0.633,0.184
			c-0.453-0.362-0.924-0.704-1.356-1.088c-5.382-4.795-10.758-9.597-16.137-14.395c-0.402-0.358-0.765-0.818-1.236-1.022
			c-0.336-0.145-0.823,0.062-1.243,0.112c0.047,0.363-0.018,0.805,0.168,1.071c0.302,0.43,0.766,0.748,1.168,1.107
			c5.775,5.157,11.552,10.313,17.341,15.479c-0.54,1.416-1.294,1.773-2.631,1.011c-1.564-0.892-3.22-1.623-4.93-2.469
			c-1.01,1.122-2.026,2.112-2.854,3.239c-0.333,0.453-0.469,1.261-0.331,1.817c0.748,3.004,1.611,5.965,3.781,8.354
			c0.789,0.868,1.38,1.916,1.78,3.121c-3.339-2.971-6.681-5.941-10.019-8.914c-2.364-2.105-4.771-4.167-7.053-6.359
			c-0.59-0.567-1.05-1.534-1.102-2.347c-0.149-2.338,0.708-5.113-0.284-6.918c-0.944-1.718-3.707-2.451-5.691-3.579
			c-4.185-2.378-7.549-5.594-10.117-9.669C169.708,341.672,168.052,339.219,166.455,336.777z"/>
		<path fill-rule="evenodd" clip-rule="evenodd" stroke="#FFFFFF" stroke-width="0.5" stroke-miterlimit="10" d="M217.679,371.58
			c-1.47-1.55-2.94-3.099-4.781-5.04c1.265-0.227,2.211-0.632,3.086-0.512c3.688,0.51,6.444,2.407,8.257,5.742
			c1.974,3.631,4.098,7.181,6.564,10.657c-0.32-0.106-0.64-0.213-0.959-0.319c-3.226-1.073-6.397-2.372-9.691-3.164
			c-4.131-0.994-7.458-2.793-8.76-7.065c-0.354-1.165-0.054-2.528-0.054-4.355c2.325,1.722,4.17,3.087,6.014,4.452
			C217.463,371.844,217.571,371.711,217.679,371.58z"/>
		<path fill-rule="evenodd" clip-rule="evenodd" stroke="#FFFFFF" stroke-width="0.5" stroke-miterlimit="10" d="M171.842,325.077
			c-3.127-1.221-5.984-2.335-8.839-3.451c-0.099,0.166-0.197,0.331-0.295,0.496c2.378,1.828,4.756,3.656,7.037,5.409
			c-1.775,1.992-3.463,3.886-5.376,6.033c-2.578-4.31-4.199-8.309-4.544-12.949c4.635-0.358,8.749,0.918,12.994,2.723
			C172.463,323.97,172.158,324.515,171.842,325.077z"/>
	</g>
</g>
<g>
	<path fill-rule="evenodd" clip-rule="evenodd" d="M142.797,422.425c-0.079-3.916-0.716-7.662-2.459-11.274
		c-5.289-10.963-16.995-16.622-28.578-14.427c-7.764,1.471-13.687,5.765-17.433,12.616c-5.044,9.228-3.981,18.415,1.327,27.222
		c1.832,3.04,3.938,5.917,5.96,8.839c3.583,5.18,7.197,10.34,10.801,15.505c0.791,1.134,1.861,1.899,3.211,2.187
		c2.421,0.516,4.196-0.524,5.611-2.409c2.281-3.037,4.652-6.008,6.853-9.101c3.548-4.988,7.051-10.011,10.452-15.1
		C141.37,432.254,142.892,427.568,142.797,422.425z"/>
	<path fill-rule="evenodd" clip-rule="evenodd" fill="#FFFFFF" d="M142.797,422.425c0.095,5.143-1.427,9.83-4.254,14.059
		c-3.401,5.088-6.904,10.111-10.452,15.1c-2.2,3.093-4.572,6.064-6.853,9.101c-1.415,1.885-3.19,2.924-5.611,2.409
		c-1.351-0.288-2.42-1.053-3.211-2.187c-3.604-5.166-7.218-10.325-10.801-15.505c-2.022-2.923-4.128-5.799-5.96-8.839
		c-5.308-8.808-6.371-17.995-1.327-27.222c3.746-6.851,9.668-11.145,17.433-12.616c11.583-2.194,23.289,3.464,28.578,14.427
		C142.081,414.763,142.718,418.509,142.797,422.425z M91.866,421.222c0.111,1.016,0.22,2.032,0.335,3.047
		c0.496,4.343,1.763,8.421,4.183,12.097c1.791,2.72,3.56,5.456,5.407,8.138c3.694,5.363,7.392,10.725,11.175,16.026
		c1.86,2.607,4.897,2.686,6.995,0.239c1.647-1.921,3.241-3.9,4.704-5.963c4.309-6.076,8.581-12.179,12.79-18.324
		c2.65-3.869,4.091-8.205,4.175-12.9c0.141-7.951-2.782-14.635-8.869-19.763c-5.714-4.814-12.38-6.686-19.806-5.627
		c-8.294,1.183-14.155,5.967-18.397,12.875C92.688,414.113,92.057,417.633,91.866,421.222z"/>
	<path fill-rule="evenodd" clip-rule="evenodd" d="M91.866,421.222c0.19-3.588,0.822-7.109,2.692-10.154
		c4.243-6.908,10.103-11.693,18.397-12.875c7.425-1.059,14.091,0.813,19.806,5.627c6.087,5.127,9.01,11.812,8.869,19.763
		c-0.084,4.695-1.525,9.031-4.175,12.9c-4.209,6.145-8.48,12.248-12.79,18.324c-1.463,2.063-3.057,4.042-4.704,5.963
		c-2.098,2.446-5.134,2.368-6.995-0.239c-3.783-5.301-7.481-10.663-11.175-16.026c-1.847-2.682-3.616-5.417-5.407-8.138
		c-2.42-3.676-3.688-7.754-4.183-12.097C92.086,423.253,91.978,422.237,91.866,421.222z M112.845,441.226
		c1.093,0.073,1.502-0.143,1.401-0.87c-0.242-1.75-0.388-3.54-0.879-5.224c-2.214-7.589-9.912-13.506-17.735-13.788
		c-0.786-0.029-1.082,0.336-1.007,1.013c0.157,1.438,0.26,2.896,0.595,4.296C96.974,433.98,103.92,440.606,112.845,441.226z
		 M137.677,422.408c-0.002-0.02-0.004-0.039-0.007-0.058c-1.046,0.12-2.107,0.164-3.136,0.372c-4.106,0.83-7.564,2.776-10.403,5.908
		c-3.048,3.362-4.582,7.293-4.905,11.765c-0.049,0.672,0.244,1.005,0.878,0.932c1.785-0.206,3.596-0.32,5.337-0.726
		c2.183-0.51,4.054-1.678,5.9-2.997c2.557-1.827,4.482-4.048,5.756-6.887c1.063-2.368,2.102-4.728,2.07-7.412
		c-0.008-0.682-0.202-0.96-0.859-0.929C138.098,422.385,137.888,422.396,137.677,422.408z M121.347,454.994
		c-1.25-0.421-2.349-0.936-3.503-1.137c-0.965-0.167-2.004-0.038-2.993,0.089c-0.817,0.105-1.612,0.391-2.413,0.612
		c-0.184,0.051-0.452,0.131-0.497,0.262c-0.051,0.147,0.06,0.491,0.179,0.534c0.592,0.215,1.204,0.483,1.817,0.505
		c1.493,0.053,2.991-0.041,4.487-0.029c0.564,0.004,1.129,0.193,1.693,0.191C120.823,456.021,121.286,455.657,121.347,454.994z
		 M119.802,447.421c0.01-0.571-0.339-0.892-0.771-0.574c-0.726,0.534-1.398,1.188-1.941,1.906c-0.316,0.418,0.176,0.938,0.737,0.874
		C118.714,449.525,119.786,448.327,119.802,447.421z M116.663,448.682c-0.442-0.537-0.848-1.111-1.345-1.59
		c-0.171-0.166-0.783-0.205-0.832-0.111c-0.214,0.405-0.541,1.05-0.373,1.295c0.351,0.509,0.948,0.902,1.522,1.185
		C116.12,449.7,116.521,449.463,116.663,448.682z"/>
	<path fill-rule="evenodd" clip-rule="evenodd" fill="#FFFFFF" d="M112.845,441.226c-8.925-0.62-15.871-7.245-17.625-14.572
		c-0.335-1.4-0.438-2.858-0.595-4.296c-0.074-0.677,0.222-1.042,1.007-1.013c7.823,0.282,15.521,6.199,17.735,13.788
		c0.492,1.684,0.637,3.474,0.879,5.224C114.347,441.083,113.938,441.299,112.845,441.226z"/>
	<path fill-rule="evenodd" clip-rule="evenodd" fill="#FFFFFF" d="M137.677,422.408c0.211-0.011,0.421-0.023,0.632-0.033
		c0.657-0.031,0.851,0.247,0.859,0.929c0.032,2.684-1.007,5.044-2.07,7.412c-1.274,2.839-3.199,5.06-5.756,6.887
		c-1.846,1.319-3.718,2.487-5.9,2.997c-1.741,0.406-3.552,0.521-5.337,0.726c-0.634,0.073-0.927-0.26-0.878-0.932
		c0.324-4.471,1.857-8.403,4.905-11.765c2.839-3.131,6.297-5.078,10.403-5.908c1.028-0.208,2.09-0.252,3.136-0.372
		C137.672,422.369,137.675,422.388,137.677,422.408z"/>
	<path fill-rule="evenodd" clip-rule="evenodd" fill="#FFFFFF" d="M121.347,454.994c-0.061,0.663-0.524,1.026-1.229,1.027
		c-0.564,0.001-1.128-0.187-1.693-0.191c-1.496-0.011-2.994,0.083-4.487,0.029c-0.613-0.022-1.226-0.29-1.817-0.505
		c-0.119-0.043-0.23-0.387-0.179-0.534c0.045-0.13,0.313-0.211,0.497-0.262c0.8-0.222,1.595-0.507,2.413-0.612
		c0.989-0.126,2.028-0.256,2.993-0.089C118.998,454.059,120.098,454.573,121.347,454.994z"/>
	<path fill-rule="evenodd" clip-rule="evenodd" fill="#FFFFFF" d="M119.802,447.421c-0.016,0.906-1.088,2.104-1.975,2.206
		c-0.561,0.064-1.053-0.456-0.737-0.874c0.543-0.718,1.215-1.373,1.941-1.906C119.463,446.53,119.812,446.851,119.802,447.421z"/>
	<path fill-rule="evenodd" clip-rule="evenodd" fill="#FFFFFF" d="M116.663,448.682c-0.143,0.781-0.543,1.018-1.027,0.779
		c-0.574-0.283-1.172-0.676-1.522-1.185c-0.168-0.245,0.158-0.891,0.373-1.295c0.049-0.094,0.661-0.055,0.832,0.111
		C115.815,447.571,116.221,448.145,116.663,448.682z"/>
</g>
<g>
	<path fill-rule="evenodd" clip-rule="evenodd" stroke="#FFFFFF" stroke-width="2.5" stroke-miterlimit="10" d="M310.039,306.057
		c-12.442-21.548-24.782-42.92-37.209-64.444c-12.435,21.541-24.782,42.931-37.2,64.444
		C260.492,306.057,285.147,306.057,310.039,306.057z"/>
	<path fill-rule="evenodd" clip-rule="evenodd" stroke="#FFFFFF" stroke-miterlimit="10" d="M310.039,306.057
		c-24.892,0-49.547,0-74.41,0c12.418-21.513,24.766-42.903,37.2-64.444C285.257,263.137,297.597,284.509,310.039,306.057z
		 M294.372,284.937c-0.265,0.229-0.454,0.378-0.626,0.545c-2.753,2.646-5.82,4.862-9.219,6.595
		c-5.165,2.634-10.591,3.719-16.35,2.536c-4.396-0.903-8.285-2.933-11.877-5.546c-1.721-1.251-3.338-2.646-5.071-4.029
		c-3.438,5.962-6.877,11.929-10.378,18.001c21.403,0,42.623,0,63.976,0C301.323,296.974,297.874,291.002,294.372,284.937z
		 M255.067,278.405c11.868-8.941,23.65-9.014,35.5-0.047c-5.89-10.208-11.781-20.417-17.734-30.734
		C266.842,258.003,260.955,268.204,255.067,278.405z M281.2,283.497c0.016-4.798-3.718-8.596-8.561-8.495
		c-4.462,0.092-8.157,3.61-8.208,8.399c-0.05,4.622,3.826,8.374,8.552,8.385C277.425,291.796,281.185,288.003,281.2,283.497z
		 M254.151,283.33c2.068,2.493,9.021,6.923,11.353,7.241c-4.103-4.453-3.634-10.594,0.221-14.582
		C261.224,277.708,257.485,280.192,254.151,283.33z M280.006,276.042c3.932,4.462,3.969,8.713,0.298,14.481
		c2.754-0.608,9.257-4.759,11.239-7.195C288.213,280.234,284.485,277.771,280.006,276.042z"/>
	<path fill-rule="evenodd" clip-rule="evenodd" fill="#FFFFFF" d="M281.2,283.497c-0.016,4.506-3.775,8.299-8.217,8.289
		c-4.727-0.011-8.603-3.763-8.552-8.385c0.052-4.789,3.746-8.308,8.208-8.399C277.482,274.901,281.216,278.699,281.2,283.497z
		 M278.146,283.463c0.031-3.021-2.297-5.343-5.413-5.399c-2.719-0.049-5.196,2.416-5.237,5.211
		c-0.045,3.013,2.393,5.437,5.484,5.453C275.75,288.743,278.116,286.332,278.146,283.463z"/>
	<path fill-rule="evenodd" clip-rule="evenodd" fill="#FFFFFF" stroke="#000000" stroke-miterlimit="10" d="M254.151,283.33
		c3.333-3.138,7.073-5.622,11.574-7.341c-3.854,3.988-4.323,10.129-0.221,14.582C263.172,290.253,256.22,285.823,254.151,283.33z"/>
	<path fill-rule="evenodd" clip-rule="evenodd" fill="#FFFFFF" stroke="#000000" stroke-miterlimit="10" d="M280.006,276.042
		c4.479,1.729,8.207,4.192,11.537,7.287c-1.982,2.436-8.485,6.586-11.239,7.195C283.976,284.755,283.938,280.504,280.006,276.042z"
		/>
	<path fill-rule="evenodd" clip-rule="evenodd" stroke="#FFFFFF" stroke-miterlimit="10" d="M278.146,283.463
		c-0.03,2.869-2.396,5.28-5.166,5.265c-3.091-0.017-5.529-2.44-5.484-5.453c0.042-2.795,2.519-5.26,5.237-5.211
		C275.848,278.12,278.177,280.442,278.146,283.463z M275.786,280.634c-0.071-0.618-0.448-1.031-1.108-1.037
		c-0.662-0.006-1.073,0.391-1.113,1.072c-0.038,0.648,0.499,1.182,1.141,1.141C275.39,281.766,275.725,281.352,275.786,280.634z"/>
	<path fill-rule="evenodd" clip-rule="evenodd" fill="#FFFFFF" d="M275.786,280.634c-0.062,0.718-0.396,1.132-1.081,1.176
		c-0.642,0.041-1.178-0.493-1.141-1.141c0.04-0.681,0.451-1.078,1.113-1.072C275.338,279.603,275.715,280.016,275.786,280.634z"/>
</g>
<path stroke="#FFFFFF" stroke-miterlimit="10" d="M137.046,276.993c7.546-4.539,10.957-9.192,17.266-6.351
	c0,0-8.862-8.199-18.38-3.138c-0.697,0.37-1.362,0.732-2.011,1.088c0.288-0.395,0.562-0.811,0.809-1.262
	c4.76-8.725,4.685-15.224,12-16.287c0,0-11.624-2.096-17.008,6.951c-0.159-8.807-2.482-14.086,3.133-18.129
	c0,0-11.531,3.574-11.908,14.347c-0.027,0.788-0.048,1.548-0.063,2.286c-0.198-0.447-0.421-0.892-0.69-1.331
	c-5.175-8.485-10.84-11.669-8.104-18.537c0,0-7.626,9.02-2.485,18.205c-7.704-4.266-13.439-4.894-14.134-11.778
	c0,0-2.669,11.773,6.473,17.486c0.667,0.417,1.315,0.813,1.947,1.197c-0.485-0.051-0.983-0.081-1.499-0.069
	c-9.934,0.24-15.525,3.554-20.104-2.249c0,0,3.999,11.115,14.522,11.255c-7.545,4.539-10.957,9.192-17.266,6.35
	c0,0,8.861,8.199,18.378,3.138c0.7-0.37,1.364-0.732,2.013-1.088c-0.288,0.396-0.562,0.811-0.809,1.263
	c-4.76,8.724-4.686,15.221-12.001,16.287c0,0,11.625,2.095,17.009-6.952c0.159,8.807,2.482,14.085-3.133,18.129
	c0,0,11.53-3.575,11.907-14.348c0.027-0.788,0.046-1.548,0.062-2.287c0.197,0.447,0.423,0.894,0.69,1.333
	c5.174,8.482,10.84,11.669,8.104,18.536c0,0,7.626-9.02,2.485-18.205c7.705,4.265,13.439,4.894,14.133,11.779
	c0,0,2.668-11.775-6.472-17.487c-0.669-0.417-1.317-0.815-1.948-1.197c0.485,0.052,0.983,0.082,1.499,0.069
	c9.933-0.242,15.524-3.556,20.104,2.249C151.568,288.248,147.569,277.133,137.046,276.993z"/>
<path fill-rule="evenodd" clip-rule="evenodd" stroke="#FFFFFF" stroke-width="2.5" stroke-miterlimit="10" d="M268.561,419.576
	c-12.839-2.732-18.583-14.698-17.513-23.276c0.141,0.187,0.255,0.299,0.324,0.435c2.301,4.533,5.752,7.966,10.183,10.377
	c8.552,4.653,19.293,3.504,26.724-2.789c2.167-1.835,4.01-3.952,5.417-6.431c0.311-0.547,0.61-1.101,0.965-1.636
	c0.275,3.596-0.196,7.078-1.615,10.396c-1.42,3.32-3.556,6.115-6.372,8.381c-2.822,2.271-6.014,3.773-9.593,4.545
	c6.051,1.385,10.9,4.494,14.23,9.734c3.327,5.236,4.249,10.932,2.891,16.986c-2.071,9.239-10.2,16.536-20.505,16.91
	c-10.375,0.377-19.168-6.2-21.897-15.785c-1.746-6.135-1.091-12.098,2.277-17.607C257.419,424.354,262.354,421.06,268.561,419.576z"
	/>
<g>
	<polygon points="51.803,368.757 9.527,368.757 9.527,329.134 51.295,329.134 	"/>
	<g>
		<rect x="9.402" y="329.089" width="25.04" height="50.933"/>
		<polygon points="68.236,380.022 39.386,380.022 21.853,329.089 50.704,329.089 		"/>
	</g>
	<line x1="52.88" y1="331" x2="25.459" y2="331"/>
	<g>
		<g>
			<path d="M70.012,349.366c0,11.171-9.075,20.312-20.167,20.312s-20.167-9.141-20.167-20.312c0-11.172,9.075-20.313,20.167-20.313
				S70.012,338.194,70.012,349.366z"/>
		</g>
		<g>
			<rect x="9.509" y="329.054" width="40.335" height="40.625"/>
		</g>
	</g>
	<g>
		<g>
			<g>
				<g>
					<path fill="#FFFFFF" d="M11.897,364.742v-32.96h21.153v6.925H19.719v6.081h11.577v6.925H19.719v6.105h13.332v6.925H11.897z"/>
				</g>
			</g>
			<g>
				<g>
					<polygon fill="#FFFFFF" points="51.781,332.613 43.625,332.613 54.794,364.743 62.95,364.743 					"/>
				</g>
				<g>
					<polygon fill="#FFFFFF" points="43.614,332.613 51.77,332.613 40.601,364.743 32.445,364.743 					"/>
				</g>
				<rect x="42.214" y="350.604" fill="#FFFFFF" width="12.03" height="6.351"/>
			</g>
		</g>
	</g>
	<rect x="19.351" y="357.791" fill="#FFFFFF" width="16.77" height="5.25"/>
</g>
<g>
	<polygon stroke="#FFFFFF" stroke-miterlimit="10" points="116.93,273.836 116.93,273.836 116.93,273.836 	"/>
	<rect x="116.93" y="273.836" stroke="#FFFFFF" stroke-miterlimit="10" width="0" height="0"/>
	<polygon stroke="#FFFFFF" stroke-miterlimit="10" points="116.93,273.836 116.93,273.836 116.93,273.836 	"/>
	<polygon stroke="#FFFFFF" stroke-miterlimit="10" points="116.93,273.836 116.93,273.836 116.93,273.836 	"/>
	<rect x="116.93" y="273.836" stroke="#FFFFFF" stroke-miterlimit="10" width="0" height="0"/>
	<rect x="116.93" y="273.836" stroke="#FFFFFF" stroke-miterlimit="10" width="0" height="0"/>
	<polygon stroke="#FFFFFF" stroke-miterlimit="10" points="116.93,273.836 116.93,273.836 116.93,273.836 	"/>
	<rect x="116.927" y="273.835" stroke="#FFFFFF" stroke-miterlimit="10" width="0.003" height="0"/>
	<polygon stroke="#FFFFFF" stroke-miterlimit="10" points="116.929,273.836 116.93,273.836 116.929,273.836 	"/>
	<polygon stroke="#FFFFFF" stroke-miterlimit="10" points="116.93,273.836 116.93,273.836 116.93,273.836 	"/>
	<rect x="116.93" y="273.836" stroke="#FFFFFF" stroke-miterlimit="10" width="0" height="0"/>
	<polygon stroke="#FFFFFF" stroke-miterlimit="10" points="116.93,273.836 116.93,273.836 116.93,273.836 116.93,273.836 
		116.93,273.836 116.93,273.836 	"/>
	<circle fill="#FFFFFF" stroke="#FFFFFF" stroke-miterlimit="10" cx="116.93" cy="273.836" r="10.705"/>
	<circle fill="#58595B" stroke="#FFFFFF" stroke-miterlimit="10" cx="116.93" cy="273.836" r="5.352"/>
	<circle stroke="#FFFFFF" stroke-miterlimit="10" cx="116.93" cy="273.836" r="2.676"/>
</g>
<path stroke="#FFFFFF" stroke-miterlimit="10" d="M59.046,42.993c7.546-4.539,10.957-9.192,17.266-6.351
	c0,0-8.862-8.199-18.38-3.138c-0.697,0.37-1.362,0.732-2.011,1.088c0.288-0.395,0.562-0.811,0.809-1.262
	c4.76-8.725,4.685-15.224,12-16.287c0,0-11.624-2.096-17.008,6.951c-0.159-8.807-2.482-14.086,3.133-18.129
	c0,0-11.531,3.574-11.908,14.347C42.921,21,42.9,21.76,42.885,22.499c-0.198-0.447-0.421-0.892-0.69-1.331
	c-5.175-8.485-10.84-11.669-8.104-18.537c0,0-7.626,9.02-2.485,18.205c-7.704-4.266-13.439-4.894-14.134-11.778
	c0,0-2.669,11.773,6.473,17.486c0.667,0.417,1.315,0.813,1.947,1.197c-0.485-0.051-0.983-0.081-1.499-0.069
	c-9.934,0.24-15.525,3.554-20.104-2.249c0,0,3.999,11.115,14.522,11.255c-7.545,4.539-10.957,9.192-17.266,6.35
	c0,0,8.861,8.199,18.378,3.138c0.7-0.37,1.364-0.732,2.013-1.088c-0.288,0.396-0.562,0.811-0.809,1.263
	c-4.76,8.724-4.686,15.221-12.001,16.287c0,0,11.625,2.095,17.009-6.952c0.159,8.807,2.482,14.085-3.133,18.129
	c0,0,11.53-3.575,11.907-14.348c0.027-0.788,0.046-1.548,0.062-2.287c0.197,0.447,0.423,0.894,0.69,1.333
	c5.174,8.482,10.84,11.669,8.104,18.536c0,0,7.626-9.02,2.485-18.205c7.705,4.265,13.439,4.894,14.133,11.779
	c0,0,2.668-11.775-6.472-17.487c-0.669-0.417-1.317-0.815-1.948-1.197c0.485,0.052,0.983,0.082,1.499,0.069
	c9.933-0.242,15.524-3.556,20.104,2.249C73.568,54.248,69.569,43.133,59.046,42.993z"/>
<g>
	<polygon stroke="#FFFFFF" stroke-miterlimit="10" points="38.93,39.836 38.93,39.836 38.93,39.836 	"/>
	<rect x="38.93" y="39.836" stroke="#FFFFFF" stroke-miterlimit="10" width="0" height="0"/>
	<polygon stroke="#FFFFFF" stroke-miterlimit="10" points="38.93,39.836 38.93,39.836 38.93,39.836 	"/>
	<polygon stroke="#FFFFFF" stroke-miterlimit="10" points="38.93,39.836 38.93,39.836 38.93,39.836 	"/>
	<rect x="38.93" y="39.836" stroke="#FFFFFF" stroke-miterlimit="10" width="0" height="0"/>
	<rect x="38.93" y="39.836" stroke="#FFFFFF" stroke-miterlimit="10" width="0" height="0"/>
	<polygon stroke="#FFFFFF" stroke-miterlimit="10" points="38.93,39.836 38.93,39.836 38.93,39.836 	"/>
	<rect x="38.927" y="39.835" stroke="#FFFFFF" stroke-miterlimit="10" width="0.003" height="0"/>
	<polygon stroke="#FFFFFF" stroke-miterlimit="10" points="38.929,39.836 38.93,39.836 38.929,39.836 	"/>
	<polygon stroke="#FFFFFF" stroke-miterlimit="10" points="38.93,39.836 38.93,39.836 38.93,39.836 	"/>
	<rect x="38.93" y="39.836" stroke="#FFFFFF" stroke-miterlimit="10" width="0" height="0"/>
	<polygon stroke="#FFFFFF" stroke-miterlimit="10" points="38.93,39.836 38.93,39.836 38.93,39.836 38.93,39.836 38.93,39.836 
		38.93,39.836 	"/>
	<circle fill="#FFFFFF" stroke="#FFFFFF" stroke-miterlimit="10" cx="38.93" cy="39.836" r="10.705"/>
	<circle fill="#58595B" stroke="#FFFFFF" stroke-miterlimit="10" cx="38.93" cy="39.836" r="5.352"/>
	<circle stroke="#FFFFFF" stroke-miterlimit="10" cx="38.93" cy="39.836" r="2.676"/>
</g>
<rect x="-4.774" y="-8.643" opacity="0.96" fill-rule="evenodd" clip-rule="evenodd" width="321.358" height="483.001"/>
</svg>
