<?xml version="1.0" encoding="utf-8"?>
<!-- Generator: Adobe Illustrator 16.0.0, SVG Export Plug-In . SVG Version: 6.00 Build 0)  -->
<!DOCTYPE svg PUBLIC "-//W3C//DTD SVG 1.1//EN" "http://www.w3.org/Graphics/SVG/1.1/DTD/svg11.dtd">
<svg version="1.1" id="Layer_1" xmlns="http://www.w3.org/2000/svg" xmlns:xlink="http://www.w3.org/1999/xlink" x="0px" y="0px"
	 width="391.332px" height="106px" viewBox="0 0 391.332 106" enable-background="new 0 0 391.332 106" xml:space="preserve">
<g>
	<line x1="100.617" y1="19.223" x2="53.636" y2="19.223"/>
	<g>
		<g>
			<g>
				<defs>
					<polygon id="SVGID_1_" points="123.548,103.352 2.176,103.352 2.176,2.647 123.548,3.083 					"/>
				</defs>
				<clipPath id="SVGID_2_">
					<use xlink:href="#SVGID_1_"  overflow="visible"/>
				</clipPath>
				<g clip-path="url(#SVGID_2_)">
					<polygon points="84.257,79.684 64.234,79.684 55.798,70.977 48.927,79.684 4.674,79.684 4.674,2.917 84.257,2.917 					"/>
					<g>
						
							<text transform="matrix(0.906 0 0 1 0 71.1753)" fill="#FFFFFF" font-family="'MavenProBlack'" font-size="94.5472" letter-spacing="-7.726">EA</text>
					</g>
					<polygon fill="#001E5B" points="69.913,113.88 122.009,113.88 81.88,3.083 2.176,2.917 2.176,112.238 57.445,112.238 
						57.445,108.163 55.449,108.163 55.449,72.09 55.449,71.996 55.449,71.906 55.468,71.957 55.568,72.227 68.826,108.163 
						67.824,108.163 					"/>
				</g>
			</g>
			<g>
				<path fill="#001E5B" d="M81.145,2.904c-20.928-0.099-38.05,4.189-38.05,9.529s0,14.077,0,19.416c0,5.339,0,14.077,0,19.416
					c0,5.339,0,13.684,0,18.545c0,4.86,0.69,8.837,1.534,8.837c0.843,0,2.224,0,3.066,0c0.844,0,2.225,0,3.067,0s2.224,0,3.067,0
					c0.843,0,1.533-0.085,1.533-0.189s0-0.667,0-1.25c0-0.583,0-1.537,0-2.12s0-1.42,0-1.861c0-0.44,0-0.838,0-0.884
					c0-0.046,0-0.261,0-0.477s0.704,1.221,1.564,3.194c0.86,1.974,15.223,3.588,31.916,3.588c16.692,0,30.351-17.002,30.351-37.781
					C119.195,20.084,102.073,3.002,81.145,2.904z"/>
			</g>
		</g>
		<g>
			
				<text transform="matrix(0.906 0 0 1 0 71.1748)" fill="#FFFFFF" font-family="'MavenProBlack'" font-size="94.5472" letter-spacing="-7.726">EA</text>
		</g>
	</g>
</g>
<text transform="matrix(1 0 0 1 137.2329 34.0083)"><tspan x="0" y="0" font-family="'Prime-Regular'" font-size="42">EVERT A. </tspan><tspan x="0" y="48" stroke="#000000" stroke-width="3" stroke-miterlimit="10" font-family="'Prime-Regular'" font-size="56">Robles</tspan></text>
<rect x="369.176" y="2.647" fill="none" width="40.919" height="100.705"/>
<text transform="matrix(1 0 0 1 370.2388 21.9521)"><tspan x="0" y="0" fill="#7E8083" font-family="'Prime-Regular'" font-size="25.8327">A</tspan><tspan x="1.305" y="30.8" fill="#7E8083" font-family="'Prime-Regular'" font-size="25.8327">R</tspan><tspan x="2.157" y="61.601" fill="#7E8083" font-family="'Prime-Regular'" font-size="25.8327">T</tspan></text>
</svg>
