<?xml version="1.0" encoding="utf-8"?>
<!-- Generator: Adobe Illustrator 16.0.0, SVG Export Plug-In . SVG Version: 6.00 Build 0)  -->
<!DOCTYPE svg PUBLIC "-//W3C//DTD SVG 1.1//EN" "http://www.w3.org/Graphics/SVG/1.1/DTD/svg11.dtd">
<svg version="1.1" id="Layer_1" xmlns="http://www.w3.org/2000/svg" xmlns:xlink="http://www.w3.org/1999/xlink" x="0px" y="0px"
	 width="351.754px" height="106px" viewBox="0 0 351.754 106" enable-background="new 0 0 351.754 106" xml:space="preserve">
<g>
	<line x1="100.617" y1="19.253" x2="53.636" y2="19.253"/>
	<g>
		<g>
			<g>
				<defs>
					<polygon id="SVGID_1_" points="123.548,103.383 2.176,103.383 2.176,2.678 123.548,3.114 					"/>
				</defs>
				<clipPath id="SVGID_2_">
					<use xlink:href="#SVGID_1_"  overflow="visible"/>
				</clipPath>
				<g clip-path="url(#SVGID_2_)">
					<polygon points="84.257,79.714 64.234,79.714 55.798,71.007 48.927,79.714 4.674,79.714 4.674,2.947 84.257,2.947 					"/>
					<g>
						
							<text transform="matrix(0.906 0 0 1 0 71.2056)" fill="#FFFFFF" font-family="'MavenProBlack'" font-size="94.5472" letter-spacing="-7.726">EA</text>
					</g>
					<polygon points="69.913,113.911 122.009,113.911 81.88,3.114 2.176,2.947 2.176,112.269 57.445,112.269 57.445,108.194 
						55.449,108.194 55.449,72.121 55.449,72.026 55.449,71.937 55.468,71.988 55.568,72.257 68.826,108.194 67.824,108.194 					
						"/>
				</g>
			</g>
			<g>
				<path d="M81.145,2.935c-20.927-0.099-38.05,4.189-38.05,9.529s0,14.077,0,19.416c0,5.339,0,14.076,0,19.415
					c0,5.339,0,13.685,0,18.545s0.69,8.837,1.534,8.837s2.224,0,3.067,0s2.224,0,3.067,0s2.223,0,3.067,0s1.534-0.085,1.534-0.189
					s0-0.667,0-1.25s0-1.537,0-2.12s0-1.42,0-1.861c0-0.441,0-0.839,0-0.885c0-0.045,0-0.26,0-0.477s0.704,1.221,1.564,3.194
					s15.223,3.587,31.916,3.587s30.351-17.001,30.351-37.781S102.072,3.033,81.145,2.935z"/>
			</g>
		</g>
		<g>
			
				<text transform="matrix(0.906 0 0 1 0 71.2056)" fill="#FFFFFF" font-family="'MavenProBlack'" font-size="94.5472" letter-spacing="-7.726">EA</text>
		</g>
	</g>
</g>
<text transform="matrix(1 0 0 1 137.2329 34.0396)"><tspan x="0" y="0" font-family="'Prime-Regular'" font-size="42">EVERT A. </tspan><tspan x="0" y="48" stroke="#000000" stroke-width="3" stroke-miterlimit="10" font-family="'Prime-Regular'" font-size="56">Robles</tspan></text>
</svg>
