<?xml version="1.0" encoding="utf-8"?>
<!-- Generator: Adobe Illustrator 16.0.0, SVG Export Plug-In . SVG Version: 6.00 Build 0)  -->
<!DOCTYPE svg PUBLIC "-//W3C//DTD SVG 1.1//EN" "http://www.w3.org/Graphics/SVG/1.1/DTD/svg11.dtd">
<svg version="1.1" id="Layer_1" xmlns="http://www.w3.org/2000/svg" xmlns:xlink="http://www.w3.org/1999/xlink" x="0px" y="0px"
	 width="313.895px" height="79.994px" viewBox="15.543 12.984 313.895 79.994"
	 enable-background="new 15.543 12.984 313.895 79.994" xml:space="preserve">
<g>
	<line fill="none" x1="94.179" y1="26.018" x2="56.649" y2="26.018"/>
	<g>
		<g>
			<g>
				<g>
					<defs>
						<polygon id="SVGID_1_" points="112.497,93.223 15.541,93.223 15.541,12.777 112.497,13.125 						"/>
					</defs>
					<clipPath id="SVGID_2_">
						<use xlink:href="#SVGID_1_"  overflow="visible"/>
					</clipPath>
					<g clip-path="url(#SVGID_2_)">
						<polygon points="81.11,74.316 65.115,74.316 58.376,67.361 52.887,74.316 17.536,74.316 17.536,12.993 81.11,12.993 						"/>
						<g>
							
								<text transform="matrix(0.906 0 0 1 13.803 67.5195)" fill="#FFFFFF" font-family="'MavenProBlack'" font-size="75.5273" letter-spacing="-5.519">EA</text>
						</g>
						<polygon fill="#001E5B" points="69.652,101.633 111.267,101.633 79.212,13.125 15.541,12.993 15.541,100.32 59.691,100.32 
							59.691,97.064 58.097,97.064 58.097,68.25 58.097,68.175 58.097,68.104 58.112,68.145 58.192,68.359 68.783,97.064 
							67.983,97.064 						"/>
					</g>
				</g>
			</g>
			<g>
				<path fill="#001E5B" d="M78.624,12.981c-16.718-0.078-30.396,3.348-30.396,7.613s0,11.245,0,15.51s0,11.245,0,15.51
					s0,10.933,0,14.816c0,3.882,0.551,7.058,1.225,7.058s1.776,0,2.449,0c0.675,0,1.778,0,2.451,0c0.672,0,1.776,0,2.45,0
					c0.673,0,1.224-0.068,1.224-0.15c0-0.086,0-0.533,0-1c0-0.465,0-1.228,0-1.693c0-0.465,0-1.133,0-1.485c0-0.351,0-0.669,0-0.706
					s0-0.209,0-0.381s0.562,0.975,1.25,2.551c0.687,1.578,12.16,2.867,25.495,2.867c13.334,0,24.245-13.582,24.245-30.181
					C109.019,26.706,95.342,13.06,78.624,12.981z"/>
			</g>
		</g>
		<g>
			<g enable-background="new    ">
				<path fill="#FFFFFF" d="M19.75,67.52V17.144h31.808v10.584H31.511v9.293h17.408v10.584H31.511v9.331h20.047V67.52H19.75z"/>
				<path fill="#FFFFFF" d="M51.963,67.52l18.143-50.376h11.093L99.308,67.52H86.645l-3.542-12.096H68.168L64.627,67.52H51.963z
					 M70.975,45.835h9.255l-4.577-15.637L70.975,45.835z"/>
			</g>
		</g>
	</g>
</g>
<g enable-background="new    ">
	<path fill="#D8D9DA" d="M129.766,23.695v7.819c0.412-0.494,1.152-0.823,2.017-0.823h13.54v3.004c0,0.288-0.247,0.535-0.535,0.535
		h-15.021v7.037c0,1.729,1.399,3.128,3.128,3.128h13.333c0.288,0,0.535,0.247,0.535,0.535v3.004h-13.868
		c-3.869,0-6.996-3.127-6.996-6.996V24.024c0-3.869,3.127-6.996,6.996-6.996h13.868v3.004c0,0.288-0.247,0.535-0.535,0.535h-13.333
		C131.165,20.567,129.766,21.967,129.766,23.695z"/>
	<path fill="#D8D9DA" d="M170.626,17.522c0.124-0.247,0.412-0.494,0.7-0.494h3.58l-10.7,30.371c-0.082,0.288-0.412,0.535-0.7,0.535
		h-3.251c-0.288,0-0.617-0.247-0.7-0.535l-10.7-30.371h3.581c0.288,0,0.617,0.247,0.7,0.494l8.765,25.186L170.626,17.522z"/>
	<path fill="#D8D9DA" d="M181.692,23.695v7.819c0.411-0.494,1.152-0.823,2.017-0.823h13.539v3.004c0,0.288-0.247,0.535-0.535,0.535
		h-15.021v7.037c0,1.729,1.398,3.128,3.127,3.128h13.334c0.288,0,0.535,0.247,0.535,0.535v3.004h-13.869
		c-3.868,0-6.996-3.127-6.996-6.996V24.024c0-3.869,3.128-6.996,6.996-6.996h13.869v3.004c0,0.288-0.247,0.535-0.535,0.535h-13.334
		C183.09,20.567,181.692,21.967,181.692,23.695z"/>
	<path fill="#D8D9DA" d="M206.338,33.119v14.28c0,0.288-0.247,0.535-0.535,0.535h-3.334V19.415c0-1.317,1.07-2.387,2.388-2.387
		h12.922c3.868,0,6.996,2.428,6.996,6.625v3.992c0,3.622-2.593,5.597-5.597,6.379l6.584,13.91h-3.58
		c-0.288,0-0.617-0.247-0.741-0.494l-6.255-13.21h-5.268h-1.193c-1.152,0-2.017-0.329-2.305-1.111H206.338z M217.779,30.691
		c1.729,0,3.127-1.399,3.127-3.127v-3.869c0-1.728-1.398-3.127-3.127-3.127h-10.659c-0.452,0-0.781,0.37-0.781,0.782v8.56
		c0,0.453,0.37,0.782,0.781,0.782H217.779z"/>
	<path fill="#D8D9DA" d="M249.749,17.028v3.004c0,0.288-0.247,0.535-0.535,0.535h-8.807v26.832c0,0.288-0.205,0.535-0.535,0.535
		h-3.333V20.567h-9.218v-3.004c0-0.288,0.246-0.535,0.534-0.535H249.749z"/>
	<path fill="#D8D9DA" d="M296.039,47.934h-3.375c-0.37,0-0.658-0.247-0.741-0.535l-2.757-7.942h-15.721l-2.757,7.942
		c-0.082,0.288-0.412,0.535-0.741,0.535h-3.374l10.041-28.601c0.494-1.358,1.77-2.305,3.251-2.305h4.897
		c0.206,0,0.411,0.124,0.494,0.288L296.039,47.934z M287.932,35.917l-5.35-15.35h-2.017c-0.329,0-0.617,0.206-0.741,0.535
		l-5.144,14.815H287.932z"/>
	<path fill="#D8D9DA" d="M299.242,47.358v-3.292h3.252c0.329,0,0.576,0.288,0.576,0.617v3.251h-3.252
		C299.49,47.934,299.242,47.646,299.242,47.358z"/>
</g>
<g enable-background="new    ">
	<path fill="#D8D9DA" d="M131.876,73.23v19.035c0,0.384-0.329,0.713-0.713,0.713h-4.443V54.964c0-1.755,1.426-3.182,3.182-3.182
		h17.225c5.156,0,9.325,3.236,9.325,8.832v5.32c0,4.827-3.456,7.461-7.46,8.503l8.777,18.541h-4.772
		c-0.384,0-0.823-0.329-0.987-0.658l-8.338-17.608h-7.021h-1.591c-1.536,0-2.688-0.439-3.072-1.481H131.876z M147.126,69.994
		c2.304,0,4.169-1.865,4.169-4.169v-5.156c0-2.304-1.865-4.169-4.169-4.169h-14.208c-0.603,0-1.042,0.493-1.042,1.042v11.41
		c0,0.604,0.494,1.042,1.042,1.042H147.126z"/>
	<path fill="#D8D9DA" d="M171.43,93.198c-5.157,0-9.326-4.169-9.326-9.326V60.888c0-5.156,4.169-9.325,9.326-9.325h12.397
		c5.102,0,9.325,4.169,9.325,9.325v22.984c0,5.157-4.224,9.326-9.325,9.326H171.43z M167.261,60.449v23.862
		c0,2.304,1.865,4.169,4.169,4.169h12.397c2.304,0,4.169-1.865,4.169-4.169V60.449c0-2.304-1.865-4.169-4.169-4.169H171.43
		C169.126,56.28,167.261,58.146,167.261,60.449z"/>
	<path fill="#D8D9DA" d="M199.904,89.797V54.854c0-1.701,1.371-3.072,3.071-3.072h0.878h16.676c5.157,0,9.326,4.169,9.326,9.325
		v4.169c0,2.633-2.085,6.144-5.047,6.747c2.962,0.769,5.047,4.114,5.047,6.747v4.828c0,5.156-4.169,9.38-9.326,9.38h-17.443
		C201.329,92.979,199.904,91.553,199.904,89.797z M205.06,69.665h15.469c2.305,0,4.17-1.865,4.17-4.169v-4.827
		c0-2.304-1.865-4.169-4.17-4.169h-14.427c-0.604,0-1.042,0.438-1.042,1.042V69.665z M224.698,78.552
		c0-2.304-1.865-4.169-4.17-4.169H205.06v12.836c0,0.549,0.438,1.042,1.042,1.042h14.427c2.305,0,4.17-1.92,4.17-4.224V78.552z"/>
	<path fill="#D8D9DA" d="M236.056,83.488V52.495c0-0.384,0.329-0.713,0.714-0.713h4.442v32.2c0,2.358,1.92,4.278,4.225,4.278h17.114
		c0.385,0,0.714,0.329,0.714,0.713v4.005h-17.828C240.281,92.979,236.056,88.7,236.056,83.488z"/>
	<path fill="#D8D9DA" d="M272.812,60.669v10.422c0.549-0.658,1.536-1.097,2.688-1.097h18.047v4.005c0,0.384-0.329,0.713-0.713,0.713
		h-20.022v9.38c0,2.304,1.865,4.169,4.17,4.169h17.772c0.384,0,0.713,0.329,0.713,0.713v4.005h-18.485
		c-5.157,0-9.326-4.169-9.326-9.325V61.107c0-5.156,4.169-9.325,9.326-9.325h18.485v4.004c0,0.385-0.329,0.714-0.713,0.714h-17.772
		C274.677,56.5,272.812,58.365,272.812,60.669z"/>
	<path fill="#D8D9DA" d="M320.539,88.261c2.304,0,4.06-1.865,4.06-4.169v-4.991c0-0.549-0.439-1.152-0.987-1.317l-21.064-7.021
		c-1.646-0.548-3.018-2.413-3.018-4.169v-6.527c0-5.156,4.169-8.283,9.325-8.283h19.529v4.004c0,0.385-0.274,0.714-0.714,0.714
		h-18.815c-2.304,0-4.224,1.48-4.224,3.785v5.32c0,0.604,0.439,1.207,0.987,1.372l21.064,6.966c1.646,0.549,2.853,2.469,2.853,4.225
		v5.869c0,5.156-3.895,8.941-8.996,8.941h-21.01v-4.005c0-0.438,0.329-0.713,0.713-0.713H320.539z"/>
</g>
</svg>
